<svg width="32" height="32" viewBox="0 0 32 32" fill="none" xmlns="http://www.w3.org/2000/svg">
<rect width="32" height="32" rx="16" fill="black"/>
<path d="M32 16C32 24.8366 24.8366 32 16 32C7.16344 32 0 24.8366 0 16C0 7.16344 7.16344 0 16 0C24.8366 0 32 7.16344 32 16Z" fill="#7667EB"/>
<path d="M31.1419 16C31.1419 7.63725 24.3627 0.858073 16 0.858073C7.63725 0.858073 0.858073 7.63725 0.858073 16C0.858073 24.3627 7.63725 31.1419 16 31.1419V32C7.16344 32 0 24.8366 0 16C0 7.16344 7.16344 0 16 0C24.8366 0 32 7.16344 32 16C32 24.8366 24.8366 32 16 32V31.1419C24.3627 31.1419 31.1419 24.3627 31.1419 16Z" fill="white"/>
<rect x="16.148" y="4.71622" width="2.9217" height="13.1471" rx="1.46085" transform="rotate(45 16.148 4.71622)" fill="white"/>
<rect x="16.9877" y="9.90897" width="2.9217" height="13.1471" rx="1.46085" transform="rotate(45 16.9877 9.90897)" fill="white"/>
<rect x="22.1628" y="10.761" width="2.9217" height="13.1471" rx="1.46085" transform="rotate(45 22.1628 10.761)" fill="white"/>
<rect x="23.0025" y="15.9538" width="2.9217" height="13.1471" rx="1.46085" transform="rotate(45 23.0025 15.9538)" fill="white"/>
</svg>
