<svg width="32" height="32" viewBox="0 0 32 32" fill="none" xmlns="http://www.w3.org/2000/svg">
<circle cx="15.3959" cy="16.0626" r="14.7969" fill="black" stroke="#F0B90B" stroke-width="1.19813"/>
<rect x="22.3693" y="11.4436" width="0.800762" height="3.05052" rx="0.400381" fill="#F0B90B" stroke="#F0B90B" stroke-width="0.0381315"/>
<rect x="22.3693" y="17.6589" width="0.800762" height="3.05052" rx="0.400381" fill="#F0B90B" stroke="#F0B90B" stroke-width="0.0381315"/>
<rect x="11.2385" y="8.35497" width="0.800762" height="15.4433" rx="0.400381" fill="#F0B90B" stroke="#F0B90B" stroke-width="0.0381315"/>
<rect x="11.2385" y="24.256" width="0.800762" height="3.05052" rx="0.400381" fill="#F0B90B" stroke="#F0B90B" stroke-width="0.0381315"/>
<rect x="11.2385" y="4.99953" width="0.800762" height="3.05052" rx="0.400381" fill="#F0B90B" stroke="#F0B90B" stroke-width="0.0381315"/>
<rect x="12.6501" y="8.35497" width="0.800762" height="15.4433" rx="0.400381" fill="#F0B90B" stroke="#F0B90B" stroke-width="0.0381315"/>
<rect x="12.6501" y="24.256" width="0.800762" height="3.05052" rx="0.400381" fill="#F0B90B" stroke="#F0B90B" stroke-width="0.0381315"/>
<rect x="12.6501" y="4.99953" width="0.800762" height="3.05052" rx="0.400381" fill="#F0B90B" stroke="#F0B90B" stroke-width="0.0381315"/>
<rect x="14.027" y="8.3543" width="0.800762" height="3.05052" rx="0.400381" fill="#F0B90B" stroke="#F0B90B" stroke-width="0.0381315"/>
<rect x="14.027" y="14.5316" width="0.800762" height="3.05052" rx="0.400381" fill="#F0B90B" stroke="#F0B90B" stroke-width="0.0381315"/>
<rect x="14.027" y="20.7472" width="0.800762" height="3.05052" rx="0.400381" fill="#F0B90B" stroke="#F0B90B" stroke-width="0.0381315"/>
<rect x="18.2308" y="8.35363" width="0.800558" height="3.077" rx="0.400279" fill="#F0B90B" stroke="#F0B90B" stroke-width="0.0381315"/>
<rect x="18.2308" y="14.5243" width="0.800558" height="3.077" rx="0.400279" fill="#F0B90B" stroke="#F0B90B" stroke-width="0.0381315"/>
<rect x="18.2308" y="20.7542" width="0.800558" height="3.01709" rx="0.400279" fill="#F0B90B" stroke="#F0B90B" stroke-width="0.0381315"/>
<rect x="9.86196" y="8.3543" width="0.800762" height="3.05052" rx="0.400381" fill="#F0B90B" stroke="#F0B90B" stroke-width="0.0381315"/>
<rect x="9.86193" y="20.7472" width="0.800762" height="3.05052" rx="0.400381" fill="#F0B90B" stroke="#F0B90B" stroke-width="0.0381315"/>
<rect x="8.47317" y="8.3543" width="0.800762" height="3.05052" rx="0.400381" fill="#F0B90B" stroke="#F0B90B" stroke-width="0.0381315"/>
<rect x="8.47314" y="20.7472" width="0.800762" height="3.05052" rx="0.400381" fill="#F0B90B" stroke="#F0B90B" stroke-width="0.0381315"/>
<rect x="15.4166" y="14.5323" width="0.800762" height="3.05052" rx="0.400381" fill="#F0B90B" stroke="#F0B90B" stroke-width="0.0381315"/>
<rect x="15.4336" y="24.256" width="0.800762" height="3.05052" rx="0.400381" fill="#F0B90B" stroke="#F0B90B" stroke-width="0.0381315"/>
<rect x="15.4347" y="4.99953" width="0.800762" height="3.05052" rx="0.400381" fill="#F0B90B" stroke="#F0B90B" stroke-width="0.0381315"/>
<rect x="15.4347" y="20.7481" width="0.800762" height="3.05052" rx="0.400381" fill="#F0B90B" stroke="#F0B90B" stroke-width="0.0381315"/>
<rect x="15.4347" y="8.35497" width="0.800762" height="3.05052" rx="0.400381" fill="#F0B90B" stroke="#F0B90B" stroke-width="0.0381315"/>
<rect x="16.8199" y="14.5323" width="0.800762" height="3.05052" rx="0.400381" fill="#F0B90B" stroke="#F0B90B" stroke-width="0.0381315"/>
<rect x="16.805" y="24.256" width="0.800762" height="3.05052" rx="0.400381" fill="#F0B90B" stroke="#F0B90B" stroke-width="0.0381315"/>
<rect x="16.8051" y="4.99953" width="0.800762" height="3.05052" rx="0.400381" fill="#F0B90B" stroke="#F0B90B" stroke-width="0.0381315"/>
<rect x="16.805" y="20.7481" width="0.800762" height="3.05052" rx="0.400381" fill="#F0B90B" stroke="#F0B90B" stroke-width="0.0381315"/>
<rect x="16.805" y="8.35497" width="0.800762" height="3.05052" rx="0.400381" fill="#F0B90B" stroke="#F0B90B" stroke-width="0.0381315"/>
<rect x="19.6275" y="8.35491" width="0.800762" height="15.4433" rx="0.400381" fill="#F0B90B" stroke="#F0B90B" stroke-width="0.0381315"/>
<rect x="21" y="9.95614" width="0.800762" height="12.3546" rx="0.400381" fill="#F0B90B" stroke="#F0B90B" stroke-width="0.0381315"/>
<circle cx="26.9024" cy="6.48324" r="4.67513" fill="black" stroke="#F0B90B" stroke-width="0.844982"/>
<path d="M24.734 6.53079L24.737 7.77786V7.80228L24.7585 7.814L25.817 8.43704V9.08255L24.1901 8.12845V6.2095L24.734 6.53079ZM25.3249 4.8638L24.7545 5.19974L24.734 5.21146V5.90189L24.1891 5.57962V4.88724L24.776 4.53958L25.3249 4.8638ZM27.4889 4.8638L26.9391 5.18704L26.3922 4.8638L26.9391 4.53958L27.4889 4.8638Z" fill="#F0B90B" stroke="#F0B90B" stroke-width="0.0844982"/>
<path d="M27.5306 9.39603L26.9408 9.74368L26.3539 9.39603V8.75345L26.9193 9.08841L26.9408 9.1011L26.9622 9.08841L27.5306 8.75345V9.39603ZM29.6937 8.12845L28.0667 9.08255V8.43607L29.1253 7.814L29.1458 7.80228V7.77786L29.1488 6.53079L29.6937 6.20853V8.12845ZM25.8187 7.16556V7.80814L25.2738 7.48978V6.84329L25.8187 7.16556ZM29.1458 5.21146L29.1253 5.19974L28.557 4.8638L29.1039 4.53958L29.6937 4.88724V5.57962L29.1458 5.90189V5.21146Z" fill="#F0B90B" stroke="#F0B90B" stroke-width="0.0844982"/>
<path d="M28.6116 7.48993L28.0667 7.80829V7.16571L28.6116 6.84344V7.48993Z" fill="#F0B90B" stroke="#F0B90B" stroke-width="0.0844982"/>
<path d="M28.5687 4.228L28.0228 4.55124L26.9622 3.92624L26.9408 3.91354L26.9193 3.92624L25.8607 4.55026L25.3148 4.228L26.9408 3.26901L28.5687 4.228ZM26.3578 6.85495L26.3363 6.84225L25.2747 6.21823V5.52292L25.8626 5.17624L26.9183 5.80222L26.9398 5.81491L26.9613 5.80222L28.0228 5.17526L28.6107 5.52097L28.6126 6.21823L27.5521 6.84225L27.5306 6.85495V8.12839L26.9437 8.47214L26.3578 8.12839V6.85495Z" fill="#F0B90B" stroke="#F0B90B" stroke-width="0.0844982"/>
</svg>
