<svg width="48" height="48" viewBox="0 0 48 48" fill="none" xmlns="http://www.w3.org/2000/svg">
<circle cx="23.0939" cy="24.0939" r="22.1953" fill="black" stroke="#F0B90B" stroke-width="1.79719"/>
<rect x="33.554" y="17.1654" width="1.20114" height="4.57578" rx="0.600572" fill="#F0B90B" stroke="#F0B90B" stroke-width="0.0571973"/>
<rect x="33.554" y="26.4883" width="1.20114" height="4.57578" rx="0.600572" fill="#F0B90B" stroke="#F0B90B" stroke-width="0.0571973"/>
<rect x="16.8578" y="12.5325" width="1.20114" height="23.1649" rx="0.600572" fill="#F0B90B" stroke="#F0B90B" stroke-width="0.0571973"/>
<rect x="16.8578" y="36.384" width="1.20114" height="4.57578" rx="0.600572" fill="#F0B90B" stroke="#F0B90B" stroke-width="0.0571973"/>
<rect x="16.8578" y="7.4993" width="1.20114" height="4.57578" rx="0.600572" fill="#F0B90B" stroke="#F0B90B" stroke-width="0.0571973"/>
<rect x="18.9753" y="12.5325" width="1.20114" height="23.1649" rx="0.600572" fill="#F0B90B" stroke="#F0B90B" stroke-width="0.0571973"/>
<rect x="18.9753" y="36.384" width="1.20114" height="4.57578" rx="0.600572" fill="#F0B90B" stroke="#F0B90B" stroke-width="0.0571973"/>
<rect x="18.9753" y="7.4993" width="1.20114" height="4.57578" rx="0.600572" fill="#F0B90B" stroke="#F0B90B" stroke-width="0.0571973"/>
<rect x="21.0405" y="12.5315" width="1.20114" height="4.57578" rx="0.600572" fill="#F0B90B" stroke="#F0B90B" stroke-width="0.0571973"/>
<rect x="21.0405" y="21.7975" width="1.20114" height="4.57578" rx="0.600572" fill="#F0B90B" stroke="#F0B90B" stroke-width="0.0571973"/>
<rect x="21.0405" y="31.1208" width="1.20114" height="4.57578" rx="0.600572" fill="#F0B90B" stroke="#F0B90B" stroke-width="0.0571973"/>
<rect x="27.3462" y="12.5305" width="1.20084" height="4.6155" rx="0.600418" fill="#F0B90B" stroke="#F0B90B" stroke-width="0.0571973"/>
<rect x="27.3462" y="21.7865" width="1.20084" height="4.6155" rx="0.600418" fill="#F0B90B" stroke="#F0B90B" stroke-width="0.0571973"/>
<rect x="27.3462" y="31.1313" width="1.20084" height="4.52564" rx="0.600418" fill="#F0B90B" stroke="#F0B90B" stroke-width="0.0571973"/>
<rect x="14.793" y="12.5315" width="1.20114" height="4.57578" rx="0.600572" fill="#F0B90B" stroke="#F0B90B" stroke-width="0.0571973"/>
<rect x="14.7929" y="31.1208" width="1.20114" height="4.57578" rx="0.600572" fill="#F0B90B" stroke="#F0B90B" stroke-width="0.0571973"/>
<rect x="12.7098" y="12.5315" width="1.20114" height="4.57578" rx="0.600572" fill="#F0B90B" stroke="#F0B90B" stroke-width="0.0571973"/>
<rect x="12.7098" y="31.1208" width="1.20114" height="4.57578" rx="0.600572" fill="#F0B90B" stroke="#F0B90B" stroke-width="0.0571973"/>
<rect x="23.125" y="21.7984" width="1.20114" height="4.57578" rx="0.600572" fill="#F0B90B" stroke="#F0B90B" stroke-width="0.0571973"/>
<rect x="23.1505" y="36.384" width="1.20114" height="4.57578" rx="0.600572" fill="#F0B90B" stroke="#F0B90B" stroke-width="0.0571973"/>
<rect x="23.1521" y="7.4993" width="1.20114" height="4.57578" rx="0.600572" fill="#F0B90B" stroke="#F0B90B" stroke-width="0.0571973"/>
<rect x="23.1521" y="31.1222" width="1.20114" height="4.57578" rx="0.600572" fill="#F0B90B" stroke="#F0B90B" stroke-width="0.0571973"/>
<rect x="23.1521" y="12.5325" width="1.20114" height="4.57578" rx="0.600572" fill="#F0B90B" stroke="#F0B90B" stroke-width="0.0571973"/>
<rect x="25.23" y="21.7984" width="1.20114" height="4.57578" rx="0.600572" fill="#F0B90B" stroke="#F0B90B" stroke-width="0.0571973"/>
<rect x="25.2077" y="36.384" width="1.20114" height="4.57578" rx="0.600572" fill="#F0B90B" stroke="#F0B90B" stroke-width="0.0571973"/>
<rect x="25.2077" y="7.4993" width="1.20114" height="4.57578" rx="0.600572" fill="#F0B90B" stroke="#F0B90B" stroke-width="0.0571973"/>
<rect x="25.2077" y="31.1222" width="1.20114" height="4.57578" rx="0.600572" fill="#F0B90B" stroke="#F0B90B" stroke-width="0.0571973"/>
<rect x="25.2077" y="12.5325" width="1.20114" height="4.57578" rx="0.600572" fill="#F0B90B" stroke="#F0B90B" stroke-width="0.0571973"/>
<rect x="29.4413" y="12.5324" width="1.20114" height="23.1649" rx="0.600572" fill="#F0B90B" stroke="#F0B90B" stroke-width="0.0571973"/>
<rect x="31.5001" y="14.9342" width="1.20114" height="18.5319" rx="0.600572" fill="#F0B90B" stroke="#F0B90B" stroke-width="0.0571973"/>
<circle cx="40.3536" cy="9.72486" r="7.01269" fill="black" stroke="#F0B90B" stroke-width="1.26747"/>
<path d="M37.1005 9.79617L37.1054 11.6663L37.1064 11.7024L37.1367 11.721L38.7255 12.6555V13.6243L36.2841 12.1927V9.31277L37.1005 9.79617ZM37.9872 7.2952L37.1318 7.7991L37.1005 7.81766V8.85281L36.2841 8.36942V7.33133L37.164 6.81082L37.9872 7.2952ZM41.2324 7.2952L40.4091 7.77957L39.5888 7.2952L40.4091 6.81082L41.2324 7.2952Z" fill="#F0B90B" stroke="#F0B90B" stroke-width="0.126747"/>
<path d="M41.2959 14.093L40.4111 14.6145L39.5312 14.094V13.1302L40.3789 13.6321L40.4111 13.6516L40.4433 13.6321L41.2959 13.1302V14.093ZM44.541 12.1927L42.0996 13.6243V12.6555L43.6875 11.721L43.7187 11.7024V11.6663L43.7226 9.79617L44.541 9.31277V12.1927ZM38.7275 10.7493V11.7132L37.9111 11.2346V10.2659L38.7275 10.7493ZM43.7187 7.81766L43.6875 7.7991L42.8349 7.2952L43.6552 6.81082L44.54 7.33133V8.36942L43.7187 8.85379V7.81766Z" fill="#F0B90B" stroke="#F0B90B" stroke-width="0.126747"/>
<path d="M42.9169 11.2344L42.1005 11.7129V10.7491L42.9169 10.2657V11.2344Z" fill="#F0B90B" stroke="#F0B90B" stroke-width="0.126747"/>
<path d="M42.8535 6.34247L42.0341 6.82684L40.4433 5.88837L40.4111 5.86981L40.3789 5.88837L38.79 6.82684L37.9716 6.34247L40.4111 4.90497L42.8535 6.34247ZM39.5361 10.2819L39.5049 10.2634L37.9111 9.32782V8.28485L38.7949 7.76434L40.3779 8.70282L40.4101 8.72235L40.4424 8.70282L42.0351 7.76434L42.915 8.28192L42.9199 9.32782L41.3271 10.2634L41.2959 10.2819V12.1921L40.416 12.7077L39.5361 12.1921V10.2819Z" fill="#F0B90B" stroke="#F0B90B" stroke-width="0.126747"/>
</svg>
