<svg width="32" height="32" viewBox="0 0 32 32" fill="none" xmlns="http://www.w3.org/2000/svg">
<circle cx="15.4358" cy="15.9103" r="14.8352" fill="black" stroke="#FF9211" stroke-width="1.20123"/>
<circle cx="26.9609" cy="6.23444" r="4.62151" fill="#FF9211" stroke="#FF9211" stroke-width="0.835292"/>
<mask id="mask0_7122_11624" style="mask-type:luminance" maskUnits="userSpaceOnUse" x="22" y="1" width="10" height="10">
<path d="M31.0126 2.11102V10.2468H22.8769V2.11102H31.0126Z" fill="white" stroke="white" stroke-width="0.268755"/>
</mask>
<g mask="url(#mask0_7122_11624)">
<path d="M26.9453 2.11102C29.1919 2.11129 31.0126 3.93271 31.0126 6.17938C31.0124 8.42583 29.1917 10.2465 26.9453 10.2468C24.6986 10.2468 22.8772 8.426 22.8769 6.17938C22.8769 3.93254 24.6984 2.11102 26.9453 2.11102Z" fill="#121212" stroke="#FF9211" stroke-width="0.268755"/>
<mask id="mask1_7122_11624" style="mask-type:luminance" maskUnits="userSpaceOnUse" x="24" y="3" width="6" height="6">
<path d="M29.2399 3.69861V8.77966H24.8395V3.69861H29.2399Z" fill="white" stroke="white" stroke-width="0.268755"/>
</mask>
<g mask="url(#mask1_7122_11624)">
<path d="M27.029 3.70056C27.0353 3.6971 27.0423 3.69714 27.0485 3.70056L29.2282 4.9613H29.2292C29.2347 4.96464 29.2388 4.97053 29.239 4.97791V7.49841C29.239 7.50608 29.2349 7.51262 29.2292 7.51599H29.2282L27.0485 8.77576H27.029L24.8493 7.51599C24.8435 7.51263 24.8395 7.50612 24.8395 7.49841V4.97791C24.8397 4.9704 24.8436 4.9646 24.8493 4.9613L27.029 3.70056ZM29.0075 5.10095L28.9401 5.06287L27.1061 4.0033L27.0388 3.96423L26.9714 4.0033L25.1374 5.06287L25.07 5.10095V7.37732L25.1374 7.41541L26.9714 8.47498L27.0388 8.51404L27.1061 8.47498L28.9401 7.41541L29.0075 7.37732V5.10095Z" fill="#FF9211" stroke="#FF9211" stroke-width="0.268755"/>
<mask id="path-8-inside-1_7122_11624" fill="white">
<path d="M27.0398 4.88673L25.8699 5.56254V6.91415L27.0325 7.5856C27.0369 7.5885 27.0398 7.59286 27.0398 7.59867V7.82975C27.0398 7.84138 27.0268 7.84865 27.0166 7.84284L25.6969 7.08128C25.6606 7.06094 25.6389 7.02315 25.6389 6.98101V5.49568C25.6389 5.45499 25.6606 5.41575 25.6969 5.39541L26.9817 4.65274C27.0181 4.63239 27.0617 4.63239 27.0965 4.65274L28.422 5.41575C28.4321 5.42157 28.4321 5.4361 28.422 5.44191C28.3435 5.48842 28.3043 5.50877 28.2156 5.55818C28.2112 5.56108 28.2055 5.56108 28.2011 5.55818L27.0398 4.88673Z"/>
</mask>
<path d="M27.0398 4.88673L25.8699 5.56254V6.91415L27.0325 7.5856C27.0369 7.5885 27.0398 7.59286 27.0398 7.59867V7.82975C27.0398 7.84138 27.0268 7.84865 27.0166 7.84284L25.6969 7.08128C25.6606 7.06094 25.6389 7.02315 25.6389 6.98101V5.49568C25.6389 5.45499 25.6606 5.41575 25.6969 5.39541L26.9817 4.65274C27.0181 4.63239 27.0617 4.63239 27.0965 4.65274L28.422 5.41575C28.4321 5.42157 28.4321 5.4361 28.422 5.44191C28.3435 5.48842 28.3043 5.50877 28.2156 5.55818C28.2112 5.56108 28.2055 5.56108 28.2011 5.55818L27.0398 4.88673Z" fill="#FF9211"/>
<path d="M27.0398 4.88673L27.1744 4.65407L27.0399 4.57632L26.9054 4.65401L27.0398 4.88673ZM25.8699 5.56254L25.7355 5.32982L25.6012 5.40742V5.56254H25.8699ZM25.8699 6.91415H25.6012V7.06929L25.7355 7.14688L25.8699 6.91415ZM27.0325 7.5856L27.1809 7.36147L27.174 7.35696L27.167 7.35287L27.0325 7.5856ZM27.0166 7.84284L26.8822 8.07561L26.8834 8.07626L27.0166 7.84284ZM25.6969 7.08128L25.8313 6.84849L25.8282 6.84678L25.6969 7.08128ZM25.6969 5.39541L25.8283 5.62993L25.8314 5.62809L25.6969 5.39541ZM26.9817 4.65274L26.8504 4.41825L26.8472 4.42007L26.9817 4.65274ZM27.0965 4.65274L26.9609 4.88481L26.9624 4.88567L27.0965 4.65274ZM28.422 5.41575L28.5563 5.18295L28.5561 5.18283L28.422 5.41575ZM28.422 5.44191L28.2879 5.209L28.2851 5.21065L28.422 5.44191ZM28.2156 5.55818L28.0848 5.32344L28.0758 5.32841L28.0673 5.33405L28.2156 5.55818ZM28.2011 5.55818L28.3494 5.33405L28.3426 5.32958L28.3356 5.32552L28.2011 5.55818ZM27.0398 4.88673L26.9054 4.65401L25.7355 5.32982L25.8699 5.56254L26.0043 5.79526L27.1743 5.11945L27.0398 4.88673ZM25.8699 5.56254H25.6012V6.91415H25.8699H26.1387V5.56254H25.8699ZM25.8699 6.91415L25.7355 7.14688L26.8981 7.81833L27.0325 7.5856L27.167 7.35287L26.0043 6.68142L25.8699 6.91415ZM27.0325 7.5856L26.8842 7.80973C26.8576 7.79208 26.8283 7.76523 26.8057 7.72655C26.7825 7.6867 26.7711 7.64232 26.7711 7.59867H27.0398H27.3086C27.3086 7.48877 27.2481 7.40595 27.1809 7.36147L27.0325 7.5856ZM27.0398 7.59867H26.7711V7.82975H27.0398H27.3086V7.59867H27.0398ZM27.0398 7.82975H26.7711C26.7711 7.62407 26.9905 7.5185 27.1498 7.60941L27.0166 7.84284L26.8834 8.07626C27.0631 8.17879 27.3086 8.05869 27.3086 7.82975H27.0398ZM27.0166 7.84284L27.1509 7.61006L25.8313 6.84851L25.6969 7.08128L25.5626 7.31406L26.8822 8.07561L27.0166 7.84284ZM25.6969 7.08128L25.8282 6.84678C25.8789 6.87514 25.9076 6.9283 25.9076 6.98101H25.6389H25.3701C25.3701 7.11801 25.4423 7.24674 25.5656 7.31578L25.6969 7.08128ZM25.6389 6.98101H25.9076V5.49568H25.6389H25.3701V6.98101H25.6389ZM25.6389 5.49568H25.9076C25.9076 5.54793 25.8805 5.60064 25.8282 5.62991L25.6969 5.39541L25.5656 5.16091C25.4407 5.23086 25.3701 5.36205 25.3701 5.49568H25.6389ZM25.6969 5.39541L25.8314 5.62809L27.1162 4.88542L26.9817 4.65274L26.8472 4.42007L25.5624 5.16273L25.6969 5.39541ZM26.9817 4.65274L27.1131 4.88722C27.0696 4.91158 27.0116 4.91437 26.961 4.8848L27.0965 4.65274L27.2321 4.42069C27.1118 4.35041 26.9665 4.35321 26.8504 4.41827L26.9817 4.65274ZM27.0965 4.65274L26.9624 4.88567L28.288 5.64867L28.422 5.41575L28.5561 5.18283L27.2306 4.41982L27.0965 4.65274ZM28.422 5.41575L28.2877 5.64855C28.1187 5.55103 28.1183 5.30667 28.2879 5.20901L28.422 5.44191L28.5562 5.6748C28.7459 5.56553 28.7455 5.29211 28.5563 5.18295L28.422 5.41575ZM28.422 5.44191L28.2851 5.21065C28.2106 5.25479 28.1781 5.27141 28.0848 5.32344L28.2156 5.55818L28.3465 5.79292C28.4304 5.74613 28.4764 5.72204 28.559 5.67316L28.422 5.44191ZM28.2156 5.55818L28.0673 5.33405C28.1529 5.27745 28.2638 5.27745 28.3494 5.33405L28.2011 5.55818L28.0528 5.78231C28.1471 5.84471 28.2696 5.84471 28.3639 5.78231L28.2156 5.55818ZM28.2011 5.55818L28.3356 5.32552L27.1744 4.65407L27.0398 4.88673L26.9053 5.11939L28.0665 5.79084L28.2011 5.55818Z" fill="#FF9211" mask="url(#path-8-inside-1_7122_11624)"/>
<path d="M28.2928 7.08621L27.368 7.62332V6.33914L28.2928 5.84598V7.08621Z" fill="#FF9211" stroke="#FF9211" stroke-width="0.268755"/>
</g>
</g>
<rect x="22.4297" y="11.2788" width="0.802836" height="3.05842" rx="0.401418" fill="#FF9211" stroke="#FF9211" stroke-width="0.0382303"/>
<rect x="22.4297" y="17.5102" width="0.802836" height="3.05842" rx="0.401418" fill="#FF9211" stroke="#FF9211" stroke-width="0.0382303"/>
<rect x="11.268" y="8.18193" width="0.802836" height="15.4833" rx="0.401418" fill="#FF9211" stroke="#FF9211" stroke-width="0.0382303"/>
<rect x="11.268" y="24.1241" width="0.802836" height="3.05842" rx="0.401418" fill="#FF9211" stroke="#FF9211" stroke-width="0.0382303"/>
<rect x="11.268" y="4.81782" width="0.802836" height="3.05842" rx="0.401418" fill="#FF9211" stroke="#FF9211" stroke-width="0.0382303"/>
<rect x="12.6829" y="8.18193" width="0.802836" height="15.4833" rx="0.401418" fill="#FF9211" stroke="#FF9211" stroke-width="0.0382303"/>
<rect x="12.6829" y="24.1241" width="0.802836" height="3.05842" rx="0.401418" fill="#FF9211" stroke="#FF9211" stroke-width="0.0382303"/>
<rect x="12.6829" y="4.81782" width="0.802836" height="3.05842" rx="0.401418" fill="#FF9211" stroke="#FF9211" stroke-width="0.0382303"/>
<rect x="14.0634" y="8.18211" width="0.802836" height="3.05842" rx="0.401418" fill="#FF9211" stroke="#FF9211" stroke-width="0.0382303"/>
<rect x="14.0634" y="14.3755" width="0.802836" height="3.05842" rx="0.401418" fill="#FF9211" stroke="#FF9211" stroke-width="0.0382303"/>
<rect x="14.0634" y="20.6071" width="0.802836" height="3.05842" rx="0.401418" fill="#FF9211" stroke="#FF9211" stroke-width="0.0382303"/>
<rect x="18.2783" y="8.18122" width="0.802631" height="3.08497" rx="0.401316" fill="#FF9211" stroke="#FF9211" stroke-width="0.0382303"/>
<rect x="18.2783" y="14.3679" width="0.802631" height="3.08497" rx="0.401316" fill="#FF9211" stroke="#FF9211" stroke-width="0.0382303"/>
<rect x="18.2783" y="20.6139" width="0.802631" height="3.02491" rx="0.401316" fill="#FF9211" stroke="#FF9211" stroke-width="0.0382303"/>
<rect x="9.88752" y="8.18211" width="0.802836" height="3.05842" rx="0.401418" fill="#FF9211" stroke="#FF9211" stroke-width="0.0382303"/>
<rect x="9.88752" y="20.6071" width="0.802836" height="3.05842" rx="0.401418" fill="#FF9211" stroke="#FF9211" stroke-width="0.0382303"/>
<rect x="8.49519" y="8.18211" width="0.802836" height="3.05842" rx="0.401418" fill="#FF9211" stroke="#FF9211" stroke-width="0.0382303"/>
<rect x="8.49519" y="20.6071" width="0.802836" height="3.05842" rx="0.401418" fill="#FF9211" stroke="#FF9211" stroke-width="0.0382303"/>
<rect x="15.4566" y="14.3752" width="0.802836" height="3.05842" rx="0.401418" fill="#FF9211" stroke="#FF9211" stroke-width="0.0382303"/>
<rect x="15.4736" y="24.1241" width="0.802836" height="3.05842" rx="0.401418" fill="#FF9211" stroke="#FF9211" stroke-width="0.0382303"/>
<rect x="15.4747" y="4.81779" width="0.802836" height="3.05842" rx="0.401418" fill="#FF9211" stroke="#FF9211" stroke-width="0.0382303"/>
<rect x="15.4747" y="20.6072" width="0.802836" height="3.05842" rx="0.401418" fill="#FF9211" stroke="#FF9211" stroke-width="0.0382303"/>
<rect x="15.4747" y="8.18193" width="0.802836" height="3.05842" rx="0.401418" fill="#FF9211" stroke="#FF9211" stroke-width="0.0382303"/>
<rect x="16.8651" y="14.3752" width="0.802836" height="3.05842" rx="0.401418" fill="#FF9211" stroke="#FF9211" stroke-width="0.0382303"/>
<rect x="16.8502" y="24.1241" width="0.802836" height="3.05842" rx="0.401418" fill="#FF9211" stroke="#FF9211" stroke-width="0.0382303"/>
<rect x="16.8502" y="4.81782" width="0.802836" height="3.05842" rx="0.401418" fill="#FF9211" stroke="#FF9211" stroke-width="0.0382303"/>
<rect x="16.8502" y="20.6072" width="0.802836" height="3.05842" rx="0.401418" fill="#FF9211" stroke="#FF9211" stroke-width="0.0382303"/>
<rect x="16.8502" y="8.18193" width="0.802836" height="3.05842" rx="0.401418" fill="#FF9211" stroke="#FF9211" stroke-width="0.0382303"/>
<rect x="19.6784" y="8.18205" width="0.802836" height="15.4833" rx="0.401418" fill="#FF9211" stroke="#FF9211" stroke-width="0.0382303"/>
<rect x="21.0545" y="9.78798" width="0.802836" height="12.3866" rx="0.401418" fill="#FF9211" stroke="#FF9211" stroke-width="0.0382303"/>
</svg>
