<svg width="48" height="48" viewBox="0 0 48 48" fill="none" xmlns="http://www.w3.org/2000/svg">
<circle cx="23.1537" cy="23.8655" r="22.2528" fill="black" stroke="#FF9211" stroke-width="1.80185"/>
<circle cx="40.4412" cy="9.35165" r="6.93227" fill="#FF9211" stroke="#FF9211" stroke-width="1.25294"/>
<mask id="mask0_7122_11624" style="mask-type:luminance" maskUnits="userSpaceOnUse" x="34" y="2" width="13" height="14">
<path d="M46.5194 3.16556V15.3706H34.3143V3.16556H46.5194Z" fill="white" stroke="white" stroke-width="0.403133"/>
</mask>
<g mask="url(#mask0_7122_11624)">
<path d="M40.4169 3.16556C43.7871 3.16556 46.5193 5.89795 46.5194 9.2681C46.5194 12.6384 43.7872 15.3706 40.4169 15.3706C37.0467 15.3705 34.3143 12.6383 34.3143 9.2681C34.3145 5.89804 37.0468 3.16569 40.4169 3.16556Z" fill="#121212" stroke="#FF9211" stroke-width="0.403133"/>
<mask id="mask1_7122_11624" style="mask-type:luminance" maskUnits="userSpaceOnUse" x="37" y="5" width="8" height="9">
<path d="M43.8599 5.54694V13.169H37.2584V5.54694H43.8599Z" fill="white" stroke="white" stroke-width="0.403133"/>
</mask>
<g mask="url(#mask1_7122_11624)">
<path d="M40.5435 5.55182C40.5532 5.54632 40.5632 5.54638 40.5728 5.55182L43.8433 7.44147C43.852 7.44649 43.858 7.45624 43.858 7.46783V11.2471C43.858 11.2587 43.852 11.2685 43.8433 11.2735L40.5738 13.1631C40.564 13.1688 40.5523 13.1688 40.5425 13.1631L37.274 11.2735H37.273C37.2643 11.2684 37.2584 11.2586 37.2584 11.2471V7.46783C37.2584 7.45634 37.2643 7.44653 37.273 7.44147H37.274L40.5435 5.55182ZM43.5113 7.6524L43.4107 7.59381L40.6588 6.00494L40.5582 5.94635L40.4576 6.00494L37.7066 7.59381L37.605 7.6524V11.0655L37.7066 11.1231L40.4576 12.713L40.5582 12.7706L40.6588 12.713L43.4107 11.1231L43.5113 11.0655V7.6524Z" fill="#FF9211" stroke="#FF9211" stroke-width="0.403133"/>
<mask id="path-8-inside-1_7122_11624" fill="white">
<path d="M40.5598 7.33011L38.8049 8.34383V10.3712L40.5488 11.3784C40.5554 11.3828 40.5598 11.3893 40.5598 11.398V11.7446C40.5598 11.7621 40.5402 11.773 40.5249 11.7643L38.5454 10.6219C38.491 10.5914 38.4583 10.5347 38.4583 10.4715V8.24354C38.4583 8.1825 38.491 8.12364 38.5454 8.09313L40.4726 6.97913C40.5271 6.94861 40.5926 6.94861 40.6448 6.97913L42.6331 8.12364C42.6482 8.13236 42.6482 8.15416 42.6331 8.16287C42.5153 8.23264 42.4564 8.26316 42.3235 8.33728C42.3169 8.34164 42.3082 8.34164 42.3016 8.33728L40.5598 7.33011Z"/>
</mask>
<path d="M40.5598 7.33011L38.8049 8.34383V10.3712L40.5488 11.3784C40.5554 11.3828 40.5598 11.3893 40.5598 11.398V11.7446C40.5598 11.7621 40.5402 11.773 40.5249 11.7643L38.5454 10.6219C38.491 10.5914 38.4583 10.5347 38.4583 10.4715V8.24354C38.4583 8.1825 38.491 8.12364 38.5454 8.09313L40.4726 6.97913C40.5271 6.94861 40.5926 6.94861 40.6448 6.97913L42.6331 8.12364C42.6482 8.13236 42.6482 8.15416 42.6331 8.16287C42.5153 8.23264 42.4564 8.26316 42.3235 8.33728C42.3169 8.34164 42.3082 8.34164 42.3016 8.33728L40.5598 7.33011Z" fill="#FF9211"/>
<path d="M40.5598 7.33011L40.7616 6.98112L40.5599 6.86449L40.3581 6.98103L40.5598 7.33011ZM38.8049 8.34383L38.6032 7.99475L38.4018 8.11114V8.34383H38.8049ZM38.8049 10.3712H38.4018V10.6039L38.6033 10.7203L38.8049 10.3712ZM40.5488 11.3784L40.7713 11.0422L40.7611 11.0354L40.7505 11.0293L40.5488 11.3784ZM40.5249 11.7643L40.3234 12.1134L40.3251 12.1144L40.5249 11.7643ZM38.5454 10.6219L38.747 10.2727L38.7424 10.2702L38.5454 10.6219ZM38.5454 8.09313L38.7424 8.44491L38.7472 8.44214L38.5454 8.09313ZM40.4726 6.97913L40.2756 6.62739L40.2709 6.63011L40.4726 6.97913ZM40.6448 6.97913L40.4415 7.32723L40.4437 7.32851L40.6448 6.97913ZM42.6331 8.12364L42.8345 7.77444L42.8342 7.77425L42.6331 8.12364ZM42.6331 8.16287L42.4319 7.81351L42.4277 7.816L42.6331 8.16287ZM42.3235 8.33728L42.1272 7.98518L42.1138 7.99264L42.101 8.00109L42.3235 8.33728ZM42.3016 8.33728L42.5241 8.00109L42.5139 7.99438L42.5034 7.98829L42.3016 8.33728ZM40.5598 7.33011L40.3581 6.98103L38.6032 7.99475L38.8049 8.34383L39.0065 8.6929L40.7614 7.67918L40.5598 7.33011ZM38.8049 8.34383H38.4018V10.3712H38.8049H39.208V8.34383H38.8049ZM38.8049 10.3712L38.6033 10.7203L40.3472 11.7275L40.5488 11.3784L40.7505 11.0293L39.0065 10.0221L38.8049 10.3712ZM40.5488 11.3784L40.3264 11.7146C40.2864 11.6881 40.2425 11.6479 40.2086 11.5898C40.1737 11.5301 40.1566 11.4635 40.1566 11.398H40.5598H40.9629C40.9629 11.2332 40.8721 11.1089 40.7713 11.0422L40.5488 11.3784ZM40.5598 11.398H40.1566V11.7446H40.5598H40.9629V11.398H40.5598ZM40.5598 11.7446H40.1566C40.1566 11.4361 40.4857 11.2778 40.7247 11.4141L40.5249 11.7643L40.3251 12.1144C40.5946 12.2682 40.9629 12.0881 40.9629 11.7446H40.5598ZM40.5249 11.7643L40.7264 11.4151L38.7469 10.2728L38.5454 10.6219L38.3439 10.9711L40.3234 12.1134L40.5249 11.7643ZM38.5454 10.6219L38.7424 10.2702C38.8184 10.3127 38.8614 10.3925 38.8614 10.4715H38.4583H38.0552C38.0552 10.677 38.1635 10.8701 38.3485 10.9737L38.5454 10.6219ZM38.4583 10.4715H38.8614V8.24354H38.4583H38.0552V10.4715H38.4583ZM38.4583 8.24354H38.8614C38.8614 8.32192 38.8208 8.40097 38.7424 8.44488L38.5454 8.09313L38.3485 7.74137C38.1611 7.8463 38.0552 8.04309 38.0552 8.24354H38.4583ZM38.5454 8.09313L38.7472 8.44214L40.6744 7.32815L40.4726 6.97913L40.2709 6.63011L38.3437 7.74411L38.5454 8.09313ZM40.4726 6.97913L40.6697 7.33084C40.6044 7.36739 40.5174 7.37158 40.4415 7.32722L40.6448 6.97913L40.8482 6.63104C40.6677 6.52564 40.4499 6.52982 40.2756 6.62742L40.4726 6.97913ZM40.6448 6.97913L40.4437 7.32851L42.432 8.47302L42.6331 8.12364L42.8342 7.77425L40.8459 6.62975L40.6448 6.97913ZM42.6331 8.12364L42.4316 8.47283C42.1781 8.32655 42.1775 7.96002 42.4319 7.81354L42.6331 8.16287L42.8343 8.51221C43.1189 8.34831 43.1184 7.93817 42.8345 7.77444L42.6331 8.12364ZM42.6331 8.16287L42.4277 7.816C42.3159 7.88221 42.2672 7.90712 42.1272 7.98518L42.3235 8.33728L42.5198 8.68939C42.6457 8.6192 42.7147 8.58307 42.8385 8.50975L42.6331 8.16287ZM42.3235 8.33728L42.101 8.00109C42.2293 7.9162 42.3958 7.9162 42.5241 8.00109L42.3016 8.33728L42.0792 8.67348C42.2206 8.76709 42.4045 8.76709 42.5459 8.67348L42.3235 8.33728ZM42.3016 8.33728L42.5034 7.98829L40.7616 6.98112L40.5598 7.33011L40.358 7.6791L42.0998 8.68628L42.3016 8.33728Z" fill="#FF9211" mask="url(#path-8-inside-1_7122_11624)"/>
<path d="M42.4393 10.6293L41.0526 11.436V9.50726L42.4393 8.76898V10.6293Z" fill="#FF9211" stroke="#FF9211" stroke-width="0.403133"/>
</g>
</g>
<rect x="33.6445" y="16.9182" width="1.20425" height="4.58763" rx="0.602127" fill="#FF9211" stroke="#FF9211" stroke-width="0.0573454"/>
<rect x="33.6445" y="26.2653" width="1.20425" height="4.58763" rx="0.602127" fill="#FF9211" stroke="#FF9211" stroke-width="0.0573454"/>
<rect x="16.9019" y="12.2729" width="1.20425" height="23.2249" rx="0.602127" fill="#FF9211" stroke="#FF9211" stroke-width="0.0573454"/>
<rect x="16.9019" y="36.1862" width="1.20425" height="4.58763" rx="0.602127" fill="#FF9211" stroke="#FF9211" stroke-width="0.0573454"/>
<rect x="16.9019" y="7.22673" width="1.20425" height="4.58763" rx="0.602127" fill="#FF9211" stroke="#FF9211" stroke-width="0.0573454"/>
<rect x="19.0244" y="12.2729" width="1.20425" height="23.2249" rx="0.602127" fill="#FF9211" stroke="#FF9211" stroke-width="0.0573454"/>
<rect x="19.0244" y="36.1862" width="1.20425" height="4.58763" rx="0.602127" fill="#FF9211" stroke="#FF9211" stroke-width="0.0573454"/>
<rect x="19.0244" y="7.22673" width="1.20425" height="4.58763" rx="0.602127" fill="#FF9211" stroke="#FF9211" stroke-width="0.0573454"/>
<rect x="21.095" y="12.2732" width="1.20425" height="4.58763" rx="0.602127" fill="#FF9211" stroke="#FF9211" stroke-width="0.0573454"/>
<rect x="21.095" y="21.5632" width="1.20425" height="4.58763" rx="0.602127" fill="#FF9211" stroke="#FF9211" stroke-width="0.0573454"/>
<rect x="21.095" y="30.9107" width="1.20425" height="4.58763" rx="0.602127" fill="#FF9211" stroke="#FF9211" stroke-width="0.0573454"/>
<rect x="27.4175" y="12.2718" width="1.20395" height="4.62745" rx="0.601973" fill="#FF9211" stroke="#FF9211" stroke-width="0.0573454"/>
<rect x="27.4175" y="21.5518" width="1.20395" height="4.62745" rx="0.601973" fill="#FF9211" stroke="#FF9211" stroke-width="0.0573454"/>
<rect x="27.4175" y="30.9209" width="1.20395" height="4.53736" rx="0.601973" fill="#FF9211" stroke="#FF9211" stroke-width="0.0573454"/>
<rect x="14.8313" y="12.2732" width="1.20425" height="4.58763" rx="0.602127" fill="#FF9211" stroke="#FF9211" stroke-width="0.0573454"/>
<rect x="14.8313" y="30.9107" width="1.20425" height="4.58763" rx="0.602127" fill="#FF9211" stroke="#FF9211" stroke-width="0.0573454"/>
<rect x="12.7428" y="12.2732" width="1.20425" height="4.58763" rx="0.602127" fill="#FF9211" stroke="#FF9211" stroke-width="0.0573454"/>
<rect x="12.7428" y="30.9107" width="1.20425" height="4.58763" rx="0.602127" fill="#FF9211" stroke="#FF9211" stroke-width="0.0573454"/>
<rect x="23.1849" y="21.5629" width="1.20425" height="4.58763" rx="0.602127" fill="#FF9211" stroke="#FF9211" stroke-width="0.0573454"/>
<rect x="23.2105" y="36.1862" width="1.20425" height="4.58763" rx="0.602127" fill="#FF9211" stroke="#FF9211" stroke-width="0.0573454"/>
<rect x="23.2121" y="7.2267" width="1.20425" height="4.58763" rx="0.602127" fill="#FF9211" stroke="#FF9211" stroke-width="0.0573454"/>
<rect x="23.2121" y="30.9108" width="1.20425" height="4.58763" rx="0.602127" fill="#FF9211" stroke="#FF9211" stroke-width="0.0573454"/>
<rect x="23.2121" y="12.2729" width="1.20425" height="4.58763" rx="0.602127" fill="#FF9211" stroke="#FF9211" stroke-width="0.0573454"/>
<rect x="25.2977" y="21.5629" width="1.20425" height="4.58763" rx="0.602127" fill="#FF9211" stroke="#FF9211" stroke-width="0.0573454"/>
<rect x="25.2753" y="36.1862" width="1.20425" height="4.58763" rx="0.602127" fill="#FF9211" stroke="#FF9211" stroke-width="0.0573454"/>
<rect x="25.2753" y="7.22673" width="1.20425" height="4.58763" rx="0.602127" fill="#FF9211" stroke="#FF9211" stroke-width="0.0573454"/>
<rect x="25.2753" y="30.9108" width="1.20425" height="4.58763" rx="0.602127" fill="#FF9211" stroke="#FF9211" stroke-width="0.0573454"/>
<rect x="25.2753" y="12.2729" width="1.20425" height="4.58763" rx="0.602127" fill="#FF9211" stroke="#FF9211" stroke-width="0.0573454"/>
<rect x="29.5175" y="12.2731" width="1.20425" height="23.2249" rx="0.602127" fill="#FF9211" stroke="#FF9211" stroke-width="0.0573454"/>
<rect x="31.5817" y="14.682" width="1.20425" height="18.5799" rx="0.602127" fill="#FF9211" stroke="#FF9211" stroke-width="0.0573454"/>
</svg>
