<svg width="32" height="32" viewBox="0 0 32 32" fill="none" xmlns="http://www.w3.org/2000/svg">
<path d="M31.5211 19.8706C29.3839 28.442 20.7014 33.6585 12.128 31.521C3.55811 29.384 -1.65895 20.7021 0.479281 12.1312C2.61551 3.55876 11.2979 -1.65819 19.8688 0.478793C28.4418 2.61577 33.6583 11.2987 31.5211 19.8706Z" fill="url(#paint0_linear_11083_574)"/>
<path fill-rule="evenodd" clip-rule="evenodd" d="M18.6953 7.35228C18.8383 6.81874 19.3867 6.50211 19.9202 6.64507C20.4538 6.78803 20.7704 7.33645 20.6274 7.86999L20.2038 9.45105L20.4665 9.52144C22.3582 10.0283 23.4808 11.9727 22.9739 13.8643L22.9504 13.9522C22.5552 15.4271 21.263 16.4222 19.8181 16.5078L19.8177 16.5091L19.7947 16.5092L19.793 16.5092L19.7859 16.5096C19.6807 16.5182 19.6611 16.6696 19.766 16.7023L19.7658 16.7028C21.5864 17.4238 22.6172 19.4111 22.0981 21.3483C21.5393 23.434 19.3955 24.6717 17.3098 24.1129L16.6958 23.9483L16.2723 25.529C16.1293 26.0625 15.5809 26.3791 15.0474 26.2362C14.5138 26.0932 14.1972 25.5448 14.3402 25.0112L14.7637 23.4306L13.007 22.9599L12.5835 24.5405C12.4406 25.074 11.8922 25.3906 11.3586 25.2477C10.8251 25.1047 10.5085 24.5563 10.6514 24.0227L11.0749 22.4422L9.31781 21.9714L9.31783 21.9713L8.35209 21.7126C7.77005 21.5566 7.42464 20.9583 7.58059 20.3763C7.73655 19.7942 8.33482 19.4488 8.91687 19.6048L9.88261 19.8636L12.6124 9.67582L11.7351 9.44075C11.1531 9.28479 10.8076 8.68652 10.9636 8.10448C11.1196 7.52243 11.7178 7.17702 12.2999 7.33298L13.1781 7.5683L13.1781 7.56851L14.5829 7.94494L15.0066 6.36393C15.1495 5.83039 15.6979 5.51376 16.2315 5.65672C16.765 5.79969 17.0817 6.3481 16.9387 6.88164L16.5151 8.46265L18.2717 8.93333L18.6953 7.35228ZM13.9518 14.1035C13.7681 13.4176 14.1751 12.7127 14.8609 12.5289L18.4583 11.565C19.1442 11.3812 19.8491 11.7882 20.0329 12.474C20.2166 13.1599 19.8096 13.8648 19.1238 14.0486L15.5264 15.0125C14.8405 15.1963 14.1356 14.7893 13.9518 14.1035ZM12.3067 19.9207C12.123 19.2349 12.53 18.5299 13.2158 18.3462L16.8132 17.3822C17.4991 17.1985 18.204 17.6055 18.3878 18.2913C18.5715 18.9771 18.1645 19.6821 17.4787 19.8658L13.8813 20.8298C13.1954 21.0135 12.4905 20.6065 12.3067 19.9207Z" fill="white"/>
<g clip-path="url(#clip0_11083_574)">
<g clip-path="url(#clip1_11083_574)">
<path d="M24.8 14.4C28.7765 14.4 32 11.1764 32 7.2C32 3.22355 28.7765 0 24.8 0C20.8236 0 17.6 3.22355 17.6 7.2C17.6 11.1764 20.8236 14.4 24.8 14.4Z" fill="url(#paint1_linear_11083_574)"/>
<path d="M24.8 0L25.2079 2.4764C25.5727 4.6913 27.3087 6.42727 29.5236 6.7921L32 7.2L29.5236 7.6079C27.3087 7.97273 25.5727 9.7087 25.2079 11.9236L24.8 14.4L24.3921 11.9236C24.0273 9.7087 22.2913 7.97273 20.0764 7.6079L17.6 7.2L20.0764 6.7921C22.2913 6.42727 24.0273 4.69129 24.3921 2.4764L24.8 0Z" fill="white"/>
</g>
</g>
<defs>
<linearGradient id="paint0_linear_11083_574" x1="16" y1="0" x2="16" y2="32" gradientUnits="userSpaceOnUse">
<stop stop-color="#FEDF70"/>
<stop offset="1" stop-color="#D88528"/>
</linearGradient>
<linearGradient id="paint1_linear_11083_574" x1="27.52" y1="13.76" x2="22.08" y2="0.640001" gradientUnits="userSpaceOnUse">
<stop stop-color="#202020"/>
<stop offset="1" stop-color="#8F4AFF"/>
</linearGradient>
<clipPath id="clip0_11083_574">
<rect width="14.4" height="14.4" fill="white" transform="translate(17.6)"/>
</clipPath>
<clipPath id="clip1_11083_574">
<rect width="14.4" height="14.4" fill="white" transform="translate(17.6)"/>
</clipPath>
</defs>
</svg>
