<svg width="33" height="32" viewBox="0 0 33 32" fill="none" xmlns="http://www.w3.org/2000/svg">
<circle cx="15.4358" cy="15.9103" r="14.8352" fill="black" stroke="#41CFCC" stroke-width="1.20123"/>
<circle cx="26.9609" cy="6.23441" r="4.62152" fill="black" stroke="#41CFCC" stroke-width="0.835292"/>
<path d="M24.5885 7.81931C24.8329 8.15975 25.1464 8.44461 25.5084 8.65521C25.8705 8.8658 26.2729 8.99738 26.6893 9.04132C26.475 8.71849 26.1637 8.42149 25.7749 8.19537C25.3862 7.96924 24.9745 7.84572 24.5885 7.81931Z" fill="url(#paint0_linear_7122_11782)"/>
<path d="M26.2989 7.29539C25.5499 6.85964 24.7393 6.74859 24.1593 6.94477C24.2153 7.1301 24.2891 7.30955 24.3798 7.48058C24.8837 7.46888 25.434 7.60595 25.9459 7.90375C26.4579 8.20154 26.8495 8.61254 27.0891 9.05684C27.2825 9.0509 27.4748 9.02622 27.6635 8.98319C27.5462 8.38152 27.0477 7.73123 26.2989 7.29539Z" fill="url(#paint1_linear_7122_11782)"/>
<path d="M29.8694 5.52701C29.7742 5.13913 29.6019 4.77444 29.3628 4.45472C29.1237 4.13501 28.8228 3.86681 28.4779 3.66616C28.133 3.46551 27.7513 3.33651 27.3556 3.28687C26.9598 3.23723 26.5581 3.26797 26.1745 3.37724C26.8154 3.45579 27.5268 3.69673 28.2245 4.10263C28.9221 4.50853 29.484 5.008 29.8694 5.52701Z" fill="url(#paint2_linear_7122_11782)"/>
<path d="M28.9357 6.94911C28.6077 6.40351 28.0457 5.88106 27.3534 5.47831C26.6611 5.07555 25.9297 4.8455 25.2945 4.83028C24.7357 4.81702 24.3162 4.97972 24.1441 5.27654C24.1431 5.2783 24.1417 5.27996 24.1407 5.28174C24.1252 5.33741 24.1118 5.39317 24.0997 5.44915C24.3401 5.3541 24.6186 5.30118 24.9283 5.29528C25.6171 5.28233 26.3879 5.50295 27.0992 5.91679C27.8105 6.33066 28.3841 6.89218 28.714 7.49758C28.8618 7.77034 28.9541 8.03888 28.9906 8.29543C29.0332 8.25734 29.0749 8.21796 29.1154 8.17703C29.1165 8.17516 29.1172 8.17319 29.1183 8.17124C29.2905 7.87413 29.2239 7.42875 28.9357 6.94911Z" fill="url(#paint3_linear_7122_11782)"/>
<path d="M26.8254 6.38608C25.7653 5.76929 24.5937 5.67267 24.0304 6.10311C24.0315 6.23784 24.0418 6.37234 24.0612 6.50568C24.2269 6.45537 24.3977 6.42368 24.5704 6.41123C25.1999 6.36379 25.894 6.53946 26.5238 6.90607C27.1536 7.2727 27.6501 7.78975 27.9209 8.36049C27.9958 8.51685 28.0529 8.68113 28.0911 8.85024C28.2164 8.80105 28.3383 8.74341 28.4558 8.67772C28.5501 7.97432 27.8858 7.00298 26.8254 6.38608Z" fill="url(#paint4_linear_7122_11782)"/>
<path d="M29.4817 6.03542C29.15 5.49039 28.5831 4.96647 27.8859 4.56107C27.1887 4.15566 26.4545 3.92198 25.8172 3.90322C25.3314 3.88918 24.9551 4.0071 24.76 4.22989C25.5701 4.09243 26.6387 4.32346 27.6744 4.92602C28.7102 5.52859 29.4402 6.34391 29.722 7.11673C29.8185 6.8368 29.7345 6.45104 29.4817 6.03542Z" fill="url(#paint5_linear_7122_11782)"/>
<rect x="22.4106" y="11.2597" width="0.841067" height="3.09666" rx="0.420533" fill="#41CFCC"/>
<rect x="22.4106" y="17.4911" width="0.841067" height="3.09666" rx="0.420533" fill="#41CFCC"/>
<rect x="11.2488" y="8.16281" width="0.841067" height="15.5215" rx="0.420533" fill="#41CFCC"/>
<rect x="11.2488" y="24.105" width="0.841067" height="3.09666" rx="0.420533" fill="#41CFCC"/>
<rect x="11.2488" y="4.79871" width="0.841067" height="3.09666" rx="0.420533" fill="#41CFCC"/>
<rect x="12.6627" y="8.16281" width="0.841067" height="15.5215" rx="0.420533" fill="#41CFCC"/>
<rect x="12.6627" y="24.105" width="0.841067" height="3.09666" rx="0.420533" fill="#41CFCC"/>
<rect x="12.6627" y="4.79871" width="0.841067" height="3.09666" rx="0.420533" fill="#41CFCC"/>
<rect x="14.0443" y="8.16299" width="0.841067" height="3.09666" rx="0.420533" fill="#41CFCC"/>
<rect x="14.0443" y="14.3564" width="0.841067" height="3.09666" rx="0.420533" fill="#41CFCC"/>
<rect x="14.0443" y="20.588" width="0.841067" height="3.09666" rx="0.420533" fill="#41CFCC"/>
<rect x="18.2593" y="8.16208" width="0.840862" height="3.1232" rx="0.420431" fill="#41CFCC"/>
<rect x="18.2593" y="14.3488" width="0.840862" height="3.1232" rx="0.420431" fill="#41CFCC"/>
<rect x="18.2593" y="20.5948" width="0.840862" height="3.06314" rx="0.420431" fill="#41CFCC"/>
<rect x="9.86847" y="8.16299" width="0.841067" height="3.09666" rx="0.420533" fill="#41CFCC"/>
<rect x="9.86847" y="20.588" width="0.841067" height="3.09666" rx="0.420533" fill="#41CFCC"/>
<rect x="8.47607" y="8.16299" width="0.841067" height="3.09666" rx="0.420533" fill="#41CFCC"/>
<rect x="8.47607" y="20.588" width="0.841067" height="3.09666" rx="0.420533" fill="#41CFCC"/>
<rect x="15.4376" y="14.3561" width="0.841067" height="3.09666" rx="0.420533" fill="#41CFCC"/>
<rect x="15.4545" y="24.105" width="0.841067" height="3.09666" rx="0.420533" fill="#41CFCC"/>
<rect x="15.4556" y="4.79868" width="0.841067" height="3.09666" rx="0.420533" fill="#41CFCC"/>
<rect x="15.4556" y="20.588" width="0.841067" height="3.09666" rx="0.420533" fill="#41CFCC"/>
<rect x="15.4556" y="8.16281" width="0.841067" height="3.09666" rx="0.420533" fill="#41CFCC"/>
<rect x="16.8448" y="14.3561" width="0.841067" height="3.09666" rx="0.420533" fill="#41CFCC"/>
<rect x="16.8299" y="24.105" width="0.841067" height="3.09666" rx="0.420533" fill="#41CFCC"/>
<rect x="16.8299" y="4.79871" width="0.841067" height="3.09666" rx="0.420533" fill="#41CFCC"/>
<rect x="16.8299" y="20.588" width="0.841067" height="3.09666" rx="0.420533" fill="#41CFCC"/>
<rect x="16.8299" y="8.16281" width="0.841067" height="3.09666" rx="0.420533" fill="#41CFCC"/>
<rect x="19.6592" y="8.16293" width="0.841067" height="15.5215" rx="0.420533" fill="#41CFCC"/>
<rect x="21.0353" y="9.76883" width="0.841067" height="12.4249" rx="0.420533" fill="#41CFCC"/>
<defs>
<linearGradient id="paint0_linear_7122_11782" x1="27.9165" y1="4.43987" x2="25.2291" y2="9.05304" gradientUnits="userSpaceOnUse">
<stop offset="0.0001" stop-color="#C7F284"/>
<stop offset="1" stop-color="#00BEF0"/>
</linearGradient>
<linearGradient id="paint1_linear_7122_11782" x1="27.9181" y1="4.44027" x2="25.2307" y2="9.05344" gradientUnits="userSpaceOnUse">
<stop offset="0.0001" stop-color="#C7F284"/>
<stop offset="1" stop-color="#00BEF0"/>
</linearGradient>
<linearGradient id="paint2_linear_7122_11782" x1="27.9197" y1="4.4406" x2="25.2323" y2="9.05377" gradientUnits="userSpaceOnUse">
<stop offset="0.0001" stop-color="#C7F284"/>
<stop offset="1" stop-color="#00BEF0"/>
</linearGradient>
<linearGradient id="paint3_linear_7122_11782" x1="27.9185" y1="4.44018" x2="25.2311" y2="9.05335" gradientUnits="userSpaceOnUse">
<stop offset="0.0001" stop-color="#C7F284"/>
<stop offset="1" stop-color="#00BEF0"/>
</linearGradient>
<linearGradient id="paint4_linear_7122_11782" x1="27.9171" y1="4.44015" x2="25.2298" y2="9.05332" gradientUnits="userSpaceOnUse">
<stop offset="0.0001" stop-color="#C7F284"/>
<stop offset="1" stop-color="#00BEF0"/>
</linearGradient>
<linearGradient id="paint5_linear_7122_11782" x1="27.9192" y1="4.4397" x2="25.2318" y2="9.05287" gradientUnits="userSpaceOnUse">
<stop offset="0.0001" stop-color="#C7F284"/>
<stop offset="1" stop-color="#00BEF0"/>
</linearGradient>
</defs>
</svg>
