<svg width="32" height="32" viewBox="0 0 32 32" fill="none" xmlns="http://www.w3.org/2000/svg">
<circle cx="15.4359" cy="16.1026" r="14.8353" fill="black" stroke="white" stroke-width="1.20124"/>
<circle cx="26.9608" cy="6.4267" r="4.62154" stroke="white" stroke-width="0.835297"/>
<g clip-path="url(#clip0_8209_3736)">
<path d="M26.9333 10.6667C29.3266 10.6667 31.2667 8.72657 31.2667 6.33333C31.2667 3.9401 29.3266 2 26.9333 2C24.5401 2 22.6 3.9401 22.6 6.33333C22.6 8.72657 24.5401 10.6667 26.9333 10.6667Z" fill="white"/>
<path d="M30.0447 3.62561L29.0007 4.15749L23.9596 6.72519C23.9426 6.59517 23.934 6.46419 23.9339 6.33306C23.9346 5.80987 24.072 5.29594 24.3324 4.84217C24.5928 4.38841 24.9673 4.01055 25.4187 3.74603C25.8701 3.48151 26.3827 3.3395 26.9059 3.33408C27.4291 3.32866 27.9446 3.46001 28.4013 3.71512L28.9989 3.41066L29.088 3.36518C28.5406 2.96788 27.8941 2.72966 27.2198 2.67685C26.5455 2.62404 25.8697 2.7587 25.2671 3.06594C24.6646 3.37318 24.1587 3.84104 23.8054 4.4178C23.4521 4.99457 23.2652 5.65779 23.2652 6.33416C23.2652 6.42758 23.2688 6.52063 23.2759 6.61331C23.2858 6.74456 23.2567 6.87581 23.1922 6.99056C23.1277 7.1053 23.0307 7.19841 22.9135 7.25817L22.5984 7.41883V8.16823L23.526 7.69541L23.8264 7.54208L24.1225 7.39132L29.4369 4.6835L30.034 4.37941L31.2684 3.75033V3.0013L30.0447 3.62561Z" fill="black"/>
<path d="M31.2684 4.50012L24.4244 7.98485L23.8272 8.28967L22.5984 8.91582V9.66449L23.8187 9.04274L24.8627 8.51086L29.9089 5.9395C29.926 6.07037 29.9346 6.20221 29.9346 6.33419C29.9343 6.85798 29.797 7.37258 29.5363 7.8269C29.2756 8.28122 28.9006 8.65946 28.4486 8.92407C27.9966 9.18867 27.4832 9.33044 26.9594 9.3353C26.4356 9.34016 25.9197 9.20794 25.4628 8.95177L25.4261 8.97121L24.7783 9.30134C25.3256 9.69865 25.972 9.93694 26.6462 9.98988C27.3204 10.0428 27.9961 9.90834 28.5987 9.60131C29.2013 9.29428 29.7072 8.82664 30.0607 8.25008C30.4141 7.67351 30.6013 7.01046 30.6015 6.33419C30.6015 6.23992 30.5978 6.14565 30.5909 6.05248C30.5809 5.92127 30.61 5.79007 30.6744 5.67534C30.7388 5.5606 30.8357 5.46747 30.9529 5.40762L31.2684 5.24695V4.50012Z" fill="black"/>
</g>
<rect x="22.4309" y="11.4711" width="0.80284" height="3.05844" rx="0.40142" fill="white" stroke="#8F4AFF" stroke-width="0.0382305"/>
<rect x="22.4309" y="17.7025" width="0.80284" height="3.05844" rx="0.40142" fill="white" stroke="#8F4AFF" stroke-width="0.0382305"/>
<rect x="11.2691" y="8.37391" width="0.80284" height="15.4834" rx="0.40142" fill="white" stroke="#8F4AFF" stroke-width="0.0382305"/>
<rect x="11.2691" y="24.3162" width="0.80284" height="3.05844" rx="0.40142" fill="white" stroke="#8F4AFF" stroke-width="0.0382305"/>
<rect x="11.2691" y="5.00978" width="0.80284" height="3.05844" rx="0.40142" fill="white" stroke="#8F4AFF" stroke-width="0.0382305"/>
<rect x="12.6828" y="8.37391" width="0.80284" height="15.4834" rx="0.40142" fill="white" stroke="#8F4AFF" stroke-width="0.0382305"/>
<rect x="12.6828" y="24.3162" width="0.80284" height="3.05844" rx="0.40142" fill="white" stroke="#8F4AFF" stroke-width="0.0382305"/>
<rect x="12.6828" y="5.00978" width="0.80284" height="3.05844" rx="0.40142" fill="white" stroke="#8F4AFF" stroke-width="0.0382305"/>
<rect x="14.0633" y="8.37385" width="0.80284" height="3.05844" rx="0.40142" fill="white" stroke="#8F4AFF" stroke-width="0.0382305"/>
<rect x="14.0633" y="14.5672" width="0.80284" height="3.05844" rx="0.40142" fill="white" stroke="#8F4AFF" stroke-width="0.0382305"/>
<rect x="14.0633" y="20.7989" width="0.80284" height="3.05844" rx="0.40142" fill="white" stroke="#8F4AFF" stroke-width="0.0382305"/>
<rect x="18.2792" y="8.37318" width="0.802636" height="3.08499" rx="0.401318" fill="white" stroke="#8F4AFF" stroke-width="0.0382305"/>
<rect x="18.2792" y="14.5598" width="0.802636" height="3.08499" rx="0.401318" fill="white" stroke="#8F4AFF" stroke-width="0.0382305"/>
<rect x="18.2792" y="20.8059" width="0.802636" height="3.02492" rx="0.401318" fill="white" stroke="#8F4AFF" stroke-width="0.0382305"/>
<rect x="9.88865" y="8.37385" width="0.80284" height="3.05844" rx="0.40142" fill="white" stroke="#8F4AFF" stroke-width="0.0382305"/>
<rect x="9.88865" y="20.7989" width="0.80284" height="3.05844" rx="0.40142" fill="white" stroke="#8F4AFF" stroke-width="0.0382305"/>
<rect x="8.49504" y="8.37385" width="0.80284" height="3.05844" rx="0.40142" fill="white" stroke="#8F4AFF" stroke-width="0.0382305"/>
<rect x="8.49504" y="20.7989" width="0.80284" height="3.05844" rx="0.40142" fill="white" stroke="#8F4AFF" stroke-width="0.0382305"/>
<rect x="15.4577" y="14.5673" width="0.80284" height="3.05844" rx="0.40142" fill="white" stroke="#8F4AFF" stroke-width="0.0382305"/>
<rect x="15.4748" y="24.3162" width="0.80284" height="3.05844" rx="0.40142" fill="white" stroke="#8F4AFF" stroke-width="0.0382305"/>
<rect x="15.4759" y="5.00978" width="0.80284" height="3.05844" rx="0.40142" fill="white" stroke="#8F4AFF" stroke-width="0.0382305"/>
<rect x="15.4759" y="20.7992" width="0.80284" height="3.05844" rx="0.40142" fill="white" stroke="#8F4AFF" stroke-width="0.0382305"/>
<rect x="15.4759" y="8.37391" width="0.80284" height="3.05844" rx="0.40142" fill="white" stroke="#8F4AFF" stroke-width="0.0382305"/>
<rect x="16.865" y="14.5673" width="0.80284" height="3.05844" rx="0.40142" fill="white" stroke="#8F4AFF" stroke-width="0.0382305"/>
<rect x="16.8501" y="24.3162" width="0.80284" height="3.05844" rx="0.40142" fill="white" stroke="#8F4AFF" stroke-width="0.0382305"/>
<rect x="16.8501" y="5.00978" width="0.80284" height="3.05844" rx="0.40142" fill="white" stroke="#8F4AFF" stroke-width="0.0382305"/>
<rect x="16.8501" y="20.7992" width="0.80284" height="3.05844" rx="0.40142" fill="white" stroke="#8F4AFF" stroke-width="0.0382305"/>
<rect x="16.8501" y="8.37391" width="0.80284" height="3.05844" rx="0.40142" fill="white" stroke="#8F4AFF" stroke-width="0.0382305"/>
<rect x="19.6795" y="8.37422" width="0.80284" height="15.4834" rx="0.40142" fill="white" stroke="#8F4AFF" stroke-width="0.0382305"/>
<rect x="21.0556" y="9.97987" width="0.80284" height="12.3867" rx="0.40142" fill="white" stroke="#8F4AFF" stroke-width="0.0382305"/>
<defs>
<clipPath id="clip0_8209_3736">
<rect width="8.66667" height="8.66667" fill="white" transform="translate(22.6 2)"/>
</clipPath>
</defs>
</svg>
