<svg width="129" height="40" viewBox="0 0 129 40" fill="none" xmlns="http://www.w3.org/2000/svg">
<path d="M17.9605 4.92892L7.34627 15.5674C6.51348 16.4032 6.51348 17.7568 7.34627 18.5927C8.17905 19.4285 9.52968 19.4285 10.3655 18.5927L20.9797 7.95421C21.8125 7.11839 21.8125 5.76474 20.9797 4.92892C20.1469 4.09311 18.7963 4.09311 17.9605 4.92892Z" fill="#7667EB"/>
<path d="M26.7999 13.7896L16.1857 24.4281C15.3529 25.2639 15.3529 26.6176 16.1857 27.4534C17.0185 28.2892 18.3691 28.2892 19.2049 27.4534L29.8192 16.8149C30.652 15.9791 30.652 14.6255 29.8192 13.7896C28.9864 12.9538 27.6358 12.9538 26.7999 13.7896Z" fill="#7667EB"/>
<path d="M19.1959 12.5512L8.58165 23.1897C7.74887 24.0255 7.74887 25.3792 8.58165 26.215C9.41444 27.0508 10.7651 27.0508 11.6009 26.215L22.2151 15.5765C23.0479 14.7407 23.0479 13.3871 22.2151 12.5512C21.3823 11.7154 20.0317 11.7154 19.1959 12.5512Z" fill="#7667EB"/>
<path d="M28.0354 21.4121L17.4212 32.0505C16.5884 32.8863 16.5884 34.24 17.4212 35.0758C18.254 35.9116 19.6046 35.9116 20.4404 35.0758L31.0546 24.4374C31.8874 23.6015 31.8874 22.2479 31.0546 21.4121C30.2218 20.5763 28.8712 20.5763 28.0354 21.4121Z" fill="#7667EB"/>
<path d="M45.5365 28.3989C46.2816 30.8612 47.905 32.3544 51.1063 32.3544C53.7382 32.3544 55.622 31.1671 55.622 29.1016C55.622 27.036 53.4293 26.3757 50.1825 25.5853L48.5592 25.1461C44.743 24.2223 41.893 22.5081 41.893 18.5103C41.893 14.5124 45.5759 11.7411 50.7095 11.7411C55.8431 11.7411 59.1293 13.94 59.6562 18.4648H55.4464C54.7892 16.3993 53.2536 15.2574 50.5793 15.2574C47.7717 15.2574 46.4118 16.3993 46.4118 18.1135C46.4118 20.0034 47.7717 20.5304 50.5793 21.3663L53.0356 22.069C57.6391 23.3864 60.053 24.7948 60.053 28.6624C60.053 33.1024 56.2369 35.9585 50.973 35.9585C45.3578 35.9585 42.0687 33.5416 41.148 28.3989H45.5335H45.5365Z" fill="#7667EB"/>
<path d="M85.7085 23.9586C85.7085 30.9912 81.3654 36.0006 73.9996 36.0006C66.6339 36.0006 62.421 30.9912 62.421 23.9586C62.421 16.926 66.8943 11.7409 74.0874 11.7409C81.2806 11.7409 85.7085 16.7958 85.7085 23.9586ZM67.1124 23.9162C67.1124 29.0589 69.5686 32.3117 73.9542 32.3117C78.3397 32.3117 80.8384 29.0589 80.8384 23.9162C80.8384 18.7735 78.2943 15.4329 73.9542 15.4329C69.6141 15.4329 67.1124 18.9916 67.1124 23.9162Z" fill="#7667EB"/>
<path d="M89.7432 4.00415H94.1742V35.4298H89.7432V4.00415Z" fill="#7667EB"/>
<path d="M105.712 35.4323L97.117 12.3568H102.16L105.755 22.8602L108.299 30.6409H108.387C109.441 27.4335 110.186 25.7617 111.237 22.3787L114.614 12.3568H119.393L110.534 35.4323H105.709H105.712Z" fill="#7667EB"/>
</svg>
