<svg width="129" height="39" viewBox="0 0 129 39" fill="none" xmlns="http://www.w3.org/2000/svg">
<path d="M17.9605 4.52795L7.34627 15.1664C6.51348 16.0022 6.51348 17.3559 7.34627 18.1917C8.17905 19.0275 9.52968 19.0275 10.3655 18.1917L20.9797 7.55324C21.8125 6.71742 21.8125 5.36377 20.9797 4.52795C20.1469 3.69214 18.7963 3.69214 17.9605 4.52795Z" fill="black"/>
<path d="M26.7999 13.3887L16.1857 24.0271C15.3529 24.863 15.3529 26.2166 16.1857 27.0524C17.0185 27.8882 18.3691 27.8882 19.2049 27.0524L29.8192 16.414C30.652 15.5782 30.652 14.2245 29.8192 13.3887C28.9864 12.5529 27.6358 12.5529 26.7999 13.3887Z" fill="black"/>
<path d="M19.1959 12.1503L8.58165 22.7887C7.74887 23.6245 7.74887 24.9782 8.58165 25.814C9.41444 26.6498 10.7651 26.6498 11.6009 25.814L22.2151 15.1755C23.0479 14.3397 23.0479 12.9861 22.2151 12.1503C21.3823 11.3145 20.0317 11.3145 19.1959 12.1503Z" fill="black"/>
<path d="M28.0354 21.0111L17.4212 31.6496C16.5884 32.4854 16.5884 33.8391 17.4212 34.6749C18.254 35.5107 19.6046 35.5107 20.4404 34.6749L31.0546 24.0364C31.8874 23.2006 31.8874 21.847 31.0546 21.0111C30.2218 20.1753 28.8712 20.1753 28.0354 21.0111Z" fill="black"/>
<path d="M45.5365 27.998C46.2816 30.4603 47.905 31.9534 51.1063 31.9534C53.7382 31.9534 55.622 30.7662 55.622 28.7006C55.622 26.635 53.4293 25.9748 50.1825 25.1843L48.5592 24.7452C44.743 23.8214 41.893 22.1072 41.893 18.1093C41.893 14.1115 45.5759 11.3402 50.7095 11.3402C55.8431 11.3402 59.1293 13.539 59.6562 18.0639H55.4464C54.7892 15.9983 53.2536 14.8565 50.5793 14.8565C47.7717 14.8565 46.4118 15.9983 46.4118 17.7126C46.4118 19.6025 47.7717 20.1294 50.5793 20.9654L53.0356 21.668C57.6391 22.9855 60.053 24.3938 60.053 28.2615C60.053 32.7015 56.2369 35.5576 50.973 35.5576C45.3578 35.5576 42.0687 33.1407 41.148 27.998H45.5335H45.5365Z" fill="black"/>
<path d="M85.7085 23.5577C85.7085 30.5903 81.3654 35.5997 73.9996 35.5997C66.6339 35.5997 62.421 30.5903 62.421 23.5577C62.421 16.5251 66.8943 11.34 74.0874 11.34C81.2806 11.34 85.7085 16.3948 85.7085 23.5577ZM67.1124 23.5153C67.1124 28.658 69.5686 31.9108 73.9542 31.9108C78.3397 31.9108 80.8384 28.658 80.8384 23.5153C80.8384 18.3726 78.2943 15.0319 73.9542 15.0319C69.6141 15.0319 67.1124 18.5906 67.1124 23.5153Z" fill="black"/>
<path d="M89.7432 3.60315H94.1742V35.0288H89.7432V3.60315Z" fill="black"/>
<path d="M105.712 35.0313L97.117 11.9557H102.16L105.755 22.4592L108.299 30.2399H108.387C109.441 27.0325 110.186 25.3607 111.237 21.9777L114.614 11.9557H119.393L110.534 35.0313H105.709H105.712Z" fill="black"/>
</svg>
