<svg width="129" height="39" viewBox="0 0 129 39" fill="none" xmlns="http://www.w3.org/2000/svg">
<path d="M17.9605 4.12701L7.34627 14.7655C6.51348 15.6013 6.51348 16.9549 7.34627 17.7907C8.17905 18.6266 9.52968 18.6266 10.3655 17.7907L20.9797 7.1523C21.8125 6.31648 21.8125 4.96283 20.9797 4.12701C20.1469 3.2912 18.7963 3.2912 17.9605 4.12701Z" fill="white"/>
<path d="M26.7999 12.9878L16.1857 23.6262C15.3529 24.462 15.3529 25.8157 16.1857 26.6515C17.0185 27.4873 18.3691 27.4873 19.2049 26.6515L29.8192 16.013C30.652 15.1772 30.652 13.8236 29.8192 12.9878C28.9864 12.1519 27.6358 12.1519 26.7999 12.9878Z" fill="white"/>
<path d="M19.1959 11.7493L8.58165 22.3878C7.74887 23.2236 7.74887 24.5772 8.58165 25.4131C9.41444 26.2489 10.7651 26.2489 11.6009 25.4131L22.2151 14.7746C23.0479 13.9388 23.0479 12.5851 22.2151 11.7493C21.3823 10.9135 20.0317 10.9135 19.1959 11.7493Z" fill="white"/>
<path d="M28.0354 20.6102L17.4212 31.2486C16.5884 32.0845 16.5884 33.4381 17.4212 34.2739C18.254 35.1097 19.6046 35.1097 20.4404 34.2739L31.0546 23.6355C31.8874 22.7997 31.8874 21.446 31.0546 20.6102C30.2218 19.7744 28.8712 19.7744 28.0354 20.6102Z" fill="white"/>
<path d="M45.5365 27.597C46.2816 30.0593 47.905 31.5525 51.1063 31.5525C53.7382 31.5525 55.622 30.3652 55.622 28.2997C55.622 26.2341 53.4293 25.5739 50.1825 24.7834L48.5592 24.3442C44.743 23.4205 41.893 21.7062 41.893 17.7084C41.893 13.7105 45.5759 10.9393 50.7095 10.9393C55.8431 10.9393 59.1293 13.1381 59.6562 17.6629H55.4464C54.7892 15.5974 53.2536 14.4556 50.5793 14.4556C47.7717 14.4556 46.4118 15.5974 46.4118 17.3116C46.4118 19.2015 47.7717 19.7285 50.5793 20.5644L53.0356 21.2671C57.6391 22.5845 60.053 23.9929 60.053 27.8605C60.053 32.3006 56.2369 35.1566 50.973 35.1566C45.3578 35.1566 42.0687 32.7397 41.148 27.597H45.5335H45.5365Z" fill="white"/>
<path d="M85.7085 23.1567C85.7085 30.1893 81.3654 35.1988 73.9996 35.1988C66.6339 35.1988 62.421 30.1893 62.421 23.1567C62.421 16.1241 66.8943 10.939 74.0874 10.939C81.2806 10.939 85.7085 15.9939 85.7085 23.1567ZM67.1124 23.1143C67.1124 28.257 69.5686 31.5098 73.9542 31.5098C78.3397 31.5098 80.8384 28.257 80.8384 23.1143C80.8384 17.9716 78.2943 14.631 73.9542 14.631C69.6141 14.631 67.1124 18.1897 67.1124 23.1143Z" fill="white"/>
<path d="M89.7432 3.20221H94.1742V34.6278H89.7432V3.20221Z" fill="white"/>
<path d="M105.712 34.6303L97.117 11.5548H102.16L105.755 22.0583L108.299 29.839H108.387C109.441 26.6316 110.186 24.9598 111.237 21.5767L114.614 11.5548H119.393L110.534 34.6303H105.709H105.712Z" fill="white"/>
</svg>
