<svg width="32" height="32" viewBox="0 0 32 32" fill="none" xmlns="http://www.w3.org/2000/svg">
<path d="M14.76 0.926543L4.14578 11.565C3.313 12.4008 3.313 13.7545 4.14578 14.5903C4.97857 15.4261 6.32919 15.4261 7.16501 14.5903L17.7792 3.95183C18.612 3.11601 18.612 1.76236 17.7792 0.926543C16.9465 0.0907292 15.5958 0.0907292 14.76 0.926543Z" fill="white"/>
<path d="M23.5995 9.78729L12.9852 20.4257C12.1525 21.2616 12.1525 22.6152 12.9852 23.451C13.818 24.2868 15.1686 24.2868 16.0045 23.451L26.6187 12.8126C27.4515 11.9768 27.4515 10.6231 26.6187 9.78729C25.7859 8.95148 24.4353 8.95148 23.5995 9.78729Z" fill="white"/>
<path d="M15.9954 8.54886L5.38115 19.1873C4.54837 20.0231 4.54837 21.3768 5.38115 22.2126C6.21394 23.0484 7.56456 23.0484 8.40037 22.2126L19.0146 11.5741C19.8474 10.7383 19.8474 9.38467 19.0146 8.54886C18.1818 7.71304 16.8312 7.71304 15.9954 8.54886Z" fill="white"/>
<path d="M24.8349 17.4097L14.2207 28.0482C13.3879 28.884 13.3879 30.2376 14.2207 31.0735C15.0535 31.9093 16.4041 31.9093 17.2399 31.0735L27.8541 20.435C28.6869 19.5992 28.6869 18.2455 27.8541 17.4097C27.0214 16.5739 25.6707 16.5739 24.8349 17.4097Z" fill="white"/>
</svg>
