<svg width="76" height="76" viewBox="0 0 76 76" fill="none" xmlns="http://www.w3.org/2000/svg">
<path d="M35.2194 4.18719L11.3872 28.0194C9.5165 29.8901 9.5165 32.9231 11.3872 34.7938C13.2579 36.6645 16.2909 36.6645 18.1616 34.7938L41.9938 10.9616C43.8645 9.09088 43.8645 6.05789 41.9938 4.18719C40.1231 2.3165 37.0901 2.3165 35.2194 4.18719Z" fill="#8F4AFF"/>
<path d="M55.0661 24.0369L31.2339 47.8692C29.3632 49.7399 29.3632 52.7728 31.2339 54.6435C33.1046 56.5142 36.1375 56.5142 38.0082 54.6435L61.8405 30.8113C63.7112 28.9406 63.7112 25.9076 61.8405 24.0369C59.9698 22.1662 56.9368 22.1662 55.0661 24.0369Z" fill="#8F4AFF"/>
<path d="M37.9943 21.2591L14.1621 45.0913C12.2914 46.962 12.2914 49.995 14.1621 51.8657C16.0328 53.7364 19.0658 53.7364 20.9365 51.8657L44.7687 28.0334C46.6394 26.1627 46.6394 23.1298 44.7687 21.2591C42.898 19.3884 39.865 19.3884 37.9943 21.2591Z" fill="#8F4AFF"/>
<path d="M57.8383 41.1066L34.0061 64.9388C32.1354 66.8095 32.1354 69.8425 34.0061 71.7132C35.8768 73.5839 38.9098 73.5839 40.7805 71.7132L64.6127 47.8809C66.4834 46.0103 66.4834 42.9773 64.6127 41.1066C62.742 39.2359 59.709 39.2359 57.8383 41.1066Z" fill="#8F4AFF"/>
</svg>
