<svg width="32" height="32" viewBox="0 0 32 32" fill="none" xmlns="http://www.w3.org/2000/svg">
<g clip-path="url(#clip0_2386_2)">
<path d="M31.7863 16.1325C31.7863 24.7779 24.7779 31.7863 16.1325 31.7863C7.48703 31.7863 0.478516 24.7779 0.478516 16.1325C0.478516 7.48703 7.48703 0.478516 16.1325 0.478516C24.7779 0.478516 31.7863 7.48703 31.7863 16.1325Z" fill="black"/>
<path d="M30.9473 16.1322C30.9471 7.95044 24.314 1.3178 16.1322 1.3178C7.95051 1.31792 1.31792 7.95051 1.3178 16.1322C1.3178 24.314 7.95044 30.9471 16.1322 30.9473V31.7865L15.7285 31.7814C7.26976 31.5672 0.478516 24.6426 0.478516 16.1322C0.478635 7.48697 7.48697 0.478635 16.1322 0.478516C24.7775 0.478516 31.7865 7.4869 31.7865 16.1322L31.7814 16.5366C31.5671 24.9952 24.6426 31.7865 16.1322 31.7865V30.9473C24.3141 30.9473 30.9473 24.3141 30.9473 16.1322Z" fill="#B8BFFB"/>
<path d="M8.95605 8.79075C8.95605 8.55898 9.14394 8.37109 9.37571 8.37109C9.60748 8.37109 9.79537 8.55898 9.79537 8.79075V11.057C9.79537 11.2888 9.60748 11.4767 9.37571 11.4767C9.14394 11.4767 8.95605 11.2888 8.95605 11.057V8.79075Z" fill="#B8BFFB" fill-opacity="0.6"/>
<path d="M10.3828 8.7888C10.3828 8.55703 10.5707 8.36914 10.8025 8.36914C11.0343 8.36914 11.2222 8.55703 11.2222 8.7888V11.0551C11.2222 11.2868 11.0343 11.4747 10.8025 11.4747C10.5707 11.4747 10.3828 11.2868 10.3828 11.0551V8.7888Z" fill="#B8BFFB" fill-opacity="0.6"/>
<path d="M13.2368 24.904C13.2368 24.6723 13.4247 24.4844 13.6565 24.4844C13.8882 24.4844 14.0762 24.6723 14.0762 24.904V27.1703C14.0762 27.4021 13.8882 27.59 13.6565 27.59C13.4247 27.59 13.2368 27.4021 13.2368 27.1703V24.904Z" fill="#B8BFFB" fill-opacity="0.6"/>
<path d="M14.6636 21.2107C14.6636 20.9789 14.8515 20.791 15.0833 20.791C15.3151 20.791 15.503 20.9789 15.503 21.2107V23.4769C15.503 23.7087 15.3151 23.8966 15.0833 23.8966C14.8515 23.8966 14.6636 23.7087 14.6636 23.4769V21.2107Z" fill="#B8BFFB" fill-opacity="0.6"/>
<path d="M14.6636 14.9997C14.6636 14.768 14.8515 14.5801 15.0833 14.5801C15.3151 14.5801 15.503 14.768 15.503 14.9997V17.266C15.503 17.4978 15.3151 17.6857 15.0833 17.6857C14.8515 17.6857 14.6636 17.4978 14.6636 17.266V14.9997Z" fill="#B8BFFB" fill-opacity="0.6"/>
<path d="M16.0908 21.2029C16.0908 20.9711 16.2787 20.7832 16.5105 20.7832C16.7422 20.7832 16.9301 20.9711 16.9301 21.2029V23.4691C16.9301 23.701 16.7422 23.8888 16.5105 23.8888C16.2787 23.8888 16.0908 23.701 16.0908 23.4691V21.2029Z" fill="#B8BFFB" fill-opacity="0.6"/>
<path d="M16.0908 15.0075C16.0908 14.7758 16.2787 14.5879 16.5105 14.5879C16.7422 14.5879 16.9301 14.7758 16.9301 15.0075V17.2738C16.9301 17.5056 16.7422 17.6935 16.5105 17.6935C16.2787 17.6935 16.0908 17.5056 16.0908 17.2738V15.0075Z" fill="#B8BFFB" fill-opacity="0.6"/>
<path d="M16.0908 8.79661C16.0908 8.56484 16.2787 8.37695 16.5105 8.37695C16.7422 8.37695 16.9301 8.56484 16.9301 8.79661V11.0629C16.9301 11.2947 16.7422 11.4826 16.5105 11.4826C16.2787 11.4826 16.0908 11.2947 16.0908 11.0629V8.79661Z" fill="#B8BFFB" fill-opacity="0.6"/>
<path d="M17.5176 24.904C17.5176 24.6723 17.7055 24.4844 17.9372 24.4844C18.1691 24.4844 18.357 24.6723 18.357 24.904V27.1703C18.357 27.4021 18.1691 27.59 17.9372 27.59C17.7055 27.59 17.5176 27.4021 17.5176 27.1703V24.904Z" fill="#B8BFFB" fill-opacity="0.6"/>
<path d="M17.5176 8.7888C17.5176 8.55703 17.7055 8.36914 17.9372 8.36914C18.1691 8.36914 18.357 8.55703 18.357 8.7888V11.0551C18.357 11.2868 18.1691 11.4747 17.9372 11.4747C17.7055 11.4747 17.5176 11.2868 17.5176 11.0551V8.7888Z" fill="#B8BFFB"/>
<path d="M17.5176 21.2107C17.5176 20.9789 17.7055 20.791 17.9372 20.791C18.1691 20.791 18.357 20.9789 18.357 21.2107V23.4769C18.357 23.7087 18.1691 23.8966 17.9372 23.8966C17.7055 23.8966 17.5176 23.7087 17.5176 23.4769V21.2107Z" fill="#B8BFFB" fill-opacity="0.6"/>
<path d="M17.5176 14.9997C17.5176 14.768 17.7055 14.5801 17.9372 14.5801C18.1691 14.5801 18.357 14.768 18.357 14.9997V17.266C18.357 17.4978 18.1691 17.6857 17.9372 17.6857C17.7055 17.6857 17.5176 17.4978 17.5176 17.266V14.9997Z" fill="#B8BFFB" fill-opacity="0.6"/>
<path d="M18.9443 8.7888C18.9443 8.55703 19.1323 8.36914 19.3641 8.36914C19.5958 8.36914 19.7837 8.55703 19.7837 8.7888V11.6426C19.7837 11.8744 19.5958 12.0623 19.3641 12.0623C19.1323 12.0623 18.9443 11.8744 18.9443 11.6426V8.7888Z" fill="#B8BFFB" fill-opacity="0.6"/>
<path d="M18.9443 20.6228C18.9443 20.391 19.1323 20.2031 19.3641 20.2031C19.5958 20.2031 19.7837 20.391 19.7837 20.6228V23.4766C19.7837 23.7084 19.5958 23.8963 19.3641 23.8963C19.1323 23.8963 18.9443 23.7084 18.9443 23.4766V20.6228Z" fill="#B8BFFB" fill-opacity="0.6"/>
<path d="M9.25342 24.9025V19.7825C9.25342 19.7149 9.30821 19.6602 9.3758 19.6602C9.44339 19.6602 9.49819 19.7149 9.49819 19.7825V24.9025C9.49819 24.9702 9.44339 25.0249 9.3758 25.0249C9.30821 25.0249 9.25342 24.9702 9.25342 24.9025Z" fill="#B8BFFB"/>
<path d="M8.95605 21.2127C8.95605 20.9809 9.14394 20.793 9.37571 20.793C9.60748 20.793 9.79537 20.9809 9.79537 21.2127V23.4789C9.79537 23.7107 9.60748 23.8986 9.37571 23.8986C9.14394 23.8986 8.95605 23.7107 8.95605 23.4789V21.2127Z" fill="#B8BFFB"/>
<path d="M10.6802 25.3233V18.2728C10.6802 18.2051 10.735 18.1504 10.8026 18.1504C10.8702 18.1504 10.9249 18.2051 10.9249 18.2728V25.3233C10.9249 25.3909 10.8702 25.4457 10.8026 25.4457C10.735 25.4457 10.6802 25.3909 10.6802 25.3233Z" fill="#B8BFFB"/>
<path d="M10.3828 21.2107C10.3828 20.9789 10.5707 20.791 10.8025 20.791C11.0342 20.791 11.2221 20.9789 11.2221 21.2107V23.4769C11.2221 23.7088 11.0342 23.8966 10.8025 23.8966C10.5707 23.8966 10.3828 23.7088 10.3828 23.4769V21.2107Z" fill="#B8BFFB"/>
<path d="M12.1074 27.4222V5.76691C12.1074 5.69931 12.1622 5.64453 12.2298 5.64453C12.2974 5.64453 12.3522 5.69931 12.3522 5.76691V27.4222C12.3522 27.4898 12.2974 27.5446 12.2298 27.5446C12.1622 27.5446 12.1074 27.4898 12.1074 27.4222Z" fill="#B8BFFB"/>
<path d="M11.8101 12.9841C11.8101 12.7523 11.9979 12.5645 12.2297 12.5645C12.4615 12.5645 12.6494 12.7523 12.6494 12.9841V23.5599C12.6494 23.7917 12.4615 23.9796 12.2297 23.9796C11.9979 23.9796 11.8101 23.7917 11.8101 23.5599V12.9841Z" fill="#B8BFFB"/>
<path d="M13.5342 23.4984V5.76691C13.5342 5.69931 13.589 5.64453 13.6566 5.64453C13.7242 5.64453 13.7789 5.69931 13.7789 5.76691V23.4984C13.7789 23.5661 13.7242 23.6208 13.6566 23.6208C13.589 23.6208 13.5342 23.5661 13.5342 23.4984Z" fill="#B8BFFB"/>
<path d="M13.2368 8.77708C13.2368 8.54531 13.4247 8.35742 13.6565 8.35742C13.8882 8.35742 14.0761 8.54531 14.0761 8.77708V23.4777C14.0761 23.7095 13.8882 23.8974 13.6565 23.8974C13.4247 23.8974 13.2368 23.7095 13.2368 23.4777V8.77708Z" fill="#B8BFFB"/>
<path d="M14.9609 13.3208V8.62043C14.9609 8.55284 15.0157 8.49805 15.0833 8.49805C15.1509 8.49805 15.2057 8.55284 15.2057 8.62043V13.3208C15.2057 13.3884 15.1509 13.4432 15.0833 13.4432C15.0157 13.4432 14.9609 13.3884 14.9609 13.3208Z" fill="#B8BFFB"/>
<path d="M14.6636 8.78886C14.6636 8.55703 14.8515 8.36914 15.0832 8.36914C15.315 8.36914 15.5029 8.55703 15.5029 8.78886V11.0551C15.5029 11.2869 15.315 11.4748 15.0832 11.4748C14.8515 11.4748 14.6636 11.2869 14.6636 11.0551V8.78886Z" fill="#B8BFFB"/>
<path d="M16.3457 10.8035V6.60672C16.3457 6.53913 16.4005 6.48438 16.4681 6.48438C16.5357 6.48438 16.5905 6.53913 16.5905 6.60672V10.8035C16.5905 10.8711 16.5357 10.9259 16.4681 10.9259C16.4005 10.9259 16.3457 10.8711 16.3457 10.8035Z" fill="#B8BFFB"/>
<path d="M16.0908 8.79668C16.0908 8.56484 16.2787 8.37695 16.5105 8.37695C16.7423 8.37695 16.9302 8.56484 16.9302 8.79668V11.0629C16.9302 11.2947 16.7423 11.4826 16.5105 11.4826C16.2787 11.4826 16.0908 11.2947 16.0908 11.0629V8.79668Z" fill="#B8BFFB"/>
<path d="M17.8149 13.2362V4.08723C17.8149 4.01962 17.8697 3.96484 17.9373 3.96484C18.0049 3.96484 18.0597 4.01962 18.0597 4.08723V13.2362C18.0597 13.3038 18.0049 13.3585 17.9373 13.3585C17.8697 13.3585 17.8149 13.3038 17.8149 13.2362Z" fill="#B8BFFB"/>
<path d="M19.2417 8.03205V3.83527C19.2417 3.76767 19.2964 3.71289 19.3641 3.71289C19.4317 3.71289 19.4865 3.76767 19.4865 3.83527V8.03205C19.4865 8.09965 19.4317 8.15444 19.3641 8.15444C19.2964 8.15444 19.2417 8.09965 19.2417 8.03205Z" fill="#B8BFFB"/>
<path d="M18.9443 5.09546C18.9443 4.86368 19.1322 4.67578 19.364 4.67578C19.5958 4.67578 19.7837 4.86368 19.7837 5.09546V6.35449C19.7837 6.58629 19.5958 6.77417 19.364 6.77417C19.1322 6.77417 18.9443 6.58629 18.9443 6.35449V5.09546Z" fill="#B8BFFB"/>
<path d="M18.9443 24.904C18.9443 24.6723 19.1323 24.4844 19.3641 24.4844C19.5958 24.4844 19.7837 24.6723 19.7837 24.904V27.1703C19.7837 27.4021 19.5958 27.59 19.3641 27.59C19.1323 27.59 18.9443 27.4021 18.9443 27.1703V24.904Z" fill="#B8BFFB" fill-opacity="0.6"/>
<path d="M18.9443 14.4119C18.9443 14.1801 19.1323 13.9922 19.3641 13.9922C19.5958 13.9922 19.7837 14.1801 19.7837 14.4119V17.8532C19.7837 18.085 19.5958 18.2729 19.3641 18.2729C19.1323 18.2729 18.9443 18.085 18.9443 17.8532V14.4119Z" fill="#B8BFFB" fill-opacity="0.6"/>
<path d="M20.3711 8.7888C20.3711 8.55703 20.559 8.36914 20.7908 8.36914C21.0225 8.36914 21.2104 8.55703 21.2104 8.7888V23.4775C21.2104 23.7092 21.0225 23.8971 20.7908 23.8971C20.559 23.8971 20.3711 23.7092 20.3711 23.4775V8.7888Z" fill="#B8BFFB" fill-opacity="0.6"/>
<path d="M21.7983 10.3416C21.7983 10.1098 21.9862 9.92188 22.218 9.92188C22.4498 9.92188 22.6377 10.1098 22.6377 10.3416V21.9246C22.6377 22.1564 22.4498 22.3443 22.218 22.3443C21.9862 22.3443 21.7983 22.1564 21.7983 21.9246V10.3416Z" fill="#B8BFFB" fill-opacity="0.6"/>
<path d="M23.2251 11.8943C23.2251 11.6625 23.413 11.4746 23.6448 11.4746C23.8765 11.4746 24.0644 11.6625 24.0644 11.8943V14.1606C24.0644 14.3924 23.8765 14.5802 23.6448 14.5802C23.413 14.5802 23.2251 14.3924 23.2251 14.1606V11.8943Z" fill="#B8BFFB" fill-opacity="0.6"/>
<path d="M23.2251 18.1052C23.2251 17.8734 23.413 17.6855 23.6448 17.6855C23.8766 17.6855 24.0645 17.8734 24.0645 18.1052V20.3715C24.0645 20.6032 23.8766 20.7911 23.6448 20.7911C23.413 20.7911 23.2251 20.6032 23.2251 20.3715V18.1052Z" fill="#B8BFFB" fill-opacity="0.6"/>
</g>
<defs>
<clipPath id="clip0_2386_2">
<rect width="32" height="32" fill="white"/>
</clipPath>
</defs>
</svg>
