<svg width="129" height="129" viewBox="0 0 129 129" fill="none" xmlns="http://www.w3.org/2000/svg">
<path d="M128.128 64.2073C128.128 99.5094 99.5099 128.127 64.2078 128.127C28.9056 128.127 0.287598 99.5094 0.287598 64.2073C0.287598 28.9051 28.9056 0.287109 64.2078 0.287109C99.5099 0.287109 128.128 28.9051 128.128 64.2073Z" fill="black"/>
<path d="M124.702 64.2064C124.701 30.7975 97.6158 3.71419 64.2069 3.71419C30.7983 3.71468 3.71517 30.7978 3.71468 64.2064C3.71468 97.6153 30.798 124.701 64.2069 124.701V128.128L62.5584 128.107C28.0186 127.233 0.287598 98.9571 0.287598 64.2064C0.288084 28.905 28.9054 0.287596 64.2069 0.287109C99.5087 0.287109 128.128 28.9047 128.129 64.2064L128.108 65.8574C127.233 100.397 98.9573 128.128 64.2069 128.128V124.701C97.6161 124.701 124.702 97.6156 124.702 64.2064Z" fill="#B8BFFB"/>
<path d="M34.9041 34.2254C34.9041 33.279 35.6713 32.5117 36.6177 32.5117V32.5117C37.5642 32.5117 38.3314 33.279 38.3314 34.2254V43.4793C38.3314 44.4257 37.5642 45.1929 36.6177 45.1929V45.1929C35.6713 45.1929 34.9041 44.4257 34.9041 43.4793V34.2254Z" fill="#B8BFFB" fill-opacity="0.6"/>
<path d="M40.7305 34.2195C40.7305 33.2731 41.4977 32.5059 42.4441 32.5059V32.5059C43.3906 32.5059 44.1578 33.2731 44.1578 34.2195V43.4734C44.1578 44.4198 43.3906 45.1871 42.4441 45.1871V45.1871C41.4977 45.1871 40.7305 44.4198 40.7305 43.4734V34.2195Z" fill="#B8BFFB" fill-opacity="0.6"/>
<path d="M52.3835 100.024C52.3835 99.0778 53.1508 98.3105 54.0972 98.3105V98.3105C55.0437 98.3105 55.8109 99.0778 55.8109 100.024V109.278C55.8109 110.225 55.0437 110.992 54.0972 110.992V110.992C53.1508 110.992 52.3835 110.225 52.3835 109.278V100.024Z" fill="#B8BFFB" fill-opacity="0.6"/>
<path d="M58.21 84.9441C58.21 83.9977 58.9772 83.2305 59.9236 83.2305V83.2305C60.8701 83.2305 61.6373 83.9977 61.6373 84.9441V94.198C61.6373 95.1444 60.8701 95.9117 59.9236 95.9117V95.9117C58.9772 95.9117 58.21 95.1444 58.21 94.198V84.9441Z" fill="#B8BFFB" fill-opacity="0.6"/>
<path d="M58.21 59.5809C58.21 58.6344 58.9772 57.8672 59.9236 57.8672V57.8672C60.8701 57.8672 61.6373 58.6344 61.6373 59.5809V68.8347C61.6373 69.7812 60.8701 70.5484 59.9236 70.5484V70.5484C58.9772 70.5484 58.21 69.7812 58.21 68.8347V59.5809Z" fill="#B8BFFB" fill-opacity="0.6"/>
<path d="M64.0364 84.9109C64.0364 83.9645 64.8036 83.1973 65.7501 83.1973V83.1973C66.6965 83.1973 67.4637 83.9645 67.4637 84.9109V94.1648C67.4637 95.1112 66.6965 95.8785 65.7501 95.8785V95.8785C64.8036 95.8785 64.0364 95.1112 64.0364 94.1648V84.9109Z" fill="#B8BFFB" fill-opacity="0.6"/>
<path d="M64.0364 59.6141C64.0364 58.6676 64.8036 57.9004 65.7501 57.9004V57.9004C66.6965 57.9004 67.4637 58.6676 67.4637 59.6141V68.8679C67.4637 69.8144 66.6965 70.5816 65.7501 70.5816V70.5816C64.8036 70.5816 64.0364 69.8144 64.0364 68.8679V59.6141Z" fill="#B8BFFB" fill-opacity="0.6"/>
<path d="M64.0364 34.2508C64.0364 33.3043 64.8036 32.5371 65.7501 32.5371V32.5371C66.6965 32.5371 67.4637 33.3043 67.4637 34.2508V43.5046C67.4637 44.4511 66.6965 45.2183 65.7501 45.2183V45.2183C64.8036 45.2183 64.0364 44.4511 64.0364 43.5046V34.2508Z" fill="#B8BFFB" fill-opacity="0.6"/>
<path d="M69.863 100.024C69.863 99.0778 70.6303 98.3105 71.5767 98.3105V98.3105C72.5232 98.3105 73.2904 99.0778 73.2904 100.024V109.278C73.2904 110.225 72.5232 110.992 71.5767 110.992V110.992C70.6303 110.992 69.863 110.225 69.863 109.278V100.024Z" fill="#B8BFFB" fill-opacity="0.6"/>
<path d="M69.863 34.2195C69.863 33.2731 70.6303 32.5059 71.5767 32.5059V32.5059C72.5232 32.5059 73.2904 33.2731 73.2904 34.2195V43.4734C73.2904 44.4198 72.5232 45.1871 71.5767 45.1871V45.1871C70.6303 45.1871 69.863 44.4198 69.863 43.4734V34.2195Z" fill="#B8BFFB"/>
<path d="M69.863 84.9441C69.863 83.9977 70.6303 83.2305 71.5767 83.2305V83.2305C72.5232 83.2305 73.2904 83.9977 73.2904 84.9441V94.198C73.2904 95.1444 72.5232 95.9117 71.5767 95.9117V95.9117C70.6303 95.9117 69.863 95.1444 69.863 94.198V84.9441Z" fill="#B8BFFB" fill-opacity="0.6"/>
<path d="M69.863 59.5809C69.863 58.6344 70.6303 57.8672 71.5767 57.8672V57.8672C72.5232 57.8672 73.2904 58.6344 73.2904 59.5809V68.8347C73.2904 69.7812 72.5232 70.5484 71.5767 70.5484V70.5484C70.6303 70.5484 69.863 69.7812 69.863 68.8347V59.5809Z" fill="#B8BFFB" fill-opacity="0.6"/>
<path d="M75.6895 34.2195C75.6895 33.2731 76.4567 32.5059 77.4031 32.5059V32.5059C78.3496 32.5059 79.1168 33.2731 79.1168 34.2195V45.8725C79.1168 46.819 78.3496 47.5862 77.4031 47.5862V47.5862C76.4567 47.5862 75.6895 46.819 75.6895 45.8725V34.2195Z" fill="#B8BFFB" fill-opacity="0.6"/>
<path d="M75.6895 82.5438C75.6895 81.5973 76.4567 80.8301 77.4031 80.8301V80.8301C78.3496 80.8301 79.1168 81.5973 79.1168 82.5438V94.1968C79.1168 95.1432 78.3496 95.9104 77.4031 95.9104V95.9104C76.4567 95.9104 75.6895 95.1432 75.6895 94.1968V82.5438Z" fill="#B8BFFB" fill-opacity="0.6"/>
<path d="M36.1182 100.018L36.1182 79.111C36.1182 78.835 36.3418 78.6113 36.6179 78.6113C36.8939 78.6113 37.1176 78.835 37.1176 79.111L37.1176 100.018C37.1176 100.294 36.8939 100.518 36.6179 100.518C36.3418 100.518 36.1182 100.294 36.1182 100.018Z" fill="#B8BFFB"/>
<path d="M34.9041 84.95C34.9041 84.0036 35.6713 83.2363 36.6177 83.2363V83.2363C37.5642 83.2363 38.3314 84.0036 38.3314 84.95V94.2039C38.3314 95.1503 37.5642 95.9175 36.6177 95.9175V95.9175C35.6713 95.9175 34.9041 95.1503 34.9041 94.2039V84.95Z" fill="#B8BFFB"/>
<path d="M41.9446 101.739L41.9446 72.9489C41.9446 72.6729 42.1682 72.4492 42.4443 72.4492C42.7203 72.4492 42.944 72.6729 42.944 72.9489L42.944 101.739C42.944 102.015 42.7203 102.238 42.4443 102.238C42.1682 102.238 41.9446 102.015 41.9446 101.739Z" fill="#B8BFFB"/>
<path d="M40.7307 84.9441C40.7307 83.9977 41.498 83.2305 42.4444 83.2305V83.2305C43.3908 83.2305 44.1581 83.9977 44.1581 84.9441V94.198C44.1581 95.1444 43.3908 95.9117 42.4444 95.9117V95.9117C41.498 95.9117 40.7307 95.1444 40.7307 94.198V84.9441Z" fill="#B8BFFB"/>
<path d="M47.7712 110.306L47.7712 21.8806C47.7712 21.6045 47.9949 21.3809 48.271 21.3809C48.547 21.3809 48.7707 21.6045 48.7707 21.8806L48.7707 110.306C48.7707 110.582 48.547 110.806 48.271 110.806C47.9949 110.806 47.7712 110.582 47.7712 110.306Z" fill="#B8BFFB"/>
<path d="M46.5571 51.3563C46.5571 50.4098 47.3244 49.6426 48.2708 49.6426C49.2172 49.6426 49.9845 50.4098 49.9845 51.3563V94.5409C49.9845 95.4874 49.2172 96.2546 48.2708 96.2546C47.3244 96.2546 46.5571 95.4874 46.5571 94.5409V51.3563Z" fill="#B8BFFB"/>
<path d="M53.5977 94.2845V21.8806C53.5977 21.6045 53.8213 21.3809 54.0974 21.3809C54.3734 21.3809 54.5971 21.6045 54.5971 21.8806V94.2845C54.597 94.5605 54.3734 94.7842 54.0974 94.7842C53.8213 94.7842 53.5977 94.5605 53.5977 94.2845Z" fill="#B8BFFB"/>
<path d="M52.3835 34.1707C52.3835 33.2243 53.1508 32.457 54.0972 32.457V32.457C55.0437 32.457 55.8109 33.2243 55.8109 34.1707V94.1984C55.8109 95.1448 55.0437 95.9121 54.0972 95.9121V95.9121C53.1508 95.9121 52.3835 95.1448 52.3835 94.1984V34.1707Z" fill="#B8BFFB"/>
<path d="M59.4243 52.7261L59.4243 33.5329C59.4243 33.2569 59.648 33.0332 59.924 33.0332C60.2001 33.0332 60.4237 33.2569 60.4237 33.5329L60.4237 52.7261C60.4237 53.0021 60.2001 53.2258 59.924 53.2258C59.648 53.2258 59.4243 53.0021 59.4243 52.7261Z" fill="#B8BFFB"/>
<path d="M58.2102 34.2195C58.2102 33.2731 58.9774 32.5059 59.9239 32.5059V32.5059C60.8703 32.5059 61.6376 33.2731 61.6376 34.2195V43.4734C61.6376 44.4198 60.8703 45.1871 59.9239 45.1871V45.1871C58.9774 45.1871 58.2102 44.4198 58.2102 43.4734V34.2195Z" fill="#B8BFFB"/>
<path d="M65.0793 42.4451L65.0793 25.3083C65.0793 25.0323 65.303 24.8086 65.5791 24.8086C65.8551 24.8086 66.0788 25.0323 66.0788 25.3083L66.0788 42.4451C66.0788 42.7211 65.8551 42.9448 65.5791 42.9448C65.303 42.9448 65.0793 42.7211 65.0793 42.4451Z" fill="#B8BFFB"/>
<path d="M64.0366 34.2508C64.0366 33.3043 64.8039 32.5371 65.7503 32.5371V32.5371C66.6967 32.5371 67.464 33.3043 67.464 34.2508V43.5046C67.464 44.4511 66.6967 45.2183 65.7503 45.2183V45.2183C64.8039 45.2183 64.0366 44.4511 64.0366 43.5046V34.2508Z" fill="#B8BFFB"/>
<path d="M71.0771 52.3833L71.0771 15.0251C71.0771 14.7491 71.3008 14.5254 71.5769 14.5254C71.8529 14.5254 72.0766 14.7491 72.0766 15.0251L72.0766 52.3833C72.0766 52.6593 71.8529 52.883 71.5769 52.883C71.3008 52.883 71.0771 52.6593 71.0771 52.3833Z" fill="#B8BFFB"/>
<path d="M76.9038 31.1345L76.9038 13.9978C76.9038 13.7217 77.1275 13.498 77.4035 13.498C77.6796 13.498 77.9032 13.7217 77.9032 13.9978L77.9032 31.1345C77.9032 31.4106 77.6796 31.6342 77.4035 31.6342C77.1275 31.6342 76.9038 31.4106 76.9038 31.1345Z" fill="#B8BFFB"/>
<path d="M75.6897 19.1395C75.6897 18.193 76.4569 17.4258 77.4034 17.4258V17.4258C78.3498 17.4258 79.1171 18.193 79.1171 19.1395V24.2805C79.1171 25.2269 78.3498 25.9942 77.4034 25.9942V25.9942C76.4569 25.9942 75.6897 25.2269 75.6897 24.2805V19.1395Z" fill="#B8BFFB"/>
<path d="M75.6895 100.024C75.6895 99.0778 76.4567 98.3105 77.4031 98.3105V98.3105C78.3496 98.3105 79.1168 99.0778 79.1168 100.024V109.278C79.1168 110.225 78.3496 110.992 77.4031 110.992V110.992C76.4567 110.992 75.6895 110.225 75.6895 109.278V100.024Z" fill="#B8BFFB" fill-opacity="0.6"/>
<path d="M75.6895 57.1824C75.6895 56.236 76.4567 55.4688 77.4031 55.4688V55.4688C78.3496 55.4688 79.1168 56.236 79.1168 57.1824V71.2346C79.1168 72.181 78.3496 72.9483 77.4031 72.9483V72.9483C76.4567 72.9483 75.6895 72.181 75.6895 71.2346V57.1824Z" fill="#B8BFFB" fill-opacity="0.6"/>
<path d="M81.5159 34.2195C81.5159 33.2731 82.2831 32.5059 83.2295 32.5059V32.5059C84.176 32.5059 84.9432 33.2731 84.9432 34.2195V94.1982C84.9432 95.1447 84.176 95.9119 83.2295 95.9119V95.9119C82.2831 95.9119 81.5159 95.1447 81.5159 94.1982V34.2195Z" fill="#B8BFFB" fill-opacity="0.6"/>
<path d="M87.3425 40.5594C87.3425 39.6129 88.1098 38.8457 89.0562 38.8457V38.8457C90.0026 38.8457 90.7699 39.6129 90.7699 40.5594V87.8569C90.7699 88.8033 90.0026 89.5706 89.0562 89.5706V89.5706C88.1098 89.5706 87.3425 88.8033 87.3425 87.8569V40.5594Z" fill="#B8BFFB" fill-opacity="0.6"/>
<path d="M93.1689 46.8992C93.1689 45.9528 93.9362 45.1855 94.8826 45.1855V45.1855C95.8291 45.1855 96.5963 45.9528 96.5963 46.8992V56.1531C96.5963 57.0995 95.8291 57.8668 94.8826 57.8668V57.8668C93.9362 57.8668 93.1689 57.0995 93.1689 56.1531V46.8992Z" fill="#B8BFFB" fill-opacity="0.6"/>
<path d="M93.1692 72.2625C93.1692 71.3161 93.9364 70.5488 94.8829 70.5488V70.5488C95.8293 70.5488 96.5965 71.3161 96.5965 72.2625V81.5164C96.5965 82.4628 95.8293 83.23 94.8829 83.23V83.23C93.9364 83.23 93.1692 82.4628 93.1692 81.5164V72.2625Z" fill="#B8BFFB" fill-opacity="0.6"/>
</svg>
