<svg width="128" height="128" viewBox="0 0 128 128" fill="none" xmlns="http://www.w3.org/2000/svg">
<path d="M126.084 79.4824C117.535 113.768 82.8057 134.634 48.5121 126.084C14.2325 117.536 -6.63578 82.8083 1.91712 48.5247C10.462 14.235 45.1918 -6.63274 79.4754 1.91517C113.767 10.4631 134.633 45.1947 126.084 79.4824Z" fill="#8235FF"/>
<path d="M97.0356 103.118C88.119 110.656 76.5902 115.2 64 115.2C50.2182 115.2 37.7081 109.755 28.504 100.898L24.883 104.519C35.0142 114.302 48.8043 120.32 64 120.32C78.0043 120.32 90.8148 115.209 100.668 106.75L97.0356 103.118Z" fill="#F4EDFF"/>
<path d="M100.898 28.5041C109.755 37.7082 115.2 50.2182 115.2 64.0001C115.2 77.8439 109.706 90.4044 100.779 99.62L104.399 103.241C114.253 93.0983 120.32 79.2577 120.32 64.0001C120.32 48.8044 114.302 35.0143 104.519 24.8831L100.898 28.5041Z" fill="#F4EDFF"/>
<path d="M100.799 21.363C90.9284 12.8368 78.0664 7.68005 64 7.68005C48.7423 7.68005 34.9018 13.7473 24.7593 23.6007L28.3801 27.2215C37.5957 18.2944 50.1562 12.8001 64 12.8001C76.6523 12.8001 88.2327 17.3893 97.1675 24.9941L100.799 21.363Z" fill="#F4EDFF"/>
<path d="M24.8822 30.9644L21.2502 27.3324C12.7913 37.1853 7.67999 49.9958 7.67999 64.0001C7.67999 78.0664 12.8368 90.9284 21.363 100.799L24.994 97.1675C17.3893 88.2328 12.8 76.6524 12.8 64.0001C12.8 51.4099 17.3443 39.8811 24.8822 30.9644Z" fill="#F4EDFF"/>
<path d="M62.0182 32.0318L39.7138 54.3363C37.963 56.087 37.963 58.9256 39.7138 60.6763C41.4645 62.4271 44.3031 62.4271 46.0539 60.6763L68.3583 38.3719C70.1091 36.6212 70.1091 33.7826 68.3583 32.0318C66.6075 30.2811 63.769 30.2811 62.0182 32.0318Z" fill="white"/>
<path d="M80.5928 50.6091L58.2883 72.9135C56.5376 74.6643 56.5376 77.5028 58.2883 79.2536C60.0391 81.0044 62.8777 81.0044 64.6284 79.2536L86.9328 56.9492C88.6836 55.1984 88.6836 52.3598 86.9328 50.6091C85.1821 48.8583 82.3435 48.8583 80.5928 50.6091Z" fill="white"/>
<path d="M64.6145 48.0093L42.31 70.3137C40.5593 72.0644 40.5593 74.903 42.31 76.6538C44.0608 78.4045 46.8994 78.4045 48.6501 76.6538L70.9546 54.3493C72.7053 52.5986 72.7053 49.76 70.9546 48.0093C69.2038 46.2585 66.3652 46.2585 64.6145 48.0093Z" fill="white"/>
<path d="M83.1871 66.5843L60.8827 88.8887C59.1319 90.6395 59.1319 93.478 60.8827 95.2288C62.6334 96.9796 65.472 96.9796 67.2228 95.2288L89.5272 72.9244C91.278 71.1736 91.278 68.3351 89.5272 66.5843C87.7764 64.8335 84.9379 64.8335 83.1871 66.5843Z" fill="white"/>
</svg>
