<svg width="32" height="32" viewBox="0 0 32 32" fill="none" xmlns="http://www.w3.org/2000/svg">
<path d="M31.5211 19.8706C29.3839 28.442 20.7014 33.6585 12.128 31.521C3.55811 29.384 -1.65895 20.7021 0.479281 12.1312C2.61551 3.55876 11.2979 -1.65819 19.8688 0.478793C28.4418 2.61577 33.6583 11.2987 31.5211 19.8706Z" fill="#8235FF"/>
<path d="M24.2589 25.7795C22.0298 27.664 19.1476 28.8 16 28.8C12.5546 28.8 9.42705 27.4387 7.12602 25.2246L6.22077 26.1299C8.75356 28.5755 12.2011 30.08 16 30.08C19.5011 30.08 22.7037 28.8022 25.1669 26.6875L24.2589 25.7795Z" fill="#F4EDFF"/>
<path d="M25.2246 7.12605C27.4387 9.42708 28.8 12.5546 28.8 16C28.8 19.461 27.4264 22.6011 25.1947 24.905L26.0999 25.8102C28.5632 23.2746 30.08 19.8145 30.08 16C30.08 12.2011 28.5755 8.7536 26.1298 6.2208L25.2246 7.12605Z" fill="#F4EDFF"/>
<path d="M25.1996 5.34079C22.7321 3.20924 19.5166 1.92004 16 1.92004C12.1856 1.92004 8.72545 3.43685 6.18983 5.90019L7.09503 6.8054C9.39893 4.57363 12.5391 3.20004 16 3.20004C19.1631 3.20004 22.0582 4.34737 24.2919 6.24856L25.1996 5.34079Z" fill="#F4EDFF"/>
<path d="M6.22057 7.74113L5.31258 6.83314C3.19785 9.29635 1.92001 12.499 1.92001 16C1.92001 19.5166 3.20921 22.7321 5.34076 25.1997L6.24853 24.2919C4.34734 22.0582 3.20001 19.1631 3.20001 16C3.20001 12.8525 4.3361 9.97029 6.22057 7.74113Z" fill="#F4EDFF"/>
<path d="M15.5046 8.00796L9.92846 13.5841C9.49077 14.0218 9.49077 14.7314 9.92846 15.1691C10.3661 15.6068 11.0758 15.6068 11.5135 15.1691L17.0896 9.59298C17.5273 9.15529 17.5273 8.44565 17.0896 8.00796C16.6519 7.57026 15.9423 7.57026 15.5046 8.00796Z" fill="white"/>
<path d="M20.1482 12.6523L14.5721 18.2284C14.1344 18.6661 14.1344 19.3757 14.5721 19.8134C15.0098 20.2511 15.7194 20.2511 16.1571 19.8134L21.7332 14.2373C22.1709 13.7996 22.1709 13.09 21.7332 12.6523C21.2955 12.2146 20.5859 12.2146 20.1482 12.6523Z" fill="white"/>
<path d="M16.1536 12.0023L10.5775 17.5784C10.1398 18.0161 10.1398 18.7258 10.5775 19.1634C11.0152 19.6011 11.7249 19.6011 12.1625 19.1634L17.7387 13.5873C18.1763 13.1496 18.1763 12.44 17.7387 12.0023C17.301 11.5646 16.5913 11.5646 16.1536 12.0023Z" fill="white"/>
<path d="M20.7968 16.6461L15.2207 22.2222C14.783 22.6599 14.783 23.3695 15.2207 23.8072C15.6584 24.2449 16.368 24.2449 16.8057 23.8072L22.3818 18.2311C22.8195 17.7934 22.8195 17.0838 22.3818 16.6461C21.9441 16.2084 21.2345 16.2084 20.7968 16.6461Z" fill="white"/>
</svg>
