<svg width="48" height="48" viewBox="0 0 48 48" fill="none" xmlns="http://www.w3.org/2000/svg">
<circle cx="23.1537" cy="24.1537" r="22.2528" fill="black" stroke="#B8BFFB" stroke-width="1.80185"/>
<circle cx="40.4412" cy="9.63979" r="6.93227" fill="black" stroke="#B8BFFB" stroke-width="1.25294"/>
<rect x="33.6445" y="17.2064" width="1.20425" height="4.58763" rx="0.602127" fill="#B8BFFB" stroke="#B8BFFB" stroke-width="0.0573454"/>
<rect x="33.6445" y="26.5535" width="1.20425" height="4.58763" rx="0.602127" fill="#B8BFFB" stroke="#B8BFFB" stroke-width="0.0573454"/>
<rect x="16.9019" y="12.5611" width="1.20425" height="23.2249" rx="0.602127" fill="#B8BFFB" stroke="#B8BFFB" stroke-width="0.0573454"/>
<rect x="16.9019" y="36.4744" width="1.20425" height="4.58763" rx="0.602127" fill="#B8BFFB" stroke="#B8BFFB" stroke-width="0.0573454"/>
<rect x="16.9019" y="7.51494" width="1.20425" height="4.58763" rx="0.602127" fill="#B8BFFB" stroke="#B8BFFB" stroke-width="0.0573454"/>
<rect x="19.0245" y="12.5611" width="1.20425" height="23.2249" rx="0.602127" fill="#B8BFFB" stroke="#B8BFFB" stroke-width="0.0573454"/>
<rect x="19.0245" y="36.4744" width="1.20425" height="4.58763" rx="0.602127" fill="#B8BFFB" stroke="#B8BFFB" stroke-width="0.0573454"/>
<rect x="19.0245" y="7.51494" width="1.20425" height="4.58763" rx="0.602127" fill="#B8BFFB" stroke="#B8BFFB" stroke-width="0.0573454"/>
<rect x="21.095" y="12.5614" width="1.20425" height="4.58763" rx="0.602127" fill="#B8BFFB" stroke="#B8BFFB" stroke-width="0.0573454"/>
<rect x="21.095" y="21.8514" width="1.20425" height="4.58763" rx="0.602127" fill="#B8BFFB" stroke="#B8BFFB" stroke-width="0.0573454"/>
<rect x="21.095" y="31.1988" width="1.20425" height="4.58763" rx="0.602127" fill="#B8BFFB" stroke="#B8BFFB" stroke-width="0.0573454"/>
<rect x="27.4176" y="12.56" width="1.20395" height="4.62745" rx="0.601973" fill="#B8BFFB" stroke="#B8BFFB" stroke-width="0.0573454"/>
<rect x="27.4176" y="21.84" width="1.20395" height="4.62745" rx="0.601973" fill="#B8BFFB" stroke="#B8BFFB" stroke-width="0.0573454"/>
<rect x="27.4176" y="31.209" width="1.20395" height="4.53736" rx="0.601973" fill="#B8BFFB" stroke="#B8BFFB" stroke-width="0.0573454"/>
<rect x="14.8313" y="12.5614" width="1.20425" height="4.58763" rx="0.602127" fill="#B8BFFB" stroke="#B8BFFB" stroke-width="0.0573454"/>
<rect x="14.8313" y="31.1988" width="1.20425" height="4.58763" rx="0.602127" fill="#B8BFFB" stroke="#B8BFFB" stroke-width="0.0573454"/>
<rect x="12.7428" y="12.5614" width="1.20425" height="4.58763" rx="0.602127" fill="#B8BFFB" stroke="#B8BFFB" stroke-width="0.0573454"/>
<rect x="12.7428" y="31.1988" width="1.20425" height="4.58763" rx="0.602127" fill="#B8BFFB" stroke="#B8BFFB" stroke-width="0.0573454"/>
<rect x="23.1849" y="21.8511" width="1.20425" height="4.58763" rx="0.602127" fill="#B8BFFB" stroke="#B8BFFB" stroke-width="0.0573454"/>
<rect x="23.2105" y="36.4744" width="1.20425" height="4.58763" rx="0.602127" fill="#B8BFFB" stroke="#B8BFFB" stroke-width="0.0573454"/>
<rect x="23.2121" y="7.51494" width="1.20425" height="4.58763" rx="0.602127" fill="#B8BFFB" stroke="#B8BFFB" stroke-width="0.0573454"/>
<rect x="23.2121" y="31.199" width="1.20425" height="4.58763" rx="0.602127" fill="#B8BFFB" stroke="#B8BFFB" stroke-width="0.0573454"/>
<rect x="23.2121" y="12.5611" width="1.20425" height="4.58763" rx="0.602127" fill="#B8BFFB" stroke="#B8BFFB" stroke-width="0.0573454"/>
<rect x="25.2977" y="21.8511" width="1.20425" height="4.58763" rx="0.602127" fill="#B8BFFB" stroke="#B8BFFB" stroke-width="0.0573454"/>
<rect x="25.2753" y="36.4744" width="1.20425" height="4.58763" rx="0.602127" fill="#B8BFFB" stroke="#B8BFFB" stroke-width="0.0573454"/>
<rect x="25.2753" y="7.51494" width="1.20425" height="4.58763" rx="0.602127" fill="#B8BFFB" stroke="#B8BFFB" stroke-width="0.0573454"/>
<rect x="25.2753" y="31.199" width="1.20425" height="4.58763" rx="0.602127" fill="#B8BFFB" stroke="#B8BFFB" stroke-width="0.0573454"/>
<rect x="25.2753" y="12.5611" width="1.20425" height="4.58763" rx="0.602127" fill="#B8BFFB" stroke="#B8BFFB" stroke-width="0.0573454"/>
<rect x="29.5175" y="12.5613" width="1.20425" height="23.2249" rx="0.602127" fill="#B8BFFB" stroke="#B8BFFB" stroke-width="0.0573454"/>
<rect x="31.5817" y="14.9701" width="1.20425" height="18.5799" rx="0.602127" fill="#B8BFFB" stroke="#B8BFFB" stroke-width="0.0573454"/>
<g clip-path="url(#clip0_7528_11490)">
<path d="M40.9264 7.05466C40.9264 7.54551 39.9052 7.94343 38.6455 7.94343C37.3858 7.94343 36.3647 7.54551 36.3647 7.05466M40.9264 7.05466C40.9264 6.56381 39.9052 6.16589 38.6455 6.16589C37.3858 6.16589 36.3647 6.56381 36.3647 7.05466M40.9264 7.05466V9.03535C40.4198 9.19836 40.097 9.44497 40.097 9.72096M36.3647 7.05466V10.6097C36.3647 11.1006 37.3858 11.4985 38.6455 11.4985C39.1969 11.4985 39.7026 11.4223 40.097 11.2953M36.3647 8.8322C36.3647 9.32305 37.3858 9.72096 38.6455 9.72096C39.1969 9.72096 39.7026 9.64472 40.097 9.51781M44.6587 9.72096C44.6587 10.2118 43.6375 10.6097 42.3778 10.6097C41.1181 10.6097 40.097 10.2118 40.097 9.72096M44.6587 9.72096C44.6587 9.23011 43.6375 8.8322 42.3778 8.8322C41.1181 8.8322 40.097 9.23011 40.097 9.72096M44.6587 9.72096V11.4985C44.6587 11.9894 43.6375 12.3873 42.3778 12.3873C41.1181 12.3873 40.097 11.9894 40.097 11.4985V9.72096" stroke="#B8BFFB" stroke-width="0.696975" stroke-linecap="round" stroke-linejoin="round"/>
</g>
<defs>
<clipPath id="clip0_7528_11490">
<rect width="8.88643" height="8.88643" fill="white" transform="translate(36.0685 4.83337)"/>
</clipPath>
</defs>
</svg>
