<svg width="32" height="32" viewBox="0 0 32 32" fill="none" xmlns="http://www.w3.org/2000/svg">
<circle cx="15.4358" cy="16.1025" r="14.8352" fill="black" stroke="#B8BFFB" stroke-width="1.20123"/>
<circle cx="26.9608" cy="6.42655" r="4.62151" fill="black" stroke="#B8BFFB" stroke-width="0.835292"/>
<rect x="22.4297" y="11.471" width="0.802836" height="3.05842" rx="0.401418" fill="#B8BFFB" stroke="#B8BFFB" stroke-width="0.0382303"/>
<rect x="22.4297" y="17.7023" width="0.802836" height="3.05842" rx="0.401418" fill="#B8BFFB" stroke="#B8BFFB" stroke-width="0.0382303"/>
<rect x="11.268" y="8.37403" width="0.802836" height="15.4833" rx="0.401418" fill="#B8BFFB" stroke="#B8BFFB" stroke-width="0.0382303"/>
<rect x="11.268" y="24.3163" width="0.802836" height="3.05842" rx="0.401418" fill="#B8BFFB" stroke="#B8BFFB" stroke-width="0.0382303"/>
<rect x="11.268" y="5.00996" width="0.802836" height="3.05842" rx="0.401418" fill="#B8BFFB" stroke="#B8BFFB" stroke-width="0.0382303"/>
<rect x="12.683" y="8.37403" width="0.802836" height="15.4833" rx="0.401418" fill="#B8BFFB" stroke="#B8BFFB" stroke-width="0.0382303"/>
<rect x="12.683" y="24.3163" width="0.802836" height="3.05842" rx="0.401418" fill="#B8BFFB" stroke="#B8BFFB" stroke-width="0.0382303"/>
<rect x="12.683" y="5.00996" width="0.802836" height="3.05842" rx="0.401418" fill="#B8BFFB" stroke="#B8BFFB" stroke-width="0.0382303"/>
<rect x="14.0634" y="8.37428" width="0.802836" height="3.05842" rx="0.401418" fill="#B8BFFB" stroke="#B8BFFB" stroke-width="0.0382303"/>
<rect x="14.0634" y="14.5676" width="0.802836" height="3.05842" rx="0.401418" fill="#B8BFFB" stroke="#B8BFFB" stroke-width="0.0382303"/>
<rect x="14.0634" y="20.7992" width="0.802836" height="3.05842" rx="0.401418" fill="#B8BFFB" stroke="#B8BFFB" stroke-width="0.0382303"/>
<rect x="18.2784" y="8.3733" width="0.802631" height="3.08497" rx="0.401316" fill="#B8BFFB" stroke="#B8BFFB" stroke-width="0.0382303"/>
<rect x="18.2784" y="14.5599" width="0.802631" height="3.08497" rx="0.401316" fill="#B8BFFB" stroke="#B8BFFB" stroke-width="0.0382303"/>
<rect x="18.2784" y="20.806" width="0.802631" height="3.02491" rx="0.401316" fill="#B8BFFB" stroke="#B8BFFB" stroke-width="0.0382303"/>
<rect x="9.88755" y="8.37428" width="0.802836" height="3.05842" rx="0.401418" fill="#B8BFFB" stroke="#B8BFFB" stroke-width="0.0382303"/>
<rect x="9.88754" y="20.7992" width="0.802836" height="3.05842" rx="0.401418" fill="#B8BFFB" stroke="#B8BFFB" stroke-width="0.0382303"/>
<rect x="8.4952" y="8.37428" width="0.802836" height="3.05842" rx="0.401418" fill="#B8BFFB" stroke="#B8BFFB" stroke-width="0.0382303"/>
<rect x="8.4952" y="20.7992" width="0.802836" height="3.05842" rx="0.401418" fill="#B8BFFB" stroke="#B8BFFB" stroke-width="0.0382303"/>
<rect x="15.4566" y="14.5674" width="0.802836" height="3.05842" rx="0.401418" fill="#B8BFFB" stroke="#B8BFFB" stroke-width="0.0382303"/>
<rect x="15.4737" y="24.3163" width="0.802836" height="3.05842" rx="0.401418" fill="#B8BFFB" stroke="#B8BFFB" stroke-width="0.0382303"/>
<rect x="15.4747" y="5.00996" width="0.802836" height="3.05842" rx="0.401418" fill="#B8BFFB" stroke="#B8BFFB" stroke-width="0.0382303"/>
<rect x="15.4747" y="20.7993" width="0.802836" height="3.05842" rx="0.401418" fill="#B8BFFB" stroke="#B8BFFB" stroke-width="0.0382303"/>
<rect x="15.4747" y="8.37403" width="0.802836" height="3.05842" rx="0.401418" fill="#B8BFFB" stroke="#B8BFFB" stroke-width="0.0382303"/>
<rect x="16.8652" y="14.5674" width="0.802836" height="3.05842" rx="0.401418" fill="#B8BFFB" stroke="#B8BFFB" stroke-width="0.0382303"/>
<rect x="16.8502" y="24.3163" width="0.802836" height="3.05842" rx="0.401418" fill="#B8BFFB" stroke="#B8BFFB" stroke-width="0.0382303"/>
<rect x="16.8502" y="5.00996" width="0.802836" height="3.05842" rx="0.401418" fill="#B8BFFB" stroke="#B8BFFB" stroke-width="0.0382303"/>
<rect x="16.8502" y="20.7993" width="0.802836" height="3.05842" rx="0.401418" fill="#B8BFFB" stroke="#B8BFFB" stroke-width="0.0382303"/>
<rect x="16.8502" y="8.37403" width="0.802836" height="3.05842" rx="0.401418" fill="#B8BFFB" stroke="#B8BFFB" stroke-width="0.0382303"/>
<rect x="19.6784" y="8.37416" width="0.802836" height="15.4833" rx="0.401418" fill="#B8BFFB" stroke="#B8BFFB" stroke-width="0.0382303"/>
<rect x="21.0545" y="9.98011" width="0.802836" height="12.3866" rx="0.401418" fill="#B8BFFB" stroke="#B8BFFB" stroke-width="0.0382303"/>
<g clip-path="url(#clip0_7528_11490)">
<path d="M27.2843 4.70311C27.2843 5.03034 26.6035 5.29562 25.7637 5.29562C24.9239 5.29562 24.2431 5.03034 24.2431 4.70311M27.2843 4.70311C27.2843 4.37587 26.6035 4.1106 25.7637 4.1106C24.9239 4.1106 24.2431 4.37587 24.2431 4.70311M27.2843 4.70311V6.02356C26.9465 6.13224 26.7313 6.29665 26.7313 6.48064M24.2431 4.70311V7.07315C24.2431 7.40039 24.9239 7.66567 25.7637 7.66567C26.1313 7.66567 26.4684 7.61484 26.7313 7.53023M24.2431 5.88813C24.2431 6.21537 24.9239 6.48064 25.7637 6.48064C26.1313 6.48064 26.4684 6.42981 26.7313 6.34521M29.7725 6.48064C29.7725 6.80788 29.0917 7.07315 28.2519 7.07315C27.4121 7.07315 26.7313 6.80788 26.7313 6.48064M29.7725 6.48064C29.7725 6.15341 29.0917 5.88813 28.2519 5.88813C27.4121 5.88813 26.7313 6.15341 26.7313 6.48064M29.7725 6.48064V7.66567C29.7725 7.9929 29.0917 8.25818 28.2519 8.25818C27.4121 8.25818 26.7313 7.9929 26.7313 7.66567V6.48064" stroke="#B8BFFB" stroke-width="0.46465" stroke-linecap="round" stroke-linejoin="round"/>
</g>
<defs>
<clipPath id="clip0_7528_11490">
<rect width="5.92429" height="5.92429" fill="white" transform="translate(24.0456 3.22223)"/>
</clipPath>
</defs>
</svg>
