<svg width="24" height="24" viewBox="0 0 24 24" fill="none" xmlns="http://www.w3.org/2000/svg">
<path d="M0 2C0 0.89543 0.895431 0 2 0H22C23.1046 0 24 0.895431 24 2V22C24 23.1046 23.1046 24 22 24H2C0.89543 24 0 23.1046 0 22V2Z" fill="black"/>
<path d="M11.225 2.5791L4.59111 9.22814C4.07062 9.75052 4.07062 10.5966 4.59111 11.1189C5.1116 11.6413 5.95574 11.6413 6.47813 11.1189L13.112 4.46991C13.6325 3.94752 13.6325 3.10149 13.112 2.5791C12.5915 2.05672 11.7474 2.05672 11.225 2.5791V2.5791Z" fill="#BDC4FB"/>
<path d="M16.7497 8.11704L10.1158 14.7661C9.59528 15.2885 9.59528 16.1345 10.1158 16.6569C10.6363 17.1793 11.4804 17.1793 12.0028 16.6569L18.6367 10.0078C19.1572 9.48546 19.1572 8.63942 18.6367 8.11704C18.1162 7.59465 17.2721 7.59465 16.7497 8.11704Z" fill="#BDC4FB"/>
<path d="M11.9971 7.34302L5.36322 13.9921C4.84273 14.5144 4.84273 15.3605 5.36322 15.8829C5.88371 16.4052 6.72785 16.4052 7.25023 15.8829L13.8841 9.23382C14.4046 8.71144 14.4046 7.8654 13.8841 7.34302C13.3636 6.82064 12.5195 6.82064 11.9971 7.34302V7.34302Z" fill="#BDC4FB"/>
<path d="M17.5218 12.881L10.8879 19.5301C10.3674 20.0525 10.3674 20.8985 10.8879 21.4209C11.4084 21.9433 12.2526 21.9433 12.7749 21.4209L19.4088 14.7718C19.9293 14.2495 19.9293 13.4034 19.4088 12.881C18.8883 12.3587 18.0442 12.3587 17.5218 12.881Z" fill="#BDC4FB"/>
</svg>
