<svg width="33" height="33" viewBox="0 0 33 33" fill="none" xmlns="http://www.w3.org/2000/svg">
<path d="M31.9998 15.9999C31.9998 24.8364 24.8364 31.9998 15.9999 31.9998C7.1634 31.9998 0 24.8364 0 15.9999C0 7.1634 7.1634 0 15.9999 0C24.8364 0 31.9998 7.1634 31.9998 15.9999Z" fill="#7667EB"/>
<path d="M31.1422 15.9997C31.142 7.63708 24.3623 0.857835 15.9997 0.857835C7.63716 0.857957 0.857957 7.63716 0.857835 15.9997C0.857835 24.3623 7.63708 31.142 15.9997 31.1422V32L15.5871 31.9948C6.94135 31.7758 0 24.6981 0 15.9997C0.000121784 7.16335 7.16335 0.000121792 15.9997 0C24.8361 0 31.9999 7.16328 32 15.9997L31.9948 16.4129C31.7757 25.0586 24.6981 32 15.9997 32V31.1422C24.3624 31.1422 31.1422 24.3624 31.1422 15.9997Z" fill="white"/>
<rect x="8.66484" y="8.06433" width="0.857903" height="3.17424" rx="0.428952" fill="white"/>
<rect x="8.66486" y="20.7613" width="0.857903" height="3.17424" rx="0.428952" fill="white"/>
<rect x="10.1233" y="8.06433" width="0.857903" height="3.17424" rx="0.428952" fill="white"/>
<rect x="10.1233" y="20.7613" width="0.857903" height="3.17424" rx="0.428952" fill="white"/>
<rect x="11.5817" y="8.06433" width="0.857903" height="15.8712" rx="0.428952" fill="white"/>
<rect x="11.5817" y="4.28955" width="0.857903" height="3.17424" rx="0.428952" fill="white"/>
<rect x="11.5817" y="24.5361" width="0.857903" height="3.17424" rx="0.428952" fill="white"/>
<rect x="13.0401" y="8.06433" width="0.857903" height="15.8712" rx="0.428952" fill="white"/>
<rect x="13.0401" y="4.28955" width="0.857903" height="3.17424" rx="0.428952" fill="white"/>
<rect x="13.0401" y="24.5361" width="0.857903" height="3.17424" rx="0.428952" fill="white"/>
<rect x="14.4986" y="8.06433" width="0.857903" height="3.17424" rx="0.428952" fill="white"/>
<rect x="14.4986" y="20.7613" width="0.857903" height="3.17424" rx="0.428952" fill="white"/>
<rect x="14.4986" y="14.4128" width="0.857903" height="3.17424" rx="0.428952" fill="white"/>
<rect x="15.957" y="8.06433" width="0.857903" height="3.17424" rx="0.428952" fill="white"/>
<rect x="15.957" y="20.7613" width="0.857903" height="3.17424" rx="0.428952" fill="white"/>
<rect x="15.957" y="14.4128" width="0.857903" height="3.17424" rx="0.428952" fill="white"/>
<rect x="17.4155" y="4.28955" width="0.857903" height="3.17424" rx="0.428952" fill="white"/>
<rect x="17.4155" y="24.5361" width="0.857903" height="3.17424" rx="0.428952" fill="white"/>
<rect x="17.4155" y="8.06433" width="0.857903" height="3.17424" rx="0.428952" fill="white"/>
<rect x="17.4155" y="20.7613" width="0.857903" height="3.17424" rx="0.428952" fill="white"/>
<rect x="17.4155" y="14.4128" width="0.857903" height="3.17424" rx="0.428952" fill="white"/>
<rect x="18.8739" y="8.06433" width="0.857903" height="3.77478" rx="0.428952" fill="white"/>
<rect x="18.8739" y="20.1608" width="0.857903" height="3.77478" rx="0.428952" fill="white"/>
<rect x="18.8739" y="4.28955" width="0.857903" height="3.17424" rx="0.428952" fill="white"/>
<rect x="18.8739" y="24.5361" width="0.857903" height="3.17424" rx="0.428952" fill="white"/>
<rect x="18.8739" y="13.8123" width="0.857903" height="4.37531" rx="0.428952" fill="white"/>
<rect x="20.3323" y="8.06433" width="0.857903" height="15.8712" rx="0.428952" fill="white"/>
<rect x="21.7908" y="9.65143" width="0.857903" height="12.697" rx="0.428952" fill="white"/>
<rect x="23.2492" y="11.2386" width="0.857903" height="3.17424" rx="0.428952" fill="white"/>
<rect x="23.2492" y="17.5871" width="0.857903" height="3.17424" rx="0.428952" fill="white"/>
</svg>
