<svg width="32" height="32" viewBox="0 0 32 32" fill="none" xmlns="http://www.w3.org/2000/svg">
<circle cx="15.4359" cy="16.1026" r="14.8353" fill="black" stroke="#E84142" stroke-width="1.20124"/>
<circle cx="26.9608" cy="6.4267" r="4.62154" fill="#E84142" stroke="#E84142" stroke-width="0.835297"/>
<mask id="mask0_7131_12030" style="mask-type:alpha" maskUnits="userSpaceOnUse" x="22" y="1" width="10" height="10">
<path d="M31.4411 6.41005C31.4411 8.87102 29.4461 10.866 26.9852 10.866C24.5242 10.866 22.5292 8.87102 22.5292 6.41005C22.5292 3.94908 24.5242 1.95407 26.9852 1.95407C29.4461 1.95407 31.4411 3.94908 31.4411 6.41005Z" fill="#E84142"/>
</mask>
<g mask="url(#mask0_7131_12030)">
<rect x="22.5726" y="2.04288" width="8.91333" height="8.91333" rx="4.45667" fill="#E84142"/>
<path fill-rule="evenodd" clip-rule="evenodd" d="M25.7316 8.2731H24.8667C24.685 8.2731 24.5952 8.2731 24.5405 8.23809C24.4813 8.19975 24.4452 8.13626 24.4408 8.06617C24.4376 8.00161 24.4824 7.92275 24.5722 7.76509L26.7078 4.00084C26.7987 3.841 26.8447 3.76107 26.9027 3.73151C26.9651 3.69977 27.0395 3.69977 27.1019 3.73151C27.16 3.76107 27.206 3.841 27.2968 4.00084L27.7358 4.76722L27.7381 4.77113C27.8362 4.94262 27.886 5.02958 27.9077 5.12085C27.9318 5.22048 27.9318 5.32558 27.9077 5.42521C27.8858 5.51718 27.8366 5.60477 27.7369 5.77884L26.6152 7.76181L26.6123 7.76689C26.5135 7.93979 26.4634 8.02742 26.394 8.09353C26.3185 8.16581 26.2276 8.21833 26.128 8.24794C26.0371 8.2731 25.9353 8.2731 25.7316 8.2731ZM27.9158 8.2731H29.1552C29.338 8.2731 29.43 8.2731 29.4847 8.23702C29.5439 8.19868 29.5811 8.13406 29.5844 8.06403C29.5875 8.00155 29.5436 7.92577 29.4576 7.77727C29.4546 7.77221 29.4516 7.76707 29.4486 7.76184L28.8278 6.69986L28.8208 6.6879C28.7335 6.54038 28.6895 6.46589 28.6329 6.4371C28.5706 6.40534 28.4972 6.40534 28.4348 6.4371C28.3779 6.46665 28.3319 6.54439 28.241 6.70095L27.6224 7.76293L27.6203 7.76659C27.5298 7.9229 27.4845 8.00101 27.4878 8.0651C27.4921 8.13519 27.5283 8.19975 27.5874 8.23809C27.641 8.2731 27.733 8.2731 27.9158 8.2731Z" fill="white"/>
</g>
<rect x="22.4117" y="11.4519" width="0.841071" height="3.09667" rx="0.420535" fill="#E84142"/>
<rect x="22.4117" y="17.6833" width="0.841071" height="3.09667" rx="0.420535" fill="#E84142"/>
<rect x="11.2499" y="8.35474" width="0.841071" height="15.5216" rx="0.420535" fill="#E84142"/>
<rect x="11.2499" y="24.297" width="0.841071" height="3.09667" rx="0.420535" fill="#E84142"/>
<rect x="11.2499" y="4.99057" width="0.841071" height="3.09667" rx="0.420535" fill="#E84142"/>
<rect x="12.6638" y="8.35474" width="0.841071" height="15.5216" rx="0.420535" fill="#E84142"/>
<rect x="12.6638" y="24.297" width="0.841071" height="3.09667" rx="0.420535" fill="#E84142"/>
<rect x="12.6638" y="4.99057" width="0.841071" height="3.09667" rx="0.420535" fill="#E84142"/>
<rect x="14.0441" y="8.35468" width="0.841071" height="3.09667" rx="0.420535" fill="#E84142"/>
<rect x="14.0441" y="14.548" width="0.841071" height="3.09667" rx="0.420535" fill="#E84142"/>
<rect x="14.0441" y="20.7797" width="0.841071" height="3.09667" rx="0.420535" fill="#E84142"/>
<rect x="18.2601" y="8.35397" width="0.840866" height="3.12322" rx="0.420433" fill="#E84142"/>
<rect x="18.2601" y="14.5406" width="0.840866" height="3.12322" rx="0.420433" fill="#E84142"/>
<rect x="18.2601" y="20.7867" width="0.840866" height="3.06315" rx="0.420433" fill="#E84142"/>
<rect x="9.86957" y="8.35468" width="0.841071" height="3.09667" rx="0.420535" fill="#E84142"/>
<rect x="9.86957" y="20.7797" width="0.841071" height="3.09667" rx="0.420535" fill="#E84142"/>
<rect x="8.47595" y="8.35468" width="0.841071" height="3.09667" rx="0.420535" fill="#E84142"/>
<rect x="8.47595" y="20.7797" width="0.841071" height="3.09667" rx="0.420535" fill="#E84142"/>
<rect x="15.4387" y="14.548" width="0.841071" height="3.09667" rx="0.420535" fill="#E84142"/>
<rect x="15.4557" y="24.297" width="0.841071" height="3.09667" rx="0.420535" fill="#E84142"/>
<rect x="15.4568" y="4.99054" width="0.841071" height="3.09667" rx="0.420535" fill="#E84142"/>
<rect x="15.4568" y="20.78" width="0.841071" height="3.09667" rx="0.420535" fill="#E84142"/>
<rect x="15.4568" y="8.35474" width="0.841071" height="3.09667" rx="0.420535" fill="#E84142"/>
<rect x="16.8459" y="14.548" width="0.841071" height="3.09667" rx="0.420535" fill="#E84142"/>
<rect x="16.831" y="24.297" width="0.841071" height="3.09667" rx="0.420535" fill="#E84142"/>
<rect x="16.831" y="4.99057" width="0.841071" height="3.09667" rx="0.420535" fill="#E84142"/>
<rect x="16.831" y="20.78" width="0.841071" height="3.09667" rx="0.420535" fill="#E84142"/>
<rect x="16.831" y="8.35474" width="0.841071" height="3.09667" rx="0.420535" fill="#E84142"/>
<rect x="19.6604" y="8.35504" width="0.841071" height="15.5216" rx="0.420535" fill="#E84142"/>
<rect x="21.0365" y="9.96072" width="0.841071" height="12.4249" rx="0.420535" fill="#E84142"/>
</svg>
