<svg width="48" height="48" viewBox="0 0 48 48" fill="none" xmlns="http://www.w3.org/2000/svg">
<circle cx="23.1538" cy="24.1538" r="22.2529" fill="black" stroke="#E84142" stroke-width="1.80186"/>
<circle cx="40.4412" cy="9.64005" r="6.93231" fill="#E84142" stroke="#E84142" stroke-width="1.25294"/>
<mask id="mask0_7131_12030" style="mask-type:alpha" maskUnits="userSpaceOnUse" x="33" y="2" width="15" height="15">
<path d="M47.1617 9.61503C47.1617 13.3065 44.1692 16.299 40.4777 16.299C36.7863 16.299 33.7938 13.3065 33.7938 9.61503C33.7938 5.92357 36.7863 2.93106 40.4777 2.93106C44.1692 2.93106 47.1617 5.92357 47.1617 9.61503Z" fill="#E84142"/>
</mask>
<g mask="url(#mask0_7131_12030)">
<rect x="33.8589" y="3.06427" width="13.37" height="13.37" rx="6.685" fill="#E84142"/>
<path fill-rule="evenodd" clip-rule="evenodd" d="M38.5975 12.4096H37.3002C37.0275 12.4096 36.8929 12.4096 36.8108 12.3571C36.7221 12.2996 36.6679 12.2044 36.6613 12.0992C36.6564 12.0024 36.7237 11.8841 36.8584 11.6476L40.0618 6.00123C40.1981 5.76146 40.267 5.64158 40.3541 5.59724C40.4477 5.54962 40.5594 5.54962 40.653 5.59724C40.74 5.64158 40.809 5.76146 40.9453 6.00123L41.6038 7.1508L41.6072 7.15667C41.7544 7.4139 41.8291 7.54434 41.8617 7.68124C41.8978 7.83069 41.8978 7.98834 41.8617 8.13779C41.8288 8.27574 41.7549 8.40712 41.6055 8.66824L39.9228 11.6427L39.9185 11.6503C39.7703 11.9097 39.6952 12.0411 39.5911 12.1403C39.4778 12.2487 39.3415 12.3275 39.192 12.3719C39.0557 12.4096 38.903 12.4096 38.5975 12.4096ZM41.8738 12.4096H43.7328C44.0071 12.4096 44.145 12.4096 44.2272 12.3555C44.3158 12.298 44.3717 12.2011 44.3766 12.096C44.3814 12.0023 44.3155 11.8886 44.1864 11.6659C44.182 11.6583 44.1775 11.6506 44.173 11.6427L43.2418 10.0498L43.2312 10.0318C43.1003 9.81054 43.0343 9.6988 42.9495 9.65561C42.8559 9.60798 42.7458 9.60798 42.6522 9.65561C42.5668 9.69995 42.4979 9.81655 42.3616 10.0514L41.4337 11.6444L41.4305 11.6499C41.2947 11.8843 41.2268 12.0015 41.2317 12.0976C41.2383 12.2027 41.2925 12.2996 41.3811 12.3571C41.4616 12.4096 41.5996 12.4096 41.8738 12.4096Z" fill="white"/>
</g>
<rect x="33.6177" y="17.178" width="1.26161" height="4.64501" rx="0.630803" fill="#E84142"/>
<rect x="33.6177" y="26.5251" width="1.26161" height="4.64501" rx="0.630803" fill="#E84142"/>
<rect x="16.8749" y="12.5323" width="1.26161" height="23.2824" rx="0.630803" fill="#E84142"/>
<rect x="16.8749" y="36.4457" width="1.26161" height="4.64501" rx="0.630803" fill="#E84142"/>
<rect x="16.8749" y="7.48602" width="1.26161" height="4.64501" rx="0.630803" fill="#E84142"/>
<rect x="18.9956" y="12.5323" width="1.26161" height="23.2824" rx="0.630803" fill="#E84142"/>
<rect x="18.9956" y="36.4457" width="1.26161" height="4.64501" rx="0.630803" fill="#E84142"/>
<rect x="18.9956" y="7.48602" width="1.26161" height="4.64501" rx="0.630803" fill="#E84142"/>
<rect x="21.0662" y="12.5322" width="1.26161" height="4.64501" rx="0.630803" fill="#E84142"/>
<rect x="21.0662" y="21.8222" width="1.26161" height="4.64501" rx="0.630803" fill="#E84142"/>
<rect x="21.0662" y="31.1697" width="1.26161" height="4.64501" rx="0.630803" fill="#E84142"/>
<rect x="27.3901" y="12.5311" width="1.2613" height="4.68482" rx="0.63065" fill="#E84142"/>
<rect x="27.3901" y="21.8111" width="1.2613" height="4.68482" rx="0.63065" fill="#E84142"/>
<rect x="27.3901" y="31.1802" width="1.2613" height="4.59473" rx="0.63065" fill="#E84142"/>
<rect x="14.8043" y="12.5322" width="1.26161" height="4.64501" rx="0.630803" fill="#E84142"/>
<rect x="14.8043" y="31.1697" width="1.26161" height="4.64501" rx="0.630803" fill="#E84142"/>
<rect x="12.7139" y="12.5322" width="1.26161" height="4.64501" rx="0.630803" fill="#E84142"/>
<rect x="12.7139" y="31.1697" width="1.26161" height="4.64501" rx="0.630803" fill="#E84142"/>
<rect x="23.158" y="21.8223" width="1.26161" height="4.64501" rx="0.630803" fill="#E84142"/>
<rect x="23.1835" y="36.4457" width="1.26161" height="4.64501" rx="0.630803" fill="#E84142"/>
<rect x="23.1851" y="7.48605" width="1.26161" height="4.64501" rx="0.630803" fill="#E84142"/>
<rect x="23.1851" y="31.1702" width="1.26161" height="4.64501" rx="0.630803" fill="#E84142"/>
<rect x="23.1851" y="12.5323" width="1.26161" height="4.64501" rx="0.630803" fill="#E84142"/>
<rect x="25.2689" y="21.8223" width="1.26161" height="4.64501" rx="0.630803" fill="#E84142"/>
<rect x="25.2465" y="36.4457" width="1.26161" height="4.64501" rx="0.630803" fill="#E84142"/>
<rect x="25.2465" y="7.48602" width="1.26161" height="4.64501" rx="0.630803" fill="#E84142"/>
<rect x="25.2465" y="31.1702" width="1.26161" height="4.64501" rx="0.630803" fill="#E84142"/>
<rect x="25.2465" y="12.5323" width="1.26161" height="4.64501" rx="0.630803" fill="#E84142"/>
<rect x="29.4906" y="12.5327" width="1.26161" height="23.2824" rx="0.630803" fill="#E84142"/>
<rect x="31.5548" y="14.9412" width="1.26161" height="18.6374" rx="0.630803" fill="#E84142"/>
</svg>
