<svg width="32" height="32" viewBox="0 0 32 32" fill="none" xmlns="http://www.w3.org/2000/svg">
<g clip-path="url(#clip0_863_14015)">
<path d="M31.9374 16.0229C31.9374 24.8595 24.7931 32.0229 15.9802 32.0229C7.16725 32.0229 0.0229492 24.8595 0.0229492 16.0229C0.0229492 7.18639 7.16725 0.0229492 15.9802 0.0229492C24.7931 0.0229492 31.9374 7.18639 31.9374 16.0229Z" fill="#B8BFFB"/>
<path d="M31.1035 16.0228C31.1035 7.64467 24.3299 0.856773 15.9798 0.856773C7.6298 0.856893 0.856827 7.64473 0.856773 16.0228C0.856773 24.4009 7.6298 31.1887 15.9798 31.1888V32.0456C7.1544 32.0455 0 24.8719 0 16.0228C5.34581e-05 7.17373 7.1544 0.000121967 15.9798 0C24.8053 0 31.9602 7.17367 31.9603 16.0228L31.9551 16.4362C31.7365 25.0944 24.6675 32.0456 15.9798 32.0456V31.1888C24.33 31.1888 31.1035 24.4009 31.1035 16.0228Z" fill="black"/>
<path d="M9.08272 8.0542H9.08272C8.84611 8.0542 8.6543 8.24601 8.6543 8.48262V10.7961C8.6543 11.0327 8.84611 11.2245 9.08272 11.2245C9.31933 11.2245 9.51114 11.0327 9.51114 10.7961V8.48262C9.51114 8.24601 9.31933 8.0542 9.08272 8.0542Z" fill="black"/>
<path d="M9.08272 20.7354H9.08272C8.84611 20.7354 8.6543 20.9272 8.6543 21.1638V23.4772C8.6543 23.7138 8.84611 23.9057 9.08272 23.9057C9.31933 23.9057 9.51114 23.7138 9.51114 23.4772V21.1638C9.51114 20.9272 9.31933 20.7354 9.08272 20.7354Z" fill="black"/>
<path d="M10.5393 8.0542H10.5393C10.3026 8.0542 10.1108 8.24601 10.1108 8.48262V10.7961C10.1108 11.0327 10.3026 11.2245 10.5393 11.2245C10.7759 11.2245 10.9677 11.0327 10.9677 10.7961V8.48262C10.9677 8.24601 10.7759 8.0542 10.5393 8.0542Z" fill="black"/>
<path d="M10.5393 20.7354H10.5393C10.3026 20.7354 10.1108 20.9272 10.1108 21.1638V23.4772C10.1108 23.7138 10.3026 23.9057 10.5393 23.9057C10.7759 23.9057 10.9677 23.7138 10.9677 23.4772V21.1638C10.9677 20.9272 10.7759 20.7354 10.5393 20.7354Z" fill="black"/>
<path d="M11.9958 8.0542H11.9958C11.7592 8.0542 11.5674 8.24601 11.5674 8.48262V23.4773C11.5674 23.7139 11.7592 23.9057 11.9958 23.9057C12.2324 23.9057 12.4242 23.7139 12.4242 23.4773V8.48262C12.4242 8.24601 12.2324 8.0542 11.9958 8.0542Z" fill="black"/>
<path d="M11.9958 4.28418H11.9958C11.7592 4.28418 11.5674 4.47599 11.5674 4.7126V7.02607C11.5674 7.26268 11.7592 7.45449 11.9958 7.45449C12.2324 7.45449 12.4242 7.26268 12.4242 7.02607V4.7126C12.4242 4.47599 12.2324 4.28418 11.9958 4.28418Z" fill="black"/>
<path d="M11.9958 24.5056H11.9958C11.7592 24.5056 11.5674 24.6974 11.5674 24.934V27.2475C11.5674 27.4841 11.7592 27.6759 11.9958 27.6759C12.2324 27.6759 12.4242 27.4841 12.4242 27.2475V24.934C12.4242 24.6974 12.2324 24.5056 11.9958 24.5056Z" fill="black"/>
<path d="M13.4523 8.0542H13.4523C13.2157 8.0542 13.0239 8.24601 13.0239 8.48262V23.4773C13.0239 23.7139 13.2157 23.9057 13.4523 23.9057C13.689 23.9057 13.8808 23.7139 13.8808 23.4773V8.48262C13.8808 8.24601 13.689 8.0542 13.4523 8.0542Z" fill="black"/>
<path d="M13.4523 4.28418H13.4523C13.2157 4.28418 13.0239 4.47599 13.0239 4.7126V7.02607C13.0239 7.26268 13.2157 7.45449 13.4523 7.45449C13.689 7.45449 13.8808 7.26268 13.8808 7.02607V4.7126C13.8808 4.47599 13.689 4.28418 13.4523 4.28418Z" fill="black"/>
<path d="M13.4523 24.5056H13.4523C13.2157 24.5056 13.0239 24.6974 13.0239 24.934V27.2475C13.0239 27.4841 13.2157 27.6759 13.4523 27.6759C13.689 27.6759 13.8808 27.4841 13.8808 27.2475V24.934C13.8808 24.6974 13.689 24.5056 13.4523 24.5056Z" fill="black"/>
<path d="M14.9089 8.0542H14.9089C14.6723 8.0542 14.4805 8.24601 14.4805 8.48262V10.7961C14.4805 11.0327 14.6723 11.2245 14.9089 11.2245C15.1455 11.2245 15.3373 11.0327 15.3373 10.7961V8.48262C15.3373 8.24601 15.1455 8.0542 14.9089 8.0542Z" fill="black"/>
<path d="M14.9089 20.7354H14.9089C14.6723 20.7354 14.4805 20.9272 14.4805 21.1638V23.4772C14.4805 23.7138 14.6723 23.9057 14.9089 23.9057C15.1455 23.9057 15.3373 23.7138 15.3373 23.4772V21.1638C15.3373 20.9272 15.1455 20.7354 14.9089 20.7354Z" fill="black"/>
<path d="M14.9089 11.8245H14.9089C14.6723 11.8245 14.4805 12.0163 14.4805 12.2529V14.5663C14.4805 14.803 14.6723 14.9948 14.9089 14.9948C15.1455 14.9948 15.3373 14.803 15.3373 14.5663V12.2529C15.3373 12.0163 15.1455 11.8245 14.9089 11.8245Z" fill="black"/>
<path d="M14.9089 17.0222H14.9089C14.6723 17.0222 14.4805 17.214 14.4805 17.4506V19.7641C14.4805 20.0007 14.6723 20.1925 14.9089 20.1925C15.1455 20.1925 15.3373 20.0007 15.3373 19.7641V17.4506C15.3373 17.214 15.1455 17.0222 14.9089 17.0222Z" fill="black"/>
<path d="M19.279 11.8245H19.279C19.0424 11.8245 18.8506 12.0163 18.8506 12.2529V14.5663C18.8506 14.803 19.0424 14.9948 19.279 14.9948C19.5156 14.9948 19.7074 14.803 19.7074 14.5663V12.2529C19.7074 12.0163 19.5156 11.8245 19.279 11.8245Z" fill="black"/>
<path d="M19.279 17.0222H19.279C19.0424 17.0222 18.8506 17.214 18.8506 17.4506V19.7641C18.8506 20.0007 19.0424 20.1925 19.279 20.1925C19.5156 20.1925 19.7074 20.0007 19.7074 19.7641V17.4506C19.7074 17.214 19.5156 17.0222 19.279 17.0222Z" fill="black"/>
<path d="M16.3654 8.0542H16.3654C16.1288 8.0542 15.937 8.24601 15.937 8.48262V10.7961C15.937 11.0327 16.1288 11.2245 16.3654 11.2245C16.602 11.2245 16.7939 11.0327 16.7939 10.7961V8.48262C16.7939 8.24601 16.602 8.0542 16.3654 8.0542Z" fill="black"/>
<path d="M16.3654 20.7354H16.3654C16.1288 20.7354 15.937 20.9272 15.937 21.1638V23.4772C15.937 23.7138 16.1288 23.9057 16.3654 23.9057C16.602 23.9057 16.7939 23.7138 16.7939 23.4772V21.1638C16.7939 20.9272 16.602 20.7354 16.3654 20.7354Z" fill="black"/>
<path d="M16.3654 14.3948H16.3654C16.1288 14.3948 15.937 14.5866 15.937 14.8232V17.1367C15.937 17.3733 16.1288 17.5651 16.3654 17.5651C16.602 17.5651 16.7939 17.3733 16.7939 17.1367V14.8232C16.7939 14.5866 16.602 14.3948 16.3654 14.3948Z" fill="black"/>
<path d="M17.8225 4.28418H17.8225C17.5859 4.28418 17.394 4.47599 17.394 4.7126V7.02607C17.394 7.26268 17.5859 7.45449 17.8225 7.45449C18.0591 7.45449 18.2509 7.26268 18.2509 7.02607V4.7126C18.2509 4.47599 18.0591 4.28418 17.8225 4.28418Z" fill="black"/>
<path d="M17.8225 24.5056H17.8225C17.5859 24.5056 17.394 24.6974 17.394 24.934V27.2475C17.394 27.4841 17.5859 27.6759 17.8225 27.6759C18.0591 27.6759 18.2509 27.4841 18.2509 27.2475V24.934C18.2509 24.6974 18.0591 24.5056 17.8225 24.5056Z" fill="black"/>
<path d="M17.8225 8.0542H17.8225C17.5859 8.0542 17.394 8.24601 17.394 8.48262V10.7961C17.394 11.0327 17.5859 11.2245 17.8225 11.2245C18.0591 11.2245 18.2509 11.0327 18.2509 10.7961V8.48262C18.2509 8.24601 18.0591 8.0542 17.8225 8.0542Z" fill="black"/>
<path d="M17.8225 20.7354H17.8225C17.5859 20.7354 17.394 20.9272 17.394 21.1638V23.4772C17.394 23.7138 17.5859 23.9057 17.8225 23.9057C18.0591 23.9057 18.2509 23.7138 18.2509 23.4772V21.1638C18.2509 20.9272 18.0591 20.7354 17.8225 20.7354Z" fill="black"/>
<path d="M17.8225 14.3948H17.8225C17.5859 14.3948 17.394 14.5866 17.394 14.8232V17.1367C17.394 17.3733 17.5859 17.5651 17.8225 17.5651C18.0591 17.5651 18.2509 17.3733 18.2509 17.1367V14.8232C18.2509 14.5866 18.0591 14.3948 17.8225 14.3948Z" fill="black"/>
<path d="M19.279 8.0542H19.279C19.0424 8.0542 18.8506 8.24601 18.8506 8.48262V10.7961C18.8506 11.0327 19.0424 11.2245 19.279 11.2245C19.5156 11.2245 19.7074 11.0327 19.7074 10.7961V8.48262C19.7074 8.24601 19.5156 8.0542 19.279 8.0542Z" fill="black"/>
<path d="M19.279 20.7354H19.279C19.0424 20.7354 18.8506 20.9272 18.8506 21.1638V23.4772C18.8506 23.7138 19.0424 23.9057 19.279 23.9057C19.5156 23.9057 19.7074 23.7138 19.7074 23.4772V21.1638C19.7074 20.9272 19.5156 20.7354 19.279 20.7354Z" fill="black"/>
<path d="M19.279 4.28418H19.279C19.0424 4.28418 18.8506 4.47599 18.8506 4.7126V7.02607C18.8506 7.26268 19.0424 7.45449 19.279 7.45449C19.5156 7.45449 19.7074 7.26268 19.7074 7.02607V4.7126C19.7074 4.47599 19.5156 4.28418 19.279 4.28418Z" fill="black"/>
<path d="M19.279 24.5056H19.279C19.0424 24.5056 18.8506 24.6974 18.8506 24.934V27.2475C18.8506 27.4841 19.0424 27.6759 19.279 27.6759C19.5156 27.6759 19.7074 27.4841 19.7074 27.2475V24.934C19.7074 24.6974 19.5156 24.5056 19.279 24.5056Z" fill="black"/>
<path d="M20.7355 8.0542H20.7355C20.4989 8.0542 20.3071 8.24601 20.3071 8.48262V23.4773C20.3071 23.7139 20.4989 23.9057 20.7355 23.9057C20.9722 23.9057 21.164 23.7139 21.164 23.4773V8.48262C21.164 8.24601 20.9722 8.0542 20.7355 8.0542Z" fill="black"/>
<path d="M22.6205 10.0678C22.6205 9.83121 22.4287 9.6394 22.1921 9.6394C21.9555 9.6394 21.7637 9.83121 21.7637 10.0678V21.8922C21.7637 22.1288 21.9555 22.3206 22.1921 22.3206C22.4287 22.3206 22.6205 22.1288 22.6205 21.8922V10.0678Z" fill="black"/>
<path d="M24.0771 11.653C24.0771 11.4164 23.8852 11.2246 23.6486 11.2246C23.412 11.2246 23.2202 11.4164 23.2202 11.653V13.9665C23.2202 14.2031 23.412 14.3949 23.6486 14.3949C23.8852 14.3949 24.0771 14.2031 24.0771 13.9665V11.653Z" fill="black"/>
<path d="M24.0771 17.9936C24.0771 17.757 23.8852 17.5652 23.6486 17.5652C23.412 17.5652 23.2202 17.757 23.2202 17.9936V20.3071C23.2202 20.5437 23.412 20.7355 23.6486 20.7355C23.8852 20.7355 24.0771 20.5437 24.0771 20.3071V17.9936Z" fill="black"/>
</g>
<defs>
<clipPath id="clip0_863_14015">
<rect width="32" height="32" fill="white"/>
</clipPath>
</defs>
</svg>
