<svg width="49" height="48" viewBox="0 0 49 48" fill="none" xmlns="http://www.w3.org/2000/svg">
<circle cx="23.1537" cy="24.1537" r="22.2528" fill="black" stroke="#EC796B" stroke-width="1.80185"/>
<rect x="33.6445" y="17.2064" width="1.20425" height="4.58763" rx="0.602127" fill="#EC796B" stroke="#EC796B" stroke-width="0.0573454"/>
<rect x="33.6445" y="26.5535" width="1.20425" height="4.58763" rx="0.602127" fill="#EC796B" stroke="#EC796B" stroke-width="0.0573454"/>
<rect x="16.9019" y="12.5611" width="1.20425" height="23.2249" rx="0.602127" fill="#EC796B" stroke="#EC796B" stroke-width="0.0573454"/>
<rect x="16.9019" y="36.4744" width="1.20425" height="4.58763" rx="0.602127" fill="#EC796B" stroke="#EC796B" stroke-width="0.0573454"/>
<rect x="16.9019" y="7.51494" width="1.20425" height="4.58763" rx="0.602127" fill="#EC796B" stroke="#EC796B" stroke-width="0.0573454"/>
<rect x="19.0245" y="12.5611" width="1.20425" height="23.2249" rx="0.602127" fill="#EC796B" stroke="#EC796B" stroke-width="0.0573454"/>
<rect x="19.0245" y="36.4744" width="1.20425" height="4.58763" rx="0.602127" fill="#EC796B" stroke="#EC796B" stroke-width="0.0573454"/>
<rect x="19.0245" y="7.51494" width="1.20425" height="4.58763" rx="0.602127" fill="#EC796B" stroke="#EC796B" stroke-width="0.0573454"/>
<rect x="21.095" y="12.5614" width="1.20425" height="4.58763" rx="0.602127" fill="#EC796B" stroke="#EC796B" stroke-width="0.0573454"/>
<rect x="21.095" y="21.8514" width="1.20425" height="4.58763" rx="0.602127" fill="#EC796B" stroke="#EC796B" stroke-width="0.0573454"/>
<rect x="21.095" y="31.1988" width="1.20425" height="4.58763" rx="0.602127" fill="#EC796B" stroke="#EC796B" stroke-width="0.0573454"/>
<rect x="27.4176" y="12.56" width="1.20395" height="4.62745" rx="0.601973" fill="#EC796B" stroke="#EC796B" stroke-width="0.0573454"/>
<rect x="27.4176" y="21.84" width="1.20395" height="4.62745" rx="0.601973" fill="#EC796B" stroke="#EC796B" stroke-width="0.0573454"/>
<rect x="27.4176" y="31.209" width="1.20395" height="4.53736" rx="0.601973" fill="#EC796B" stroke="#EC796B" stroke-width="0.0573454"/>
<rect x="14.8313" y="12.5614" width="1.20425" height="4.58763" rx="0.602127" fill="#EC796B" stroke="#EC796B" stroke-width="0.0573454"/>
<rect x="14.8313" y="31.1988" width="1.20425" height="4.58763" rx="0.602127" fill="#EC796B" stroke="#EC796B" stroke-width="0.0573454"/>
<rect x="12.7428" y="12.5614" width="1.20425" height="4.58763" rx="0.602127" fill="#EC796B" stroke="#EC796B" stroke-width="0.0573454"/>
<rect x="12.7428" y="31.1988" width="1.20425" height="4.58763" rx="0.602127" fill="#EC796B" stroke="#EC796B" stroke-width="0.0573454"/>
<rect x="23.1849" y="21.8511" width="1.20425" height="4.58763" rx="0.602127" fill="#EC796B" stroke="#EC796B" stroke-width="0.0573454"/>
<rect x="23.2105" y="36.4744" width="1.20425" height="4.58763" rx="0.602127" fill="#EC796B" stroke="#EC796B" stroke-width="0.0573454"/>
<rect x="23.2121" y="7.51494" width="1.20425" height="4.58763" rx="0.602127" fill="#EC796B" stroke="#EC796B" stroke-width="0.0573454"/>
<rect x="23.2121" y="31.199" width="1.20425" height="4.58763" rx="0.602127" fill="#EC796B" stroke="#EC796B" stroke-width="0.0573454"/>
<rect x="23.2121" y="12.5611" width="1.20425" height="4.58763" rx="0.602127" fill="#EC796B" stroke="#EC796B" stroke-width="0.0573454"/>
<rect x="25.2977" y="21.8511" width="1.20425" height="4.58763" rx="0.602127" fill="#EC796B" stroke="#EC796B" stroke-width="0.0573454"/>
<rect x="25.2753" y="36.4744" width="1.20425" height="4.58763" rx="0.602127" fill="#EC796B" stroke="#EC796B" stroke-width="0.0573454"/>
<rect x="25.2753" y="7.51494" width="1.20425" height="4.58763" rx="0.602127" fill="#EC796B" stroke="#EC796B" stroke-width="0.0573454"/>
<rect x="25.2753" y="31.199" width="1.20425" height="4.58763" rx="0.602127" fill="#EC796B" stroke="#EC796B" stroke-width="0.0573454"/>
<rect x="25.2753" y="12.5611" width="1.20425" height="4.58763" rx="0.602127" fill="#EC796B" stroke="#EC796B" stroke-width="0.0573454"/>
<rect x="29.5175" y="12.5613" width="1.20425" height="23.2249" rx="0.602127" fill="#EC796B" stroke="#EC796B" stroke-width="0.0573454"/>
<rect x="31.5817" y="14.9701" width="1.20425" height="18.5799" rx="0.602127" fill="#EC796B" stroke="#EC796B" stroke-width="0.0573454"/>
<path d="M33.1914 9.5599C33.1914 13.6295 36.4904 16.9284 40.5599 16.9284C44.6295 16.9284 47.9286 13.6294 47.9286 9.5599C47.9286 5.49036 44.6295 2.19141 40.5599 2.19141C36.4904 2.19141 33.1914 5.49035 33.1914 9.5599Z" fill="#0C0C4F"/>
<path fill-rule="evenodd" clip-rule="evenodd" d="M37.7561 8.07336L37.9112 7.59424C37.9427 7.49679 38.0197 7.42096 38.1175 7.39106L38.5989 7.243C38.6656 7.22265 38.6661 7.12862 38.6 7.10719L38.1207 6.9521C38.0234 6.92059 37.9476 6.84367 37.9175 6.74587L37.7696 6.26441C37.7493 6.19794 37.6553 6.19722 37.6338 6.2635L37.4788 6.74263C37.4472 6.83989 37.3703 6.91572 37.2725 6.94581L36.7911 7.09368C36.7244 7.11421 36.7237 7.20806 36.79 7.22949L37.2693 7.38457C37.3665 7.4161 37.4424 7.49319 37.4724 7.59099L37.6203 8.07228C37.6407 8.13892 37.7347 8.13964 37.7561 8.07336Z" fill="#FAFAFA"/>
<path fill-rule="evenodd" clip-rule="evenodd" d="M45.3661 7.79451C45.1677 7.57256 44.8579 7.44759 44.5567 7.39635C44.2532 7.34713 43.9349 7.35169 43.6352 7.40494C43.0288 7.50751 42.478 7.75858 41.9975 8.06832C41.748 8.22033 41.5352 8.39622 41.3148 8.57536C41.2086 8.66595 41.1117 8.76243 41.0109 8.85753L40.7353 9.13171C40.4359 9.4447 40.1407 9.72977 39.8552 9.96607C39.5685 10.2013 39.3004 10.3799 39.0363 10.5047C38.7723 10.63 38.4898 10.7038 38.1216 10.7156C37.7566 10.7285 37.3249 10.6626 36.863 10.5539C36.3987 10.4456 35.911 10.2914 35.3661 10.1586C35.5563 10.686 35.8426 11.1522 36.2102 11.5783C36.5821 11.997 37.0464 12.3785 37.643 12.6295C38.231 12.8861 38.9698 12.9781 39.6607 12.8392C40.3534 12.7059 40.9612 12.3854 41.4526 12.0146C41.9452 11.6401 42.3437 11.2136 42.6797 10.7701C42.7725 10.6475 42.8215 10.579 42.8886 10.4832L43.0742 10.2084C43.2031 10.0384 43.3205 9.84489 43.448 9.67649C43.6982 9.32378 43.9449 8.97148 44.2315 8.64691C44.3758 8.48228 44.5279 8.32482 44.7074 8.17349C44.797 8.09963 44.8938 8.02734 45.001 7.96223C45.1098 7.89199 45.2247 7.83702 45.3661 7.79451Z" fill="url(#paint0_linear_7528_11687)"/>
<path fill-rule="evenodd" clip-rule="evenodd" d="M45.3661 7.79447C45.1529 7.25641 44.7565 6.80349 44.2244 6.46927C43.6956 6.13872 42.9611 5.97003 42.2332 6.11383C41.8737 6.18337 41.5253 6.31726 41.2196 6.49555C40.9153 6.67314 40.6426 6.88692 40.4065 7.11626C40.2886 7.23131 40.1816 7.35133 40.0754 7.47203L39.7999 7.82322L39.3745 8.38855C38.8321 9.11591 38.248 9.96834 37.2895 10.2209C36.3486 10.4689 35.9405 10.2493 35.3661 10.1586C35.4712 10.4297 35.6012 10.6929 35.7776 10.9246C35.9506 11.1609 36.155 11.3828 36.4092 11.5731C36.5376 11.6645 36.6732 11.7546 36.8238 11.8311C36.9737 11.905 37.1353 11.9701 37.3079 12.019C37.6511 12.1131 38.0375 12.1461 38.4117 12.0954C38.786 12.0455 39.1438 11.9269 39.4565 11.7694C39.7715 11.6132 40.046 11.4232 40.291 11.2226C40.7782 10.8181 41.1571 10.3711 41.4771 9.9193C41.6381 9.6934 41.7842 9.46324 41.9194 9.23302L42.0785 8.95893C42.1271 8.87881 42.1763 8.7982 42.2262 8.72313C42.4278 8.42149 42.6249 8.17963 42.8644 7.9981C43.1005 7.81187 43.4293 7.67427 43.8687 7.64231C44.3062 7.60996 44.8114 7.66972 45.3661 7.79447Z" fill="#FAFAFA"/>
<path fill-rule="evenodd" clip-rule="evenodd" d="M42.9989 12.265C42.9989 12.6603 43.3195 12.9808 43.7147 12.9808C44.1099 12.9808 44.43 12.6603 44.43 12.265C44.43 11.8699 44.1099 11.5493 43.7147 11.5493C43.3195 11.5493 42.9989 11.8699 42.9989 12.265Z" fill="url(#paint1_linear_7528_11687)"/>
<circle cx="40.5587" cy="9.55874" r="6.93227" stroke="#EC796B" stroke-width="1.25294"/>
<defs>
<linearGradient id="paint0_linear_7528_11687" x1="45.3127" y1="7.60572" x2="36.5113" y2="12.4961" gradientUnits="userSpaceOnUse">
<stop stop-color="#EC796B"/>
<stop offset="1" stop-color="#E175B1"/>
</linearGradient>
<linearGradient id="paint1_linear_7528_11687" x1="44.4295" y1="11.763" x2="42.998" y2="11.9144" gradientUnits="userSpaceOnUse">
<stop stop-color="#EC796B"/>
<stop offset="1" stop-color="#E175B1"/>
</linearGradient>
</defs>
</svg>
