<svg width="33" height="32" viewBox="0 0 33 32" fill="none" xmlns="http://www.w3.org/2000/svg">
<circle cx="15.4358" cy="16.1025" r="14.8352" fill="black" stroke="#EC796B" stroke-width="1.20123"/>
<rect x="22.4297" y="11.471" width="0.802836" height="3.05842" rx="0.401418" fill="#EC796B" stroke="#EC796B" stroke-width="0.0382303"/>
<rect x="22.4297" y="17.7023" width="0.802836" height="3.05842" rx="0.401418" fill="#EC796B" stroke="#EC796B" stroke-width="0.0382303"/>
<rect x="11.268" y="8.37403" width="0.802836" height="15.4833" rx="0.401418" fill="#EC796B" stroke="#EC796B" stroke-width="0.0382303"/>
<rect x="11.268" y="24.3163" width="0.802836" height="3.05842" rx="0.401418" fill="#EC796B" stroke="#EC796B" stroke-width="0.0382303"/>
<rect x="11.268" y="5.00996" width="0.802836" height="3.05842" rx="0.401418" fill="#EC796B" stroke="#EC796B" stroke-width="0.0382303"/>
<rect x="12.683" y="8.37403" width="0.802836" height="15.4833" rx="0.401418" fill="#EC796B" stroke="#EC796B" stroke-width="0.0382303"/>
<rect x="12.683" y="24.3163" width="0.802836" height="3.05842" rx="0.401418" fill="#EC796B" stroke="#EC796B" stroke-width="0.0382303"/>
<rect x="12.683" y="5.00996" width="0.802836" height="3.05842" rx="0.401418" fill="#EC796B" stroke="#EC796B" stroke-width="0.0382303"/>
<rect x="14.0634" y="8.37428" width="0.802836" height="3.05842" rx="0.401418" fill="#EC796B" stroke="#EC796B" stroke-width="0.0382303"/>
<rect x="14.0634" y="14.5676" width="0.802836" height="3.05842" rx="0.401418" fill="#EC796B" stroke="#EC796B" stroke-width="0.0382303"/>
<rect x="14.0634" y="20.7992" width="0.802836" height="3.05842" rx="0.401418" fill="#EC796B" stroke="#EC796B" stroke-width="0.0382303"/>
<rect x="18.2784" y="8.3733" width="0.802631" height="3.08497" rx="0.401316" fill="#EC796B" stroke="#EC796B" stroke-width="0.0382303"/>
<rect x="18.2784" y="14.5599" width="0.802631" height="3.08497" rx="0.401316" fill="#EC796B" stroke="#EC796B" stroke-width="0.0382303"/>
<rect x="18.2784" y="20.806" width="0.802631" height="3.02491" rx="0.401316" fill="#EC796B" stroke="#EC796B" stroke-width="0.0382303"/>
<rect x="9.88755" y="8.37428" width="0.802836" height="3.05842" rx="0.401418" fill="#EC796B" stroke="#EC796B" stroke-width="0.0382303"/>
<rect x="9.88754" y="20.7992" width="0.802836" height="3.05842" rx="0.401418" fill="#EC796B" stroke="#EC796B" stroke-width="0.0382303"/>
<rect x="8.4952" y="8.37428" width="0.802836" height="3.05842" rx="0.401418" fill="#EC796B" stroke="#EC796B" stroke-width="0.0382303"/>
<rect x="8.4952" y="20.7992" width="0.802836" height="3.05842" rx="0.401418" fill="#EC796B" stroke="#EC796B" stroke-width="0.0382303"/>
<rect x="15.4566" y="14.5674" width="0.802836" height="3.05842" rx="0.401418" fill="#EC796B" stroke="#EC796B" stroke-width="0.0382303"/>
<rect x="15.4737" y="24.3163" width="0.802836" height="3.05842" rx="0.401418" fill="#EC796B" stroke="#EC796B" stroke-width="0.0382303"/>
<rect x="15.4747" y="5.00996" width="0.802836" height="3.05842" rx="0.401418" fill="#EC796B" stroke="#EC796B" stroke-width="0.0382303"/>
<rect x="15.4747" y="20.7993" width="0.802836" height="3.05842" rx="0.401418" fill="#EC796B" stroke="#EC796B" stroke-width="0.0382303"/>
<rect x="15.4747" y="8.37403" width="0.802836" height="3.05842" rx="0.401418" fill="#EC796B" stroke="#EC796B" stroke-width="0.0382303"/>
<rect x="16.8652" y="14.5674" width="0.802836" height="3.05842" rx="0.401418" fill="#EC796B" stroke="#EC796B" stroke-width="0.0382303"/>
<rect x="16.8502" y="24.3163" width="0.802836" height="3.05842" rx="0.401418" fill="#EC796B" stroke="#EC796B" stroke-width="0.0382303"/>
<rect x="16.8502" y="5.00996" width="0.802836" height="3.05842" rx="0.401418" fill="#EC796B" stroke="#EC796B" stroke-width="0.0382303"/>
<rect x="16.8502" y="20.7993" width="0.802836" height="3.05842" rx="0.401418" fill="#EC796B" stroke="#EC796B" stroke-width="0.0382303"/>
<rect x="16.8502" y="8.37403" width="0.802836" height="3.05842" rx="0.401418" fill="#EC796B" stroke="#EC796B" stroke-width="0.0382303"/>
<rect x="19.6784" y="8.37416" width="0.802836" height="15.4833" rx="0.401418" fill="#EC796B" stroke="#EC796B" stroke-width="0.0382303"/>
<rect x="21.0545" y="9.98011" width="0.802836" height="12.3866" rx="0.401418" fill="#EC796B" stroke="#EC796B" stroke-width="0.0382303"/>
<g clip-path="url(#clip0_7528_11687)">
<path d="M22.1276 6.37327C22.1276 9.08633 24.3269 11.2856 27.0399 11.2856C29.753 11.2856 31.9524 9.08627 31.9524 6.37327C31.9524 3.66024 29.753 1.46094 27.0399 1.46094C24.3269 1.46094 22.1276 3.66023 22.1276 6.37327Z" fill="#0C0C4F"/>
<path fill-rule="evenodd" clip-rule="evenodd" d="M25.1708 5.38222L25.2741 5.06281C25.2952 4.99784 25.3464 4.94729 25.4116 4.92735L25.7326 4.82865C25.777 4.81508 25.7774 4.7524 25.7333 4.73811L25.4138 4.63472C25.349 4.61371 25.2984 4.56243 25.2784 4.49722L25.1798 4.17625C25.1662 4.13194 25.1035 4.13146 25.0892 4.17565L24.9858 4.49507C24.9648 4.5599 24.9135 4.61046 24.8483 4.63052L24.5274 4.7291C24.4829 4.74279 24.4825 4.80535 24.5266 4.81964L24.8462 4.92303C24.911 4.94404 24.9616 4.99544 24.9816 5.06064L25.0802 5.3815C25.0938 5.42592 25.1565 5.42641 25.1708 5.38222Z" fill="#FAFAFA"/>
<path fill-rule="evenodd" clip-rule="evenodd" d="M30.2441 5.19632C30.1118 5.04835 29.9053 4.96504 29.7045 4.93088C29.5021 4.89807 29.2899 4.90111 29.0902 4.9366C28.6859 5.00498 28.3187 5.17237 27.9983 5.37886C27.832 5.4802 27.6902 5.59746 27.5432 5.71689C27.4724 5.77728 27.4078 5.8416 27.3406 5.905L27.1569 6.08779C26.9573 6.29644 26.7605 6.4865 26.5701 6.64402C26.379 6.80082 26.2003 6.91991 26.0242 7.00308C25.8482 7.08668 25.6599 7.13584 25.4144 7.14371C25.1711 7.15229 24.8832 7.10838 24.5753 7.0359C24.2658 6.96374 23.9407 6.86088 23.5774 6.77238C23.7042 7.12401 23.8951 7.43476 24.1401 7.71883C24.388 7.99796 24.6976 8.25234 25.0953 8.41965C25.4873 8.59068 25.9799 8.65208 26.4405 8.55946C26.9023 8.47055 27.3075 8.25689 27.6351 8.00973C27.9635 7.76008 28.2292 7.47569 28.4532 7.18003C28.515 7.09834 28.5477 7.05262 28.5924 6.98878L28.7161 6.80558C28.8021 6.69226 28.8803 6.56324 28.9654 6.45097C29.1321 6.21583 29.2966 5.98097 29.4877 5.76458C29.5838 5.65484 29.6853 5.54986 29.805 5.44897C29.8647 5.39973 29.9292 5.35154 30.0007 5.30813C30.0732 5.26131 30.1498 5.22466 30.2441 5.19632Z" fill="url(#paint0_linear_7528_11687)"/>
<path fill-rule="evenodd" clip-rule="evenodd" d="M30.2441 5.1963C30.102 4.83759 29.8377 4.53564 29.4829 4.31283C29.1304 4.09246 28.6407 3.98 28.1555 4.07587C27.9158 4.12223 27.6835 4.21149 27.4797 4.33035C27.2768 4.44874 27.095 4.59126 26.9377 4.74415C26.8591 4.82086 26.7878 4.90087 26.7169 4.98134L26.5333 5.21546L26.2496 5.59235C25.8881 6.07726 25.4987 6.64554 24.8597 6.81392C24.2324 6.97923 23.9603 6.83283 23.5774 6.77235C23.6474 6.95308 23.7342 7.12861 23.8517 7.28302C23.9671 7.44056 24.1034 7.58851 24.2728 7.71537C24.3584 7.77629 24.4488 7.83641 24.5492 7.88741C24.6491 7.93666 24.7569 7.98003 24.8719 8.01264C25.1007 8.07535 25.3584 8.09736 25.6078 8.06358C25.8573 8.03029 26.0958 7.95124 26.3043 7.84622C26.5144 7.74215 26.6973 7.61544 26.8607 7.48174C27.1854 7.21204 27.438 6.91406 27.6514 6.61285C27.7587 6.46225 27.8562 6.30881 27.9463 6.15533L28.0523 5.9726C28.0847 5.91919 28.1175 5.86545 28.1508 5.8154C28.2852 5.61431 28.4166 5.45307 28.5763 5.33204C28.7337 5.20789 28.9529 5.11616 29.2458 5.09485C29.5375 5.07329 29.8743 5.11312 30.2441 5.1963Z" fill="#FAFAFA"/>
<path fill-rule="evenodd" clip-rule="evenodd" d="M28.666 8.17667C28.666 8.44016 28.8797 8.65382 29.1431 8.65382C29.4066 8.65382 29.62 8.44016 29.62 8.17667C29.62 7.91323 29.4066 7.69952 29.1431 7.69952C28.8797 7.69952 28.666 7.91323 28.666 8.17667Z" fill="url(#paint1_linear_7528_11687)"/>
</g>
<circle cx="27.0392" cy="6.37247" r="4.62151" stroke="#EC796B" stroke-width="0.835292"/>
<defs>
<linearGradient id="paint0_linear_7528_11687" x1="30.2085" y1="5.07046" x2="24.3409" y2="8.33069" gradientUnits="userSpaceOnUse">
<stop stop-color="#EC796B"/>
<stop offset="1" stop-color="#E175B1"/>
</linearGradient>
<linearGradient id="paint1_linear_7528_11687" x1="29.6197" y1="7.84198" x2="28.6653" y2="7.94292" gradientUnits="userSpaceOnUse">
<stop stop-color="#EC796B"/>
<stop offset="1" stop-color="#E175B1"/>
</linearGradient>
<clipPath id="clip0_7528_11687">
<rect width="10.08" height="10.08" fill="white" transform="translate(22 1.33331)"/>
</clipPath>
</defs>
</svg>
