<svg width="372" height="144" viewBox="0 0 372 144" fill="none" xmlns="http://www.w3.org/2000/svg">
<path d="M145.301 89.9284C146.976 95.4523 150.632 98.8105 157.839 98.8105C163.758 98.8105 168.002 96.145 168.002 91.5066C168.002 86.8683 163.065 85.3864 155.761 83.6153L152.114 82.6244C143.53 80.5552 137.111 76.7059 137.111 67.7185C137.111 58.7311 145.406 52.5233 156.954 52.5233C168.502 52.5233 175.902 57.4597 177.086 67.6221H167.607C166.125 62.9837 162.671 60.4146 156.647 60.4146C150.334 60.4146 147.274 62.9837 147.274 66.8329C147.274 71.0767 150.334 72.2604 156.647 74.1368L162.171 75.7151C172.535 78.6788 177.962 81.8353 177.962 90.5158C177.962 100.485 169.378 106.904 157.533 106.904C144.898 106.904 137.497 101.476 135.419 89.9284H145.292H145.301Z" fill="black"/>
<path d="M235.709 79.9589C235.709 95.7504 225.932 107 209.352 107C192.771 107 183.293 95.7504 183.293 79.9589C183.293 64.1674 193.359 52.5233 209.545 52.5233C225.731 52.5233 235.7 63.8693 235.7 79.9589M193.85 79.8625C193.85 91.4102 199.374 98.7141 209.247 98.7141C219.12 98.7141 224.74 91.4102 224.74 79.8625C224.74 68.3148 219.014 60.8092 209.247 60.8092C199.479 60.8092 193.85 68.8058 193.85 79.8625Z" fill="black"/>
<path d="M254.754 35.1534H244.784V105.729H254.754V35.1534Z" fill="black"/>
<path d="M280.718 105.72L261.375 53.8998H272.721L280.814 77.4862L286.54 94.9525H286.742C289.109 87.745 290.793 83.9923 293.16 76.399L300.762 53.8911H311.521L291.582 105.711H280.727L280.718 105.72Z" fill="black"/>
<path d="M83.2831 36.3985L59.4073 60.2743C57.5309 62.1507 57.5309 65.1845 59.4073 67.0609C61.2837 68.9373 64.3175 68.9373 66.1939 67.0609L90.0609 43.1939C91.9373 41.3175 91.9373 38.2837 90.0609 36.4073C88.1845 34.5309 85.1507 34.5309 83.2743 36.4073" fill="black"/>
<path d="M103.159 56.2847L79.2923 80.1518C77.4159 82.0281 77.4159 85.0619 79.2923 86.9383C81.1687 88.8147 84.2025 88.8147 86.0789 86.9383L109.946 63.0713C111.822 61.1949 111.822 58.1611 109.946 56.2847C108.07 54.4083 105.036 54.4083 103.159 56.2847Z" fill="black"/>
<path d="M86.0619 53.5052L62.1949 77.3722C60.3185 79.2486 60.3185 82.2824 62.1949 84.1588C64.0713 86.0352 67.1051 86.0352 68.9815 84.1588L92.8485 60.2918C94.7249 58.4154 94.7249 55.3816 92.8485 53.5052C90.9721 51.6288 87.9383 51.6288 86.0619 53.5052Z" fill="black"/>
<path d="M105.939 73.3827L82.0716 97.2497C80.1952 99.1261 80.1952 102.16 82.0716 104.036C83.948 105.913 86.9818 105.913 88.8582 104.036L112.725 80.1693C114.602 78.2929 114.602 75.2591 112.725 73.3827C110.849 71.5063 107.815 71.5063 105.939 73.3827Z" fill="black"/>
</svg>
