<svg width="144" height="144" viewBox="0 0 144 144" fill="none" xmlns="http://www.w3.org/2000/svg">
<g clip-path="url(#clip0_13_1161)">
<path d="M68.4297 28.6491L37.8291 59.2497C35.4272 61.6517 35.4272 65.5461 37.8291 67.948C40.2311 70.35 44.1255 70.35 46.5274 67.948L77.128 37.3474C79.53 34.9455 79.53 31.0511 77.128 28.6491C74.726 26.2472 70.8317 26.2472 68.4297 28.6491Z" fill="white"/>
<path d="M93.9131 54.1362L63.3125 84.7368C60.9106 87.1388 60.9106 91.0331 63.3125 93.4351C65.7145 95.8371 69.6089 95.8371 72.0108 93.4351L102.611 62.8345C105.013 60.4325 105.013 56.5382 102.611 54.1362C100.209 51.7342 96.3151 51.7342 93.9131 54.1362Z" fill="white"/>
<path d="M71.9925 50.5694L41.3919 81.17C38.9899 83.572 38.9899 87.4663 41.3919 89.8683C43.7938 92.2703 47.6882 92.2703 50.0902 89.8683L80.6907 59.2677C83.0927 56.8658 83.0927 52.9714 80.6907 50.5694C78.2888 48.1675 74.3944 48.1675 71.9925 50.5694Z" fill="white"/>
<path d="M97.4724 76.0536L66.8719 106.654C64.4699 109.056 64.4699 112.951 66.8719 115.353C69.2738 117.754 73.1682 117.754 75.5701 115.353L106.171 84.7519C108.573 82.35 108.573 78.4556 106.171 76.0536C103.769 73.6517 99.8744 73.6517 97.4724 76.0536Z" fill="white"/>
</g>
<defs>
<clipPath id="clip0_13_1161">
<rect width="144" height="144" fill="white"/>
</clipPath>
</defs>
</svg>
