<svg width="112" height="112" viewBox="0 0 112 112" fill="none" xmlns="http://www.w3.org/2000/svg">
<g clip-path="url(#clip0_13_1207)">
<path d="M0 56C0 86.9279 25.0721 112 56 112C86.9279 112 112 86.9279 112 56C112 25.0721 86.9279 0 56 0C25.0721 0 0 25.0721 0 56Z" fill="#8F4AFF"/>
<path d="M53.2222 22.2826L29.4217 46.083C27.5535 47.9512 27.5535 50.9802 29.4217 52.8484C31.2899 54.7166 34.3189 54.7166 36.1871 52.8484L59.9875 29.0479C61.8557 27.1797 61.8557 24.1508 59.9875 22.2826C58.1193 20.4144 55.0904 20.4144 53.2222 22.2826Z" fill="white"/>
<path d="M73.0425 42.1059L49.242 65.9063C47.3738 67.7745 47.3738 70.8035 49.242 72.6717C51.1102 74.5399 54.1392 74.5399 56.0074 72.6717L79.8078 48.8712C81.676 47.003 81.676 43.9741 79.8078 42.1059C77.9396 40.2377 74.9107 40.2377 73.0425 42.1059Z" fill="white"/>
<path d="M55.9932 39.3317L32.1927 63.1322C30.3245 65.0004 30.3245 68.0293 32.1927 69.8975C34.0609 71.7657 37.0899 71.7657 38.9581 69.8975L62.7585 46.097C64.6267 44.2288 64.6267 41.1999 62.7585 39.3317C60.8903 37.4635 57.8614 37.4635 55.9932 39.3317Z" fill="white"/>
<path d="M75.8115 59.1526L52.0111 82.9531C50.1429 84.8213 50.1429 87.8502 52.0111 89.7184C53.8793 91.5866 56.9082 91.5866 58.7764 89.7184L82.5769 65.918C84.4451 64.0498 84.4451 61.0208 82.5769 59.1526C80.7087 57.2844 77.6797 57.2844 75.8115 59.1526Z" fill="white"/>
</g>
<defs>
<clipPath id="clip0_13_1207">
<rect width="112" height="112" fill="white"/>
</clipPath>
</defs>
</svg>
