<svg width="33" height="33" viewBox="0 0 33 33" fill="none" xmlns="http://www.w3.org/2000/svg">
<path d="M31.9998 15.9999C31.9998 24.8364 24.8364 31.9998 15.9999 31.9998C7.1634 31.9998 0 24.8364 0 15.9999C0 7.1634 7.1634 0 15.9999 0C24.8364 0 31.9998 7.1634 31.9998 15.9999Z" fill="black"/>
<path d="M31.1422 15.9997C31.142 7.63708 24.3623 0.857835 15.9997 0.857835C7.63716 0.857957 0.857957 7.63716 0.857835 15.9997C0.857835 24.3623 7.63708 31.142 15.9997 31.1422V32L15.5871 31.9948C6.94135 31.7758 0 24.6981 0 15.9997C0.000121784 7.16335 7.16335 0.000121792 15.9997 0C24.8361 0 31.9999 7.16328 32 15.9997L31.9948 16.4129C31.7757 25.0586 24.6981 32 15.9997 32V31.1422C24.3624 31.1422 31.1422 24.3624 31.1422 15.9997Z" fill="#B8BFFB"/>
<path d="M8.66483 8.49496C8.66483 8.25806 8.85687 8.06601 9.09378 8.06601V8.06601C9.33068 8.06601 9.52273 8.25806 9.52273 8.49496V10.8113C9.52273 11.0482 9.33068 11.2403 9.09378 11.2403V11.2403C8.85687 11.2403 8.66483 11.0482 8.66483 10.8113V8.49496Z" fill="#B8BFFB" fill-opacity="0.6"/>
<path d="M10.1233 8.49334C10.1233 8.25644 10.3153 8.06439 10.5522 8.06439V8.06439C10.7891 8.06439 10.9812 8.25644 10.9812 8.49334V10.8097C10.9812 11.0466 10.7891 11.2386 10.5522 11.2386V11.2386C10.3153 11.2386 10.1233 11.0466 10.1233 10.8097V8.49334Z" fill="#B8BFFB" fill-opacity="0.6"/>
<path d="M13.0401 24.965C13.0401 24.7281 13.2321 24.536 13.4691 24.536V24.536C13.706 24.536 13.898 24.7281 13.898 24.965V27.2813C13.898 27.5182 13.706 27.7103 13.4691 27.7103V27.7103C13.2321 27.7103 13.0401 27.5182 13.0401 27.2813V24.965Z" fill="#B8BFFB" fill-opacity="0.6"/>
<path d="M14.4985 21.1902C14.4985 20.9533 14.6906 20.7613 14.9275 20.7613V20.7613C15.1644 20.7613 15.3564 20.9533 15.3564 21.1902V23.5066C15.3564 23.7435 15.1644 23.9355 14.9275 23.9355V23.9355C14.6906 23.9355 14.4985 23.7435 14.4985 23.5066V21.1902Z" fill="#B8BFFB" fill-opacity="0.6"/>
<path d="M14.4985 14.8417C14.4985 14.6048 14.6906 14.4128 14.9275 14.4128V14.4128C15.1644 14.4128 15.3564 14.6048 15.3564 14.8417V17.158C15.3564 17.3949 15.1644 17.587 14.9275 17.587V17.587C14.6906 17.587 14.4985 17.3949 14.4985 17.158V14.8417Z" fill="#B8BFFB" fill-opacity="0.6"/>
<path d="M15.957 21.1822C15.957 20.9453 16.149 20.7533 16.3859 20.7533V20.7533C16.6228 20.7533 16.8149 20.9453 16.8149 21.1822V23.4986C16.8149 23.7355 16.6228 23.9275 16.3859 23.9275V23.9275C16.149 23.9275 15.957 23.7355 15.957 23.4986V21.1822Z" fill="#B8BFFB" fill-opacity="0.6"/>
<path d="M15.957 14.8498C15.957 14.6129 16.149 14.4209 16.3859 14.4209V14.4209C16.6228 14.4209 16.8149 14.6129 16.8149 14.8499V17.1662C16.8149 17.4031 16.6228 17.5951 16.3859 17.5951V17.5951C16.149 17.5951 15.957 17.4031 15.957 17.1662V14.8498Z" fill="#B8BFFB" fill-opacity="0.6"/>
<path d="M15.957 8.50131C15.957 8.2644 16.149 8.07236 16.3859 8.07236V8.07236C16.6228 8.07236 16.8149 8.26441 16.8149 8.50131V10.8176C16.8149 11.0546 16.6228 11.2466 16.3859 11.2466V11.2466C16.149 11.2466 15.957 11.0546 15.957 10.8176V8.50131Z" fill="#B8BFFB" fill-opacity="0.6"/>
<path d="M17.4154 24.965C17.4154 24.7281 17.6075 24.536 17.8444 24.536V24.536C18.0813 24.536 18.2733 24.7281 18.2733 24.965V27.2813C18.2733 27.5182 18.0813 27.7103 17.8444 27.7103V27.7103C17.6075 27.7103 17.4154 27.5182 17.4154 27.2813V24.965Z" fill="#B8BFFB" fill-opacity="0.6"/>
<path d="M17.4154 8.49334C17.4154 8.25644 17.6075 8.06439 17.8444 8.06439V8.06439C18.0813 8.06439 18.2733 8.25644 18.2733 8.49334V10.8097C18.2733 11.0466 18.0813 11.2386 17.8444 11.2386V11.2386C17.6075 11.2386 17.4154 11.0466 17.4154 10.8097V8.49334Z" fill="#B8BFFB"/>
<path d="M17.4154 21.1902C17.4154 20.9533 17.6075 20.7613 17.8444 20.7613V20.7613C18.0813 20.7613 18.2733 20.9533 18.2733 21.1902V23.5066C18.2733 23.7435 18.0813 23.9355 17.8444 23.9355V23.9355C17.6075 23.9355 17.4154 23.7435 17.4154 23.5066V21.1902Z" fill="#B8BFFB" fill-opacity="0.6"/>
<path d="M17.4154 14.8417C17.4154 14.6048 17.6075 14.4128 17.8444 14.4128V14.4128C18.0813 14.4128 18.2733 14.6048 18.2733 14.8417V17.158C18.2733 17.3949 18.0813 17.587 17.8444 17.587V17.587C17.6075 17.587 17.4154 17.3949 17.4154 17.158V14.8417Z" fill="#B8BFFB" fill-opacity="0.6"/>
<path d="M18.8739 8.49334C18.8739 8.25644 19.0659 8.06439 19.3028 8.06439V8.06439C19.5397 8.06439 19.7318 8.25644 19.7318 8.49334V11.4102C19.7318 11.6471 19.5397 11.8392 19.3028 11.8392V11.8392C19.0659 11.8392 18.8739 11.6471 18.8739 11.4102V8.49334Z" fill="#B8BFFB" fill-opacity="0.6"/>
<path d="M18.8739 20.5897C18.8739 20.3528 19.0659 20.1608 19.3028 20.1608V20.1608C19.5397 20.1608 19.7318 20.3528 19.7318 20.5897V23.5066C19.7318 23.7435 19.5397 23.9355 19.3028 23.9355V23.9355C19.0659 23.9355 18.8739 23.7435 18.8739 23.5066V20.5897Z" fill="#B8BFFB" fill-opacity="0.6"/>
<path d="M8.96872 24.9633L8.96872 19.7301C8.96872 19.661 9.02471 19.605 9.0938 19.605C9.1629 19.605 9.21889 19.661 9.21889 19.7301L9.21889 24.9633C9.21889 25.0324 9.1629 25.0884 9.0938 25.0884C9.02471 25.0884 8.96872 25.0324 8.96872 24.9633Z" fill="#B8BFFB"/>
<path d="M8.66486 21.192C8.66486 20.955 8.8569 20.763 9.09381 20.763V20.763C9.33071 20.763 9.52276 20.955 9.52276 21.192V23.5083C9.52276 23.7452 9.33071 23.9372 9.09381 23.9372V23.9372C8.8569 23.9372 8.66486 23.7452 8.66486 23.5083V21.192Z" fill="#B8BFFB"/>
<path d="M10.4272 25.394L10.4272 18.1876C10.4272 18.1185 10.4831 18.0625 10.5522 18.0625C10.6213 18.0625 10.6773 18.1185 10.6773 18.1876L10.6773 25.394C10.6773 25.4631 10.6213 25.5191 10.5522 25.5191C10.4831 25.5191 10.4272 25.4631 10.4272 25.394Z" fill="#B8BFFB"/>
<path d="M10.1233 21.1902C10.1233 20.9533 10.3153 20.7613 10.5522 20.7613V20.7613C10.7891 20.7613 10.9812 20.9533 10.9812 21.1902V23.5066C10.9812 23.7435 10.7891 23.9355 10.5522 23.9355V23.9355C10.3153 23.9355 10.1233 23.7435 10.1233 23.5066V21.1902Z" fill="#B8BFFB"/>
<path d="M11.8856 27.5388L11.8856 5.40487C11.8856 5.33577 11.9416 5.27979 12.0107 5.27979C12.0798 5.27979 12.1358 5.33577 12.1358 5.40487L12.1358 27.5388C12.1358 27.6079 12.0798 27.6639 12.0107 27.6639C11.9416 27.6639 11.8856 27.6079 11.8856 27.5388Z" fill="#B8BFFB"/>
<path d="M11.5817 12.7829C11.5817 12.546 11.7738 12.3539 12.0107 12.3539C12.2476 12.3539 12.4396 12.546 12.4396 12.7829V23.5924C12.4396 23.8294 12.2476 24.0214 12.0107 24.0214C11.7738 24.0214 11.5817 23.8294 11.5817 23.5924V12.7829Z" fill="#B8BFFB"/>
<path d="M13.344 23.5283V5.40484C13.344 5.33574 13.4 5.27975 13.4691 5.27975C13.5382 5.27975 13.5942 5.33574 13.5942 5.40484V23.5283C13.5942 23.5974 13.5382 23.6534 13.4691 23.6534C13.4 23.6534 13.344 23.5974 13.344 23.5283Z" fill="#B8BFFB"/>
<path d="M13.0402 8.48104C13.0402 8.24414 13.2322 8.05209 13.4691 8.05209V8.05209C13.706 8.05209 13.8981 8.24414 13.8981 8.48105V23.5066C13.8981 23.7435 13.706 23.9356 13.4691 23.9356V23.9356C13.2322 23.9356 13.0402 23.7435 13.0402 23.5066V8.48104Z" fill="#B8BFFB"/>
<path d="M14.8025 13.1254L14.8025 8.32119C14.8025 8.25209 14.8584 8.19611 14.9275 8.19611C14.9966 8.19611 15.0526 8.25209 15.0526 8.32119L15.0526 13.1254C15.0526 13.1945 14.9966 13.2505 14.9275 13.2505C14.8584 13.2505 14.8025 13.1945 14.8025 13.1254Z" fill="#B8BFFB"/>
<path d="M14.4986 8.49325C14.4986 8.25635 14.6906 8.0643 14.9275 8.0643V8.0643C15.1644 8.0643 15.3565 8.25635 15.3565 8.49325V10.8096C15.3565 11.0465 15.1644 11.2385 14.9275 11.2385V11.2385C14.6906 11.2385 14.4986 11.0465 14.4986 10.8096V8.49325Z" fill="#B8BFFB"/>
<path d="M16.218 10.5522L16.218 6.26266C16.218 6.19356 16.274 6.13757 16.3431 6.13757C16.4122 6.13757 16.4682 6.19356 16.4682 6.26266L16.4682 10.5522C16.4682 10.6213 16.4122 10.6773 16.3431 10.6773C16.274 10.6773 16.218 10.6213 16.218 10.5522Z" fill="#B8BFFB"/>
<path d="M15.957 8.50125C15.957 8.26434 16.1491 8.0723 16.386 8.0723V8.0723C16.6229 8.0723 16.8149 8.26434 16.8149 8.50125V10.8176C16.8149 11.0545 16.6229 11.2465 16.386 11.2465V11.2465C16.1491 11.2465 15.957 11.0545 15.957 10.8176V8.50125Z" fill="#B8BFFB"/>
<path d="M17.7193 13.0401L17.7193 3.68899C17.7193 3.61989 17.7753 3.5639 17.8444 3.5639C17.9135 3.5639 17.9695 3.61989 17.9695 3.68899L17.9695 13.0401C17.9695 13.1092 17.9135 13.1652 17.8444 13.1652C17.7753 13.1652 17.7193 13.1092 17.7193 13.0401Z" fill="#B8BFFB"/>
<path d="M19.1778 7.72118L19.1778 3.43166C19.1778 3.36257 19.2338 3.30658 19.3029 3.30658C19.372 3.30658 19.428 3.36257 19.428 3.43166L19.428 7.72118C19.428 7.79028 19.372 7.84626 19.3029 7.84626C19.2338 7.84626 19.1778 7.79028 19.1778 7.72118Z" fill="#B8BFFB"/>
<path d="M18.874 4.7185C18.874 4.4816 19.066 4.28955 19.3029 4.28955V4.28955C19.5398 4.28955 19.7319 4.4816 19.7319 4.7185V6.00536C19.7319 6.24226 19.5398 6.43431 19.3029 6.43431V6.43431C19.066 6.43431 18.874 6.24226 18.874 6.00536V4.7185Z" fill="#B8BFFB"/>
<path d="M18.8739 24.965C18.8739 24.7281 19.0659 24.536 19.3028 24.536V24.536C19.5397 24.536 19.7318 24.7281 19.7318 24.965V27.2813C19.7318 27.5182 19.5397 27.7103 19.3028 27.7103V27.7103C19.0659 27.7103 18.8739 27.5182 18.8739 27.2813V24.965Z" fill="#B8BFFB" fill-opacity="0.6"/>
<path d="M18.8739 14.2412C18.8739 14.0043 19.0659 13.8123 19.3028 13.8123V13.8123C19.5397 13.8123 19.7318 14.0043 19.7318 14.2412V17.7586C19.7318 17.9955 19.5397 18.1876 19.3028 18.1876V18.1876C19.0659 18.1876 18.8739 17.9955 18.8739 17.7586V14.2412Z" fill="#B8BFFB" fill-opacity="0.6"/>
<path d="M20.3323 8.49334C20.3323 8.25644 20.5243 8.06439 20.7612 8.06439V8.06439C20.9981 8.06439 21.1902 8.25644 21.1902 8.49334V23.5067C21.1902 23.7436 20.9981 23.9356 20.7612 23.9356V23.9356C20.5243 23.9356 20.3323 23.7436 20.3323 23.5067V8.49334Z" fill="#B8BFFB" fill-opacity="0.6"/>
<path d="M21.7907 10.0804C21.7907 9.84354 21.9828 9.65149 22.2197 9.65149V9.65149C22.4566 9.65149 22.6486 9.84354 22.6486 10.0804V21.9195C22.6486 22.1564 22.4566 22.3485 22.2197 22.3485V22.3485C21.9828 22.3485 21.7907 22.1564 21.7907 21.9195V10.0804Z" fill="#B8BFFB" fill-opacity="0.6"/>
<path d="M23.2491 11.6675C23.2491 11.4306 23.4412 11.2386 23.6781 11.2386V11.2386C23.915 11.2386 24.107 11.4306 24.107 11.6675V13.9839C24.107 14.2208 23.915 14.4128 23.6781 14.4128V14.4128C23.4412 14.4128 23.2491 14.2208 23.2491 13.9839V11.6675Z" fill="#B8BFFB" fill-opacity="0.6"/>
<path d="M23.2492 18.016C23.2492 17.7791 23.4412 17.587 23.6781 17.587V17.587C23.915 17.587 24.1071 17.7791 24.1071 18.016V20.3323C24.1071 20.5692 23.915 20.7613 23.6781 20.7613V20.7613C23.4412 20.7613 23.2492 20.5692 23.2492 20.3323V18.016Z" fill="#B8BFFB" fill-opacity="0.6"/>
</svg>
