<svg width="48" height="48" viewBox="0 0 48 48" fill="none" xmlns="http://www.w3.org/2000/svg">
<path d="M47.9401 23.9701C47.9401 37.2084 37.2084 47.9401 23.9701 47.9401C10.7318 47.9401 0 37.2084 0 23.9701C0 10.7318 10.7318 0 23.9701 0C37.2084 0 47.9401 10.7318 47.9401 23.9701Z" fill="black"/>
<path d="M46.6553 23.9697C46.6551 11.4414 36.4981 1.28516 23.9697 1.28516C11.4415 1.28534 1.28534 11.4415 1.28516 23.9697C1.28516 36.4981 11.4414 46.6551 23.9697 46.6553V47.9404L23.3516 47.9326C10.3991 47.6046 0 37.0012 0 23.9697C0.00018245 10.7317 10.7317 0.000182461 23.9697 0C37.2079 0 47.9402 10.7316 47.9404 23.9697L47.9326 24.5889C47.6044 37.5412 37.0011 47.9404 23.9697 47.9404V46.6553C36.4982 46.6553 46.6553 36.4982 46.6553 23.9697Z" fill="#B8BFFB"/>
<path d="M12.9811 12.7266C12.9811 12.3717 13.2688 12.084 13.6237 12.084C13.9786 12.084 14.2663 12.3717 14.2663 12.7266V16.1968C14.2663 16.5517 13.9786 16.8394 13.6237 16.8394C13.2688 16.8394 12.9811 16.5517 12.9811 16.1968V12.7266Z" fill="#B8BFFB" fill-opacity="0.6"/>
<path d="M15.166 12.7242C15.166 12.3693 15.4537 12.0815 15.8086 12.0815C16.1636 12.0815 16.4513 12.3693 16.4513 12.7242V16.1944C16.4513 16.5493 16.1636 16.837 15.8086 16.837C15.4537 16.837 15.166 16.5493 15.166 16.1944V12.7242Z" fill="#B8BFFB" fill-opacity="0.6"/>
<path d="M19.5359 37.4009C19.5359 37.046 19.8236 36.7583 20.1785 36.7583C20.5334 36.7583 20.8211 37.046 20.8211 37.4009V40.8711C20.8211 41.226 20.5334 41.5138 20.1785 41.5138C19.8236 41.5138 19.5359 41.226 19.5359 40.8711V37.4009Z" fill="#B8BFFB" fill-opacity="0.6"/>
<path d="M21.7208 31.7459C21.7208 31.391 22.0085 31.1033 22.3635 31.1033C22.7184 31.1033 23.0061 31.391 23.0061 31.7459V35.2161C23.0061 35.571 22.7184 35.8587 22.3635 35.8587C22.0085 35.8587 21.7208 35.571 21.7208 35.2161V31.7459Z" fill="#B8BFFB" fill-opacity="0.6"/>
<path d="M21.7208 22.2349C21.7208 21.88 22.0085 21.5923 22.3635 21.5923C22.7184 21.5923 23.0061 21.88 23.0061 22.2349V25.7051C23.0061 26.06 22.7184 26.3477 22.3635 26.3477C22.0085 26.3477 21.7208 26.06 21.7208 25.7051V22.2349Z" fill="#B8BFFB" fill-opacity="0.6"/>
<path d="M23.9058 31.7339C23.9058 31.379 24.1935 31.0913 24.5484 31.0913C24.9033 31.0913 25.191 31.379 25.191 31.7339V35.2041C25.191 35.5591 24.9033 35.8468 24.5484 35.8468C24.1935 35.8468 23.9058 35.559 23.9058 35.2041V31.7339Z" fill="#B8BFFB" fill-opacity="0.6"/>
<path d="M23.9058 22.2471C23.9058 21.8922 24.1935 21.6045 24.5484 21.6045C24.9033 21.6045 25.191 21.8922 25.191 22.2471V25.7173C25.191 26.0722 24.9033 26.3599 24.5484 26.3599C24.1935 26.3599 23.9058 26.0722 23.9058 25.7173V22.2471Z" fill="#B8BFFB" fill-opacity="0.6"/>
<path d="M23.9058 12.7361C23.9058 12.3812 24.1935 12.0935 24.5484 12.0935C24.9033 12.0935 25.191 12.3812 25.191 12.7361V16.2063C25.191 16.5612 24.9033 16.849 24.5484 16.849C24.1935 16.849 23.9058 16.5612 23.9058 16.2063V12.7361Z" fill="#B8BFFB" fill-opacity="0.6"/>
<path d="M26.0907 37.4009C26.0907 37.046 26.3784 36.7583 26.7333 36.7583C27.0882 36.7583 27.376 37.046 27.376 37.4009V40.8711C27.376 41.226 27.0882 41.5138 26.7333 41.5138C26.3784 41.5138 26.0907 41.226 26.0907 40.8711V37.4009Z" fill="#B8BFFB" fill-opacity="0.6"/>
<path d="M26.0907 12.7242C26.0907 12.3693 26.3784 12.0815 26.7333 12.0815C27.0882 12.0815 27.376 12.3693 27.376 12.7242V16.1944C27.376 16.5493 27.0882 16.837 26.7333 16.837C26.3784 16.837 26.0907 16.5493 26.0907 16.1944V12.7242Z" fill="#B8BFFB"/>
<path d="M26.0907 31.7459C26.0907 31.391 26.3784 31.1033 26.7333 31.1033C27.0882 31.1033 27.376 31.391 27.376 31.7459V35.2161C27.376 35.571 27.0882 35.8587 26.7333 35.8587C26.3784 35.8587 26.0907 35.571 26.0907 35.2161V31.7459Z" fill="#B8BFFB" fill-opacity="0.6"/>
<path d="M26.0907 22.2349C26.0907 21.88 26.3784 21.5923 26.7333 21.5923C27.0882 21.5923 27.376 21.88 27.376 22.2349V25.7051C27.376 26.06 27.0882 26.3477 26.7333 26.3477C26.3784 26.3477 26.0907 26.06 26.0907 25.7051V22.2349Z" fill="#B8BFFB" fill-opacity="0.6"/>
<path d="M28.2756 12.7242C28.2756 12.3693 28.5633 12.0815 28.9183 12.0815C29.2732 12.0815 29.5609 12.3693 29.5609 12.7242V17.094C29.5609 17.449 29.2732 17.7367 28.9183 17.7367C28.5633 17.7367 28.2756 17.449 28.2756 17.094V12.7242Z" fill="#B8BFFB" fill-opacity="0.6"/>
<path d="M28.2756 30.8462C28.2756 30.4913 28.5633 30.2036 28.9183 30.2036C29.2732 30.2036 29.5609 30.4913 29.5609 30.8462V35.2161C29.5609 35.571 29.2732 35.8587 28.9183 35.8587C28.5633 35.8587 28.2756 35.571 28.2756 35.2161V30.8462Z" fill="#B8BFFB" fill-opacity="0.6"/>
<path d="M13.4364 37.3985L13.4364 29.5585C13.4364 29.4549 13.5202 29.3711 13.6238 29.3711C13.7273 29.3711 13.8112 29.4549 13.8112 29.5585L13.8112 37.3985C13.8112 37.502 13.7273 37.5859 13.6238 37.5859C13.5202 37.5859 13.4364 37.502 13.4364 37.3985Z" fill="#B8BFFB"/>
<path d="M12.9811 31.7485C12.9811 31.3935 13.2689 31.1058 13.6238 31.1058C13.9787 31.1058 14.2664 31.3935 14.2664 31.7485V35.2187C14.2664 35.5736 13.9787 35.8613 13.6238 35.8613C13.2689 35.8613 12.9811 35.5736 12.9811 35.2187V31.7485Z" fill="#B8BFFB"/>
<path d="M15.6213 38.0437L15.6213 27.2475C15.6213 27.144 15.7052 27.0602 15.8087 27.0602C15.9122 27.0602 15.9961 27.144 15.9961 27.2475L15.9961 38.0437C15.9961 38.1472 15.9122 38.2311 15.8087 38.2311C15.7052 38.2311 15.6213 38.1472 15.6213 38.0437Z" fill="#B8BFFB"/>
<path d="M15.1661 31.7459C15.1661 31.391 15.4538 31.1033 15.8087 31.1033C16.1636 31.1033 16.4513 31.391 16.4513 31.7459V35.2161C16.4513 35.571 16.1636 35.8588 15.8087 35.8588C15.4538 35.8588 15.1661 35.571 15.1661 35.2161V31.7459Z" fill="#B8BFFB"/>
<path d="M17.8063 41.2569L17.8063 8.09724C17.8063 7.99373 17.8901 7.90985 17.9937 7.90985C18.0972 7.90985 18.1811 7.99373 18.1811 8.09724L18.1811 41.2569C18.1811 41.3604 18.0972 41.4443 17.9937 41.4443C17.8902 41.4443 17.8063 41.3604 17.8063 41.2569Z" fill="#B8BFFB"/>
<path d="M17.351 19.1505C17.351 18.7956 17.6388 18.5078 17.9937 18.5078C18.3486 18.5078 18.6363 18.7956 18.6363 19.1505V35.3447C18.6363 35.6996 18.3486 35.9874 17.9937 35.9874C17.6388 35.9874 17.351 35.6996 17.351 35.3447V19.1505Z" fill="#B8BFFB"/>
<path d="M19.9912 35.2486V8.09718C19.9912 7.99367 20.0751 7.90979 20.1786 7.90979C20.2821 7.90979 20.366 7.99367 20.366 8.09718V35.2486C20.366 35.3521 20.2821 35.436 20.1786 35.436C20.0751 35.436 19.9912 35.3521 19.9912 35.2486Z" fill="#B8BFFB"/>
<path d="M19.5359 12.7058C19.5359 12.3509 19.8237 12.0631 20.1786 12.0631C20.5335 12.0631 20.8212 12.3509 20.8212 12.7058V35.2162C20.8212 35.5711 20.5335 35.8588 20.1786 35.8588C19.8237 35.8588 19.5359 35.5711 19.5359 35.2162V12.7058Z" fill="#B8BFFB"/>
<path d="M22.1761 19.6637L22.1761 12.4663C22.1761 12.3627 22.26 12.2789 22.3635 12.2789C22.467 12.2789 22.5509 12.3627 22.5509 12.4663L22.5509 19.6637C22.5509 19.7672 22.467 19.8511 22.3635 19.8511C22.26 19.8511 22.1761 19.7672 22.1761 19.6637Z" fill="#B8BFFB"/>
<path d="M21.7209 12.724C21.7209 12.3691 22.0086 12.0814 22.3635 12.0814C22.7184 12.0814 23.0061 12.3691 23.0061 12.7241V16.1942C23.0061 16.5492 22.7184 16.8369 22.3635 16.8369C22.0086 16.8369 21.7209 16.5492 21.7209 16.1942V12.724Z" fill="#B8BFFB"/>
<path d="M24.2968 15.8086L24.2968 9.38234C24.2968 9.27882 24.3807 9.19495 24.4842 9.19495C24.5877 9.19495 24.6716 9.27882 24.6716 9.38234L24.6716 15.8086C24.6716 15.9121 24.5877 15.996 24.4842 15.996C24.3807 15.996 24.2968 15.9121 24.2968 15.8086Z" fill="#B8BFFB"/>
<path d="M23.9058 12.736C23.9058 12.3811 24.1935 12.0934 24.5485 12.0934C24.9034 12.0934 25.1911 12.3811 25.1911 12.736V16.2062C25.1911 16.5612 24.9034 16.8489 24.5485 16.8489C24.1935 16.8489 23.9058 16.5612 23.9058 16.2062V12.736Z" fill="#B8BFFB"/>
<path d="M26.546 19.5359L26.546 5.52663C26.546 5.42311 26.6299 5.33923 26.7334 5.33923C26.8369 5.33923 26.9208 5.42311 26.9208 5.52663L26.9208 19.5359C26.9208 19.6395 26.8369 19.7233 26.7334 19.7233C26.6299 19.7233 26.546 19.6395 26.546 19.5359Z" fill="#B8BFFB"/>
<path d="M28.731 11.5674L28.731 5.14107C28.731 5.03755 28.8148 4.95367 28.9183 4.95367C29.0219 4.95367 29.1057 5.03755 29.1057 5.14107L29.1057 11.5674C29.1057 11.6709 29.0219 11.7547 28.9183 11.7547C28.8148 11.7547 28.731 11.6709 28.731 11.5674Z" fill="#B8BFFB"/>
<path d="M28.2757 7.06896C28.2757 6.71405 28.5634 6.42633 28.9183 6.42633C29.2732 6.42633 29.561 6.71405 29.561 7.06896V8.99685C29.561 9.35176 29.2732 9.63948 28.9183 9.63948C28.5634 9.63948 28.2757 9.35176 28.2757 8.99685V7.06896Z" fill="#B8BFFB"/>
<path d="M28.2756 37.4009C28.2756 37.046 28.5633 36.7583 28.9183 36.7583C29.2732 36.7583 29.5609 37.046 29.5609 37.4009V40.8711C29.5609 41.226 29.2732 41.5138 28.9183 41.5138C28.5633 41.5138 28.2756 41.226 28.2756 40.8711V37.4009Z" fill="#B8BFFB" fill-opacity="0.6"/>
<path d="M28.2756 21.3353C28.2756 20.9803 28.5633 20.6926 28.9183 20.6926C29.2732 20.6926 29.5609 20.9803 29.5609 21.3353V26.6048C29.5609 26.9597 29.2732 27.2474 28.9183 27.2474C28.5633 27.2474 28.2756 26.9597 28.2756 26.6048V21.3353Z" fill="#B8BFFB" fill-opacity="0.6"/>
<path d="M30.4606 12.7242C30.4606 12.3693 30.7483 12.0815 31.1032 12.0815C31.4581 12.0815 31.7458 12.3693 31.7458 12.7242V35.2162C31.7458 35.5711 31.4581 35.8588 31.1032 35.8588C30.7483 35.8588 30.4606 35.5711 30.4606 35.2162V12.7242Z" fill="#B8BFFB" fill-opacity="0.6"/>
<path d="M32.6455 15.1019C32.6455 14.7469 32.9332 14.4592 33.2881 14.4592C33.6431 14.4592 33.9308 14.7469 33.9308 15.1019V32.8384C33.9308 33.1933 33.6431 33.4811 33.2881 33.4811C32.9332 33.4811 32.6455 33.1933 32.6455 32.8384V15.1019Z" fill="#B8BFFB" fill-opacity="0.6"/>
<path d="M34.8304 17.4795C34.8304 17.1246 35.1182 16.8369 35.4731 16.8369C35.828 16.8369 36.1157 17.1246 36.1157 17.4795V20.9497C36.1157 21.3047 35.828 21.5924 35.4731 21.5924C35.1182 21.5924 34.8304 21.3047 34.8304 20.9497V17.4795Z" fill="#B8BFFB" fill-opacity="0.6"/>
<path d="M34.8305 26.9904C34.8305 26.6355 35.1182 26.3478 35.4731 26.3478C35.828 26.3478 36.1158 26.6355 36.1158 26.9904V30.4606C36.1158 30.8155 35.828 31.1032 35.4731 31.1032C35.1182 31.1032 34.8305 30.8155 34.8305 30.4606V26.9904Z" fill="#B8BFFB" fill-opacity="0.6"/>
</svg>
