<svg width="32" height="33" viewBox="0 0 32 33" fill="none" xmlns="http://www.w3.org/2000/svg">
<path d="M16 0.428711C24.5986 0.428711 31.5713 7.41854 31.5713 16.043C31.5712 24.6674 24.5985 31.6572 16 31.6572C7.40146 31.6572 0.428751 24.6674 0.428711 16.043C0.428711 7.41854 7.40143 0.428711 16 0.428711Z" fill="black" stroke="#B8BFFB" stroke-width="0.857909"/>
<rect x="8.65396" y="20.6895" width="0.856829" height="3.17027" rx="0.428415" fill="#B8BFFB" fill-opacity="0.6"/>
<rect x="10.1106" y="20.6895" width="0.856829" height="3.17027" rx="0.428415" fill="#B8BFFB" fill-opacity="0.6"/>
<rect x="11.567" y="14.3634" width="0.867685" height="9.49633" rx="0.433842" fill="#B8BFFB" fill-opacity="0.6"/>
<rect x="11.5672" y="24.4596" width="0.856829" height="3.17027" rx="0.428415" fill="#B8BFFB" fill-opacity="0.6"/>
<rect x="13.0132" y="14.3634" width="0.867685" height="9.49633" rx="0.433842" fill="#B8BFFB" fill-opacity="0.6"/>
<rect x="13.0238" y="24.4596" width="0.856829" height="3.17027" rx="0.428415" fill="#B8BFFB" fill-opacity="0.6"/>
<rect x="14.4804" y="20.6895" width="0.856829" height="3.17027" rx="0.428415" fill="#B8BFFB" fill-opacity="0.6"/>
<rect x="14.4804" y="14.349" width="0.856829" height="3.17027" rx="0.428415" fill="#B8BFFB" fill-opacity="0.6"/>
<rect x="15.937" y="20.6895" width="0.856829" height="3.17027" rx="0.428415" fill="#B8BFFB" fill-opacity="0.6"/>
<rect x="15.937" y="14.349" width="0.856829" height="3.17027" rx="0.428415" fill="#B8BFFB" fill-opacity="0.6"/>
<rect x="17.3936" y="4.2384" width="0.856829" height="3.17027" rx="0.428415" fill="#B8BFFB" fill-opacity="0.6"/>
<rect x="17.3936" y="24.4596" width="0.856829" height="3.17027" rx="0.428415" fill="#B8BFFB" fill-opacity="0.6"/>
<rect x="17.3936" y="8.00845" width="0.856829" height="3.17027" rx="0.428415" fill="#B8BFFB" fill-opacity="0.6"/>
<rect x="8.73965" y="8.00845" width="7.96851" height="2.4848" rx="0.428415" fill="#B8BFFB"/>
<rect x="13.8806" y="4.92389" width="8.73966" height="2.31344" rx="0.428415" transform="rotate(90 13.8806 4.92389)" fill="#B8BFFB"/>
<rect x="17.3936" y="20.6895" width="0.856829" height="3.17027" rx="0.428415" fill="#B8BFFB" fill-opacity="0.6"/>
<rect x="17.3936" y="14.349" width="0.856829" height="3.17027" rx="0.428415" fill="#B8BFFB" fill-opacity="0.6"/>
<rect x="18.8503" y="8.00845" width="0.856829" height="3.77005" rx="0.428415" fill="#B8BFFB" fill-opacity="0.6"/>
<rect x="18.8503" y="20.0898" width="0.856829" height="3.77005" rx="0.428415" fill="#B8BFFB" fill-opacity="0.6"/>
<rect x="18.8503" y="4.2384" width="0.856829" height="3.17027" rx="0.428415" fill="#B8BFFB" fill-opacity="0.6"/>
<rect x="18.8503" y="24.4596" width="0.856829" height="3.17027" rx="0.428415" fill="#B8BFFB" fill-opacity="0.6"/>
<rect x="18.8503" y="13.7492" width="0.856829" height="4.36983" rx="0.428415" fill="#B8BFFB" fill-opacity="0.6"/>
<rect x="20.3069" y="8.00845" width="0.856829" height="15.8513" rx="0.428415" fill="#B8BFFB" fill-opacity="0.6"/>
<rect x="21.7635" y="9.5936" width="0.856829" height="12.6811" rx="0.428415" fill="#B8BFFB" fill-opacity="0.6"/>
<rect x="23.2201" y="11.1787" width="0.856829" height="3.17027" rx="0.428415" fill="#B8BFFB" fill-opacity="0.6"/>
<rect x="23.2201" y="17.5193" width="0.856829" height="3.17027" rx="0.428415" fill="#B8BFFB" fill-opacity="0.6"/>
</svg>
